<svg xmlns="http://www.w3.org/2000/svg" viewBox="0 0 693.29 693.29"><defs><style>.cls-1{font-size:49px;font-family:Pretendard-Regular-KSCpc-EUC-H, Pretendard;}</style></defs><g id="레이어_2" data-name="레이어 2"><g id="레이어_1-2" data-name="레이어 1"><text class="cls-1" transform="matrix(0.99, 0.11, -0.11, 0.99, 365.98, 46.89)">R</text><text class="cls-1" transform="translate(394.5 50.13) rotate(11.69)">e</text><text class="cls-1" transform="translate(420.23 55.44) rotate(16.66)">a</text><text class="cls-1" transform="translate(444.61 62.64) rotate(21.81)">d</text><text class="cls-1" transform="translate(470.8 73.4) rotate(25.65)"> </text><text class="cls-1" transform="translate(481.47 77.77) rotate(30.67)">M</text><text class="cls-1" transform="matrix(0.8, 0.6, -0.6, 0.8, 516.36, 98.84)">o</text><text class="cls-1" transform="translate(537.89 115.34) rotate(41.24)">r</text><text class="cls-1" transform="matrix(0.71, 0.71, -0.71, 0.71, 549.8, 125.49)">e</text><text class="cls-1" transform="translate(568.33 144.42) rotate(48.78)"> </text><text class="cls-1" transform="matrix(0.63, 0.78, -0.78, 0.63, 576.19, 153.39)"> </text><text class="cls-1" transform="matrix(0.6, 0.8, -0.8, 0.6, 583.71, 162.67)"> </text><text class="cls-1" transform="translate(590.94 171.85) rotate(57.21)">R</text><text class="cls-1" transform="translate(606.47 195.98) rotate(62.43)">e</text><text class="cls-1" transform="translate(618.66 219.27) rotate(67.39)">a</text><text class="cls-1" transform="translate(628.52 242.69) rotate(72.53)">d</text><text class="cls-1" transform="matrix(0.24, 0.97, -0.97, 0.24, 636.77, 269.78)"> </text><text class="cls-1" transform="translate(640.14 280.8) rotate(81.41)">M</text><text class="cls-1" transform="translate(645.89 321.13) rotate(87.82)">o</text><text class="cls-1" transform="translate(646.76 348.27) rotate(91.91)">r</text><text class="cls-1" transform="translate(646.46 363.94) rotate(95.82)">e</text><text class="cls-1" transform="translate(643.56 390.25) rotate(99.46)"> </text><text class="cls-1" transform="translate(641.6 402.03) rotate(101.75)"> </text><text class="cls-1" transform="matrix(-0.24, 0.97, -0.97, -0.24, 639.19, 413.69)"> </text><text class="cls-1" transform="matrix(-0.31, 0.95, -0.95, -0.31, 636.66, 425.11)">R</text><text class="cls-1" transform="matrix(-0.39, 0.92, -0.92, -0.39, 627.8, 452.39)">e</text><text class="cls-1" transform="translate(617.45 476.57) rotate(118.18)">a</text><text class="cls-1" transform="matrix(-0.55, 0.84, -0.84, -0.55, 605.54, 498.99)">d</text><text class="cls-1" transform="matrix(-0.6, 0.8, -0.8, -0.6, 589.77, 522.54)"> </text><text class="cls-1" transform="translate(583.37 532.13) rotate(132.08)">M</text><text class="cls-1" transform="translate(555.81 562.15) rotate(138.49)">o</text><text class="cls-1" transform="matrix(-0.79, 0.61, -0.61, -0.79, 535.37, 580.01)">r</text><text class="cls-1" transform="matrix(-0.83, 0.55, -0.55, -0.83, 523.07, 589.69)">e</text><text class="cls-1" transform="translate(500.84 604.11) rotate(150.2)"> </text><text class="cls-1" transform="translate(490.51 610.04) rotate(152.48)"> </text><text class="cls-1" transform="translate(479.93 615.56) rotate(154.77)"> </text><text class="cls-1" transform="translate(469.52 620.82) rotate(158.69)">R</text><text class="cls-1" transform="matrix(-0.96, 0.28, -0.28, -0.96, 442.76, 631.24)">e</text><text class="cls-1" transform="translate(417.51 638.53) rotate(168.92)">a</text><text class="cls-1" transform="translate(392.6 643.5) rotate(174.03)">d</text><text class="cls-1" transform="translate(364.38 646.19) rotate(177.82)"> </text><text class="cls-1" transform="matrix(-1, -0.05, 0.05, -1, 352.91, 647.3)">M</text><text class="cls-1" transform="matrix(-0.99, -0.16, 0.16, -0.99, 312.21, 645.02)">o</text><text class="cls-1" transform="matrix(-0.97, -0.23, 0.23, -0.97, 285.47, 640.53)">r</text><text class="cls-1" transform="translate(270.19 637.14) rotate(-162.69)">e</text><text class="cls-1" transform="matrix(-0.93, -0.36, 0.36, -0.93, 244.97, 629.05)"> </text><text class="cls-1" transform="matrix(-0.92, -0.4, 0.4, -0.92, 233.84, 624.79)"> </text><text class="cls-1" transform="translate(222.87 620.07) rotate(-154.43)"> </text><text class="cls-1" transform="matrix(-0.87, -0.49, 0.49, -0.87, 212.21, 615.33)">R</text><text class="cls-1" transform="matrix(-0.82, -0.57, 0.57, -0.82, 187.23, 601.19)">e</text><text class="cls-1" transform="translate(165.59 586.23) rotate(-140.39)">a</text><text class="cls-1" transform="matrix(-0.71, -0.7, 0.7, -0.71, 145.96, 570.11)">d</text><text class="cls-1" transform="translate(125.99 549.99) rotate(-131.51)"> </text><text class="cls-1" transform="translate(117.85 541.82) rotate(-126.53)">M</text><text class="cls-1" transform="translate(93.87 508.88) rotate(-120.09)">o</text><text class="cls-1" transform="matrix(-0.44, -0.9, 0.9, -0.44, 80.42, 485.33)">r</text><text class="cls-1" transform="translate(73.37 471.36) rotate(-111.97)">e</text><text class="cls-1" transform="translate(63.67 446.71) rotate(-108.29)"> </text><text class="cls-1" transform="translate(59.92 435.38) rotate(-105.99)"> </text><text class="cls-1" transform="matrix(-0.24, -0.97, 0.97, -0.24, 56.63, 423.94)"> </text><text class="cls-1" transform="translate(53.55 412.68) rotate(-99.78)">R</text><text class="cls-1" transform="matrix(-0.08, -1, 1, -0.08, 48.68, 384.36)">e</text><text class="cls-1" transform="translate(46.43 358.21) rotate(-89.07)">a</text><text class="cls-1" transform="translate(46.61 332.75) rotate(-84.65)">d</text><text class="cls-1" transform="translate(49.51 304.56) rotate(-80.83)"> </text><text class="cls-1" transform="translate(50.67 293.07) rotate(-75.8)">M</text><text class="cls-1" transform="translate(60.98 253.68) rotate(-69.31)">o</text><text class="cls-1" transform="matrix(0.42, -0.91, 0.91, 0.42, 70.73, 228.37)">r</text><text class="cls-1" transform="translate(77.11 214.07) rotate(-61.17)">e</text><text class="cls-1" transform="matrix(0.54, -0.84, 0.84, 0.54, 90.07, 190.97)"> </text><text class="cls-1" transform="translate(96.46 180.92) rotate(-55.25)"> </text><text class="cls-1" transform="matrix(0.6, -0.8, 0.8, 0.6, 103.25, 171.12)"> </text><text class="cls-1" transform="matrix(0.65, -0.76, 0.76, 0.65, 110.04, 161.59)">R</text><text class="cls-1" transform="matrix(0.72, -0.69, 0.69, 0.72, 128.85, 139.89)">e</text><text class="cls-1" transform="translate(147.78 121.64) rotate(-39)">a</text><text class="cls-1" transform="translate(167.46 105.58) rotate(-33.91)">d</text><text class="cls-1" transform="matrix(0.87, -0.5, 0.5, 0.87, 191.11, 89.99)"> </text><text class="cls-1" transform="translate(200.74 83.62) rotate(-25.07)">M</text><text class="cls-1" transform="translate(237.77 66.67) rotate(-18.59)">o</text><text class="cls-1" transform="translate(263.54 58.18) rotate(-14.4)">r</text><text class="cls-1" transform="translate(278.63 54.07) rotate(-10.44)">e</text><text class="cls-1" transform="translate(304.74 49.49) rotate(-6.78)"> </text><text class="cls-1" transform="translate(316.57 48.07) rotate(-4.52)"> </text><text class="cls-1" transform="translate(328.45 47.13) rotate(-2.26)"> </text><text class="cls-1" transform="matrix(1, -0.02, 0.02, 1, 340.31, 46.75)"> </text><text class="cls-1" transform="translate(352.3 46.64) rotate(2.22)"> </text></g></g></svg>