<svg width="678" height="672" viewBox="0 0 678 672" fill="none" xmlns="http://www.w3.org/2000/svg">
<path d="M366.498 12.1739L371.552 12.8329L379.599 43.4068L380.009 43.4602L395.734 15.9851L400.789 16.644L396.164 51.61L392.202 51.0936L395.716 24.5276L395.374 24.4831L380.931 49.6243L377.105 49.1257L369.69 21.135L369.348 21.0905L365.834 47.6564L361.872 47.14L366.498 12.1739Z" fill="white"/>
<path d="M400.21 63.1415C399.54 62.9771 398.957 62.7747 398.461 62.5344C397.961 62.3053 397.624 62.1158 397.448 61.9662L399.319 58.7344C400.218 59.2154 401.043 59.5128 401.796 59.6268C402.55 59.7408 403.284 59.5723 404.001 59.1211C404.725 58.6839 405.49 57.872 406.295 56.6854L407.532 54.8595L404.461 26.7037L408.745 27.7561L410.74 49.9685L411.008 50.0343L423.206 31.308L427.491 32.3604L409.242 59.1131C408.421 60.3192 407.539 61.268 406.597 61.9595C405.652 62.6621 404.647 63.1074 403.582 63.2953C402.528 63.486 401.404 63.4348 400.21 63.1415Z" fill="white"/>
<path d="M440.755 64.5038L445.488 28.2395L449.505 29.8994L445.202 59.25L445.521 59.3817L463.596 35.7223L468.06 37.5666L463.885 66.9699L464.203 67.1016L482.151 43.3895L486.168 45.0494L463.582 73.9363L459.501 72.2501L463.181 43.3141L462.926 43.2087L444.836 66.1901L440.755 64.5038Z" fill="white"/>
<path d="M479.954 83.252C477.856 82.1044 476.291 80.5999 475.259 78.7383C474.238 76.8823 473.78 74.8167 473.885 72.5416C474 70.2719 474.722 67.9407 476.05 65.5478C477.389 63.1348 478.997 61.2684 480.873 59.9487C482.76 58.6345 484.766 57.9101 486.892 57.7754C489.029 57.6462 491.146 58.1554 493.244 59.303C495.343 60.4505 496.903 61.9523 497.924 63.8083C498.956 65.6699 499.411 67.7405 499.29 70.0202C499.179 72.3054 498.454 74.6545 497.115 77.0675C495.787 79.4604 494.182 81.3089 492.302 82.6131C490.431 83.9227 488.427 84.6421 486.291 84.7713C484.165 84.906 482.052 84.3996 479.954 83.252ZM481.728 80.0548C483.322 80.9265 484.86 81.2365 486.341 80.9849C487.822 80.7332 489.178 80.079 490.408 79.0222C491.639 77.9654 492.684 76.6628 493.544 75.1145C494.403 73.5661 494.956 71.9882 495.204 70.3806C495.452 68.7731 495.29 67.2757 494.718 65.8885C494.147 64.5013 493.064 63.3719 491.47 62.5002C489.876 61.6285 488.336 61.3235 486.849 61.5852C485.363 61.8469 484.001 62.5112 482.765 63.578C481.528 64.6449 480.481 65.9525 479.621 67.5008C478.762 69.0492 478.211 70.6221 477.969 72.2196C477.727 73.8171 477.895 75.3044 478.472 76.6815C479.049 78.0587 480.134 79.1831 481.728 80.0548Z" fill="white"/>
<path d="M493.43 90.45L507.925 68.2748L511.231 70.4044L509.042 73.7538L509.274 73.9032C510.397 73.0676 511.714 72.6505 513.224 72.6521C514.734 72.6537 516.156 73.0842 517.49 73.9435C517.741 74.1054 518.052 74.3126 518.423 74.5651C518.793 74.8176 519.069 75.0157 519.25 75.1595L516.985 78.6244C516.888 78.5208 516.65 78.3062 516.272 77.9807C515.91 77.6518 515.502 77.341 515.048 77.0484C513.965 76.3509 512.851 75.9544 511.704 75.8588C510.574 75.7598 509.504 75.9461 508.496 76.4178C507.503 76.886 506.679 77.6206 506.025 78.6216L496.852 92.6544L493.43 90.45Z" fill="white"/>
<path d="M515.549 93.6407L518.529 89.5806L519.193 90.0749L535.601 87.5807L539.642 90.5877L522.209 93.1793L521.932 92.9733L515.549 93.6407ZM506.684 99.0828L527.973 70.895L531.238 73.3253L509.949 101.513L506.684 99.0828ZM520.188 109.133L519.787 92.4945L523.816 91.9673L524.339 112.223L520.188 109.133Z" fill="white"/>
<path d="M586.914 123.275L590.093 127.297L574.342 154.851L574.599 155.177L605.304 146.537L608.484 150.559L580.501 172.36L578.008 169.208L599.269 152.644L599.054 152.373L570.919 160.24L568.512 157.197L582.898 131.937L582.683 131.665L561.422 148.229L558.93 145.077L586.914 123.275Z" fill="white"/>
<path d="M574.997 183.263C574.629 182.678 574.351 182.126 574.161 181.607C573.961 181.094 573.85 180.722 573.828 180.492L577.435 179.478C577.746 180.45 578.133 181.24 578.596 181.848C579.06 182.455 579.707 182.847 580.538 183.023C581.366 183.215 582.485 183.166 583.894 182.876L586.061 182.429L603.524 160.079L605.877 163.824L591.792 181.157L591.939 181.392L613.816 176.465L616.169 180.21L584.322 186.675C582.887 186.967 581.588 187.033 580.426 186.872C579.254 186.717 578.219 186.335 577.32 185.726C576.427 185.128 575.652 184.307 574.997 183.263Z" fill="white"/>
<path d="M602.894 212.506L631.632 189.889L633.344 193.884L609.747 211.859L609.883 212.176L639.348 207.899L641.25 212.338L617.707 230.44L617.843 230.758L647.254 226.353L648.966 230.348L612.62 235.209L610.881 231.151L633.743 213.036L633.635 212.783L604.632 216.565L602.894 212.506Z" fill="white"/>
<path d="M617.719 253.159C617.025 250.87 616.96 248.699 617.527 246.645C618.096 244.603 619.214 242.804 620.881 241.249C622.552 239.705 624.698 238.541 627.32 237.757C629.963 236.966 632.417 236.754 634.679 237.121C636.945 237.5 638.884 238.384 640.495 239.774C642.11 241.176 643.265 243.02 643.96 245.309C644.655 247.598 644.717 249.763 644.148 251.806C643.582 253.86 642.458 255.66 640.776 257.207C639.098 258.765 636.938 259.94 634.294 260.731C631.672 261.515 629.233 261.716 626.979 261.335C624.727 260.964 622.794 260.078 621.179 258.677C619.567 257.287 618.414 255.447 617.719 253.159ZM621.222 252.111C621.75 253.849 622.631 255.146 623.864 256.001C625.097 256.857 626.522 257.337 628.14 257.441C629.758 257.545 631.415 257.343 633.111 256.836C634.808 256.328 636.307 255.586 637.608 254.608C638.91 253.631 639.842 252.446 640.404 251.053C640.967 249.661 640.985 248.095 640.457 246.357C639.929 244.618 639.043 243.323 637.799 242.471C636.555 241.619 635.119 241.143 633.49 241.042C631.861 240.941 630.198 241.144 628.502 241.652C626.805 242.159 625.312 242.9 624.022 243.874C622.731 244.848 621.81 246.03 621.258 247.419C620.707 248.809 620.695 250.372 621.222 252.111Z" fill="white"/>
<path d="M622.238 267.618L648.1 261.87L648.965 265.706L645.059 266.575L645.119 266.844C646.505 267.031 647.736 267.652 648.811 268.709C649.886 269.766 650.598 271.068 650.947 272.616C651.013 272.908 651.09 273.273 651.177 273.713C651.265 274.153 651.323 274.488 651.351 274.717L647.31 275.615C647.313 275.473 647.294 275.154 647.253 274.656C647.225 274.168 647.152 273.66 647.033 273.133C646.749 271.876 646.233 270.813 645.482 269.943C644.746 269.082 643.853 268.468 642.804 268.101C641.768 267.742 640.666 267.692 639.499 267.952L623.133 271.589L622.238 267.618Z" fill="white"/>
<path d="M635.808 285.331L640.785 284.513L640.91 285.332L654.342 295.048L655.103 300.033L640.873 289.669L640.821 289.328L635.808 285.331ZM625.671 283.014L660.647 277.753L661.262 281.782L626.286 287.043L625.671 283.014ZM628.214 299.677L639.63 287.481L642.869 289.928L628.996 304.798L628.214 299.677Z" fill="white"/>
<path d="M665.323 356.042L664.754 361.116L634.273 369.826L634.227 370.238L662.033 385.387L661.465 390.46L626.355 386.582L626.8 382.605L653.476 385.552L653.514 385.209L628.069 371.292L628.499 367.453L656.404 359.43L656.443 359.087L629.767 356.14L630.213 352.164L665.323 356.042Z" fill="white"/>
<path d="M614.887 390.614C615.039 389.94 615.23 389.353 615.46 388.85C615.68 388.345 615.863 388.003 616.009 387.824L619.285 389.609C618.821 390.519 618.54 391.352 618.441 392.107C618.342 392.863 618.525 393.592 618.992 394.296C619.444 395.009 620.273 395.752 621.478 396.525L623.332 397.714L651.481 393.915L650.513 398.223L628.297 400.792L628.237 401.061L647.245 412.762L646.276 417.07L619.105 399.533C617.88 398.743 616.912 397.887 616.2 396.964C615.477 396.038 615.011 395.046 614.801 393.986C614.589 392.938 614.617 391.814 614.887 390.614Z" fill="white"/>
<path d="M614.153 430.895L650.633 434.909L649.015 438.947L619.484 435.228L619.355 435.549L643.337 453.113L641.539 457.599L611.957 454.009L611.828 454.329L635.862 471.765L634.244 475.803L604.956 453.842L606.6 449.74L635.707 452.846L635.81 452.59L612.509 434.998L614.153 430.895Z" fill="white"/>
<path d="M596.035 470.178C597.152 468.063 598.636 466.47 600.489 465.399C602.337 464.338 604.404 463.833 606.692 463.883C608.975 463.943 611.33 464.605 613.758 465.868C616.206 467.141 618.11 468.696 619.469 470.53C620.822 472.375 621.585 474.353 621.757 476.465C621.924 478.587 621.449 480.705 620.333 482.82C619.216 484.935 617.734 486.523 615.887 487.584C614.034 488.655 611.961 489.158 609.668 489.092C607.37 489.037 604.996 488.373 602.548 487.099C600.121 485.836 598.235 484.285 596.892 482.445C595.543 480.616 594.785 478.64 594.619 476.518C594.446 474.407 594.918 472.293 596.035 470.178ZM599.279 471.866C598.431 473.473 598.146 475.009 598.424 476.477C598.703 477.944 599.384 479.277 600.467 480.475C601.551 481.674 602.878 482.682 604.449 483.5C606.02 484.317 607.615 484.829 609.235 485.037C610.855 485.245 612.356 485.047 613.74 484.445C615.124 483.843 616.241 482.739 617.089 481.133C617.937 479.526 618.217 477.986 617.928 476.514C617.639 475.042 616.948 473.703 615.854 472.499C614.761 471.295 613.428 470.285 611.858 469.467C610.287 468.65 608.697 468.14 607.087 467.938C605.477 467.735 603.986 467.938 602.612 468.545C601.238 469.153 600.127 470.259 599.279 471.866Z" fill="white"/>
<path d="M589.096 483.683L611.661 497.65L609.565 500.986L606.157 498.876L606.01 499.11C606.869 500.211 607.31 501.513 607.331 503.016C607.352 504.52 606.94 505.944 606.095 507.29C605.936 507.544 605.732 507.858 605.483 508.232C605.234 508.607 605.039 508.885 604.897 509.068L601.371 506.886C601.474 506.787 601.686 506.546 602.009 506.163C602.335 505.796 602.641 505.383 602.929 504.925C603.616 503.832 603.998 502.714 604.077 501.571C604.159 500.444 603.955 499.383 603.465 498.388C602.978 497.409 602.225 496.605 601.206 495.974L586.927 487.136L589.096 483.683Z" fill="white"/>
<path d="M586.083 505.496L590.213 508.347L589.73 509.016L592.555 525.19L589.619 529.259L586.677 512.074L586.878 511.795L586.083 505.496ZM580.451 496.855L609.134 517.243L606.762 520.532L578.079 500.144L580.451 496.855ZM570.64 510.456L587.316 509.661L587.924 513.635L567.625 514.637L570.64 510.456Z" fill="white"/>
<path d="M557.306 576.4L553.364 579.602L525.54 564.621L525.22 564.88L534.503 594.921L530.56 598.123L508.209 571.004L511.299 568.494L528.281 589.098L528.547 588.882L520.09 561.354L523.074 558.931L548.58 572.611L548.847 572.395L531.865 551.79L534.955 549.281L557.306 576.4Z" fill="white"/>
<path d="M497.01 566.205C497.59 565.831 498.138 565.546 498.655 565.349C499.166 565.143 499.537 565.027 499.768 565.002L500.862 568.565C499.892 568.889 499.107 569.285 498.507 569.754C497.907 570.223 497.528 570.872 497.368 571.699C497.193 572.524 497.266 573.633 497.587 575.026L498.082 577.17L520.895 594.147L517.184 596.539L499.48 582.835L499.248 582.985L504.659 604.614L500.948 607.006L493.781 575.51C493.457 574.091 493.364 572.803 493.501 571.648C493.632 570.483 493.993 569.449 494.585 568.548C495.168 567.653 495.976 566.872 497.01 566.205Z" fill="white"/>
<path d="M468.201 594.4L491.572 622.568L487.612 624.339L469.019 601.2L468.704 601.341L473.72 630.553L469.32 632.521L450.601 609.438L450.286 609.578L455.428 638.734L451.468 640.505L445.697 604.465L449.72 602.665L468.434 625.072L468.686 624.959L464.178 596.199L468.201 594.4Z" fill="white"/>
<path d="M427.629 609.979C429.905 609.246 432.08 609.144 434.152 609.673C436.213 610.205 438.043 611.289 439.641 612.925C441.229 614.563 442.448 616.684 443.298 619.285C444.155 621.908 444.427 624.351 444.114 626.614C443.79 628.881 442.951 630.83 441.597 632.462C440.233 634.097 438.412 635.281 436.135 636.014C433.859 636.747 431.69 636.848 429.629 636.316C427.557 635.787 425.725 634.697 424.134 633.048C422.531 631.401 421.301 629.266 420.444 626.643C419.594 624.042 419.333 621.613 419.661 619.358C419.977 617.106 420.818 615.162 422.183 613.526C423.537 611.895 425.352 610.712 427.629 609.979ZM428.764 613.455C427.035 614.012 425.757 614.913 424.93 616.157C424.102 617.402 423.656 618.832 423.591 620.448C423.527 622.063 423.769 623.712 424.319 625.396C424.869 627.079 425.65 628.561 426.661 629.842C427.672 631.123 428.882 632.032 430.292 632.569C431.701 633.106 433.27 633.096 435 632.539C436.729 631.982 438.005 631.076 438.829 629.82C439.653 628.564 440.095 627.123 440.156 625.497C440.218 623.87 439.973 622.216 439.423 620.532C438.874 618.849 438.095 617.373 437.087 616.103C436.079 614.832 434.873 613.934 433.467 613.409C432.061 612.883 430.494 612.898 428.764 613.455Z" fill="white"/>
<path d="M413.092 614.771L419.46 640.487L415.639 641.42L414.677 637.535L414.409 637.601C414.255 638.988 413.662 640.227 412.629 641.32C411.597 642.412 410.31 643.146 408.768 643.522C408.478 643.593 408.113 643.676 407.675 643.771C407.236 643.867 406.903 643.93 406.674 643.962L405.679 639.944C405.821 639.945 406.141 639.92 406.638 639.87C407.126 639.834 407.633 639.751 408.158 639.623C409.409 639.318 410.461 638.783 411.314 638.019C412.159 637.268 412.753 636.366 413.096 635.311C413.431 634.271 413.454 633.171 413.167 632.01L409.137 615.736L413.092 614.771Z" fill="white"/>
<path d="M395.586 628.823L396.517 633.796L395.697 633.936L386.24 647.57L381.253 648.42L391.343 633.975L391.685 633.917L395.586 628.823ZM397.69 618.622L403.738 653.585L399.707 654.272L393.659 619.309L397.69 618.622ZM381.021 621.464L393.513 632.692L391.128 635.98L375.897 622.337L381.021 621.464Z" fill="white"/>
<path d="M325.017 659.566L319.932 659.109L310.637 628.835L310.224 628.798L295.607 656.924L290.522 656.467L293.728 621.29L297.713 621.648L295.277 648.374L295.621 648.405L309.051 622.666L312.899 623.012L321.458 650.726L321.801 650.757L324.237 624.03L328.223 624.388L325.017 659.566Z" fill="white"/>
<path d="M289.221 609.93C289.897 610.066 290.489 610.243 290.996 610.461C291.505 610.669 291.851 610.844 292.033 610.986L290.305 614.298C289.385 613.856 288.547 613.595 287.789 613.513C287.031 613.432 286.304 613.632 285.608 614.115C284.902 614.583 284.173 615.428 283.421 616.65L282.264 618.529L286.57 646.55L282.24 645.683L279.272 623.559L279.001 623.505L267.628 642.758L263.298 641.891L280.368 614.35C281.136 613.108 281.976 612.121 282.888 611.389C283.801 610.646 284.786 610.157 285.843 609.923C286.888 609.686 288.014 609.689 289.221 609.93Z" fill="white"/>
<path d="M248.695 610.214L245.479 646.648L241.397 645.155L244.472 615.648L244.148 615.529L227.077 639.92L222.541 638.261L225.486 608.706L225.162 608.588L208.221 633.025L204.139 631.533L225.498 601.732L229.645 603.248L227.176 632.316L227.435 632.411L244.549 608.697L248.695 610.214Z" fill="white"/>
<path d="M208.752 593.105C210.896 594.165 212.522 595.603 213.63 597.421C214.727 599.233 215.271 601.278 215.26 603.556C215.24 605.829 214.616 608.188 213.389 610.634C212.151 613.101 210.623 615.033 208.803 616.429C206.973 617.821 204.999 618.628 202.881 618.85C200.752 619.068 198.616 618.647 196.471 617.587C194.327 616.527 192.706 615.091 191.609 613.279C190.501 611.461 189.96 609.411 189.986 607.128C190.002 604.84 190.628 602.462 191.865 599.996C193.092 597.55 194.618 595.636 196.443 594.255C198.257 592.869 200.229 592.067 202.358 591.849C204.476 591.626 206.608 592.045 208.752 593.105ZM207.112 596.373C205.484 595.568 203.935 595.322 202.466 595.635C200.997 595.948 199.669 596.658 198.484 597.765C197.298 598.872 196.308 600.217 195.514 601.799C194.72 603.382 194.233 604.982 194.053 606.599C193.872 608.215 194.096 609.705 194.725 611.067C195.354 612.43 196.482 613.514 198.111 614.319C199.74 615.124 201.291 615.365 202.765 615.042C204.239 614.719 205.572 613.998 206.763 612.881C207.953 611.764 208.946 610.414 209.74 608.831C210.533 607.248 211.018 605.653 211.194 604.047C211.369 602.441 211.14 600.961 210.506 599.609C209.872 598.257 208.741 597.178 207.112 596.373Z" fill="white"/>
<path d="M194.99 586.47L181.431 609.23L178.039 607.239L180.087 603.802L179.849 603.662C178.762 604.544 177.464 605.015 175.955 605.076C174.447 605.137 173.008 604.766 171.64 603.962C171.382 603.811 171.063 603.617 170.682 603.38C170.301 603.143 170.017 602.957 169.831 602.82L171.949 599.264C172.051 599.364 172.297 599.568 172.688 599.878C173.063 600.191 173.484 600.485 173.95 600.759C175.061 601.411 176.191 601.761 177.34 601.809C178.473 601.861 179.534 601.63 180.522 601.117C181.495 600.608 182.287 599.84 182.899 598.812L191.48 584.41L194.99 586.47Z" fill="white"/>
<path d="M172.728 584.173L169.918 588.353L169.234 587.886L152.944 591.054L148.784 588.215L166.094 584.909L166.379 585.103L172.728 584.173ZM181.361 578.371L161.253 607.413L157.891 605.119L177.998 576.077L181.361 578.371ZM167.455 568.883L168.542 585.493L164.538 586.186L163.18 565.967L167.455 568.883Z" fill="white"/>
<path d="M100.495 557.312L97.1627 553.444L111.68 525.371L111.41 525.058L81.2206 534.941L77.888 531.073L104.817 508.209L107.429 511.241L86.9693 528.612L87.1944 528.873L114.86 519.866L117.381 522.793L104.127 548.527L104.352 548.788L124.812 531.418L127.424 534.449L100.495 557.312Z" fill="white"/>
<path d="M109.707 497.029C110.097 497.599 110.396 498.138 110.606 498.649C110.826 499.153 110.951 499.519 110.982 499.747L107.423 500.899C107.074 499.942 106.657 499.169 106.171 498.581C105.685 497.994 105.024 497.628 104.188 497.485C103.354 497.326 102.24 497.418 100.846 497.763L98.7012 498.294L82.1549 521.268L79.6612 517.624L93.0343 499.785L92.8784 499.558L71.2451 505.326L68.7515 501.682L100.27 493.99C101.691 493.642 102.984 493.526 104.149 493.642C105.325 493.751 106.373 494.091 107.293 494.663C108.208 495.225 109.012 496.014 109.707 497.029Z" fill="white"/>
<path d="M80.5509 469.006L52.7751 492.79L50.8982 488.87L73.7295 469.936L73.5806 469.625L44.3142 475.118L42.2287 470.762L65.0005 451.704L64.8515 451.392L35.6447 457.01L33.7678 453.089L69.8854 446.729L71.792 450.712L49.701 469.754L49.8202 470.003L78.6442 465.024L80.5509 469.006Z" fill="white"/>
<path d="M64.0289 429.014C64.8194 431.272 64.975 433.438 64.4956 435.513C64.0124 437.577 62.9707 439.421 61.3703 441.044C59.7662 442.656 57.6707 443.908 55.0837 444.801C52.4751 445.701 50.0326 446.015 47.7563 445.742C45.4762 445.458 43.5017 444.656 41.8327 443.334C40.1599 442.002 38.9283 440.207 38.1378 437.95C37.3473 435.692 37.1936 433.532 37.6768 431.467C38.1562 429.392 39.2034 427.547 40.8184 425.931C42.4295 424.305 44.5395 423.041 47.1482 422.141C49.7351 421.248 52.1632 420.945 54.4324 421.233C56.6978 421.509 58.6669 422.314 60.3397 423.646C62.0087 424.968 63.2384 426.757 64.0289 429.014ZM60.5724 430.207C59.9719 428.493 59.0376 427.234 57.7696 426.431C56.5015 425.628 55.0569 425.208 53.4359 425.171C51.8149 425.134 50.1675 425.405 48.4936 425.983C46.8197 426.56 45.353 427.365 44.0936 428.395C42.8342 429.426 41.9526 430.648 41.449 432.063C40.9454 433.478 40.9938 435.042 41.5943 436.757C42.1948 438.471 43.1345 439.728 44.4134 440.528C45.6924 441.327 47.1478 441.743 48.7797 441.776C50.4116 441.809 52.0644 441.537 53.7383 440.959C55.4123 440.381 56.8735 439.579 58.122 438.552C59.3706 437.525 60.2412 436.306 60.734 434.895C61.2268 433.485 61.1729 431.922 60.5724 430.207Z" fill="white"/>
<path d="M58.6991 414.78L32.9886 421.621L31.9592 417.809L35.8425 416.775L35.7703 416.508C34.3717 416.378 33.1107 415.806 31.9873 414.79C30.8639 413.775 30.0945 412.498 29.6791 410.959C29.6009 410.669 29.5086 410.306 29.4024 409.868C29.2961 409.43 29.2241 409.097 29.1862 408.868L33.2035 407.799C33.2061 407.942 33.2387 408.262 33.3011 408.759C33.3495 409.248 33.4444 409.754 33.5858 410.278C33.923 411.527 34.4862 412.572 35.2756 413.413C36.0508 414.247 36.9727 414.826 38.0412 415.151C39.0956 415.468 40.2031 415.472 41.3636 415.163L57.6335 410.834L58.6991 414.78Z" fill="white"/>
<path d="M44.6494 397.601L39.719 398.63L39.5587 397.817L25.7347 388.697L24.76 383.756L39.4081 393.489L39.4749 393.828L44.6494 397.601ZM54.8651 399.48L20.1906 406.221L19.4028 402.228L54.0773 395.487L54.8651 399.48ZM51.6071 382.965L40.7425 395.619L37.405 393.316L50.6056 377.888L51.6071 382.965Z" fill="white"/>
<path d="M11.9832 328.108L12.343 323.003L42.5116 313.037L42.5408 312.623L14.0646 298.58L14.4244 293.475L49.7493 295.931L49.4672 299.932L22.6286 298.067L22.6043 298.411L48.6648 311.315L48.3925 315.179L20.7758 324.351L20.7515 324.696L47.59 326.562L47.308 330.563L11.9832 328.108Z" fill="white"/>
<path d="M61.1308 291.51C61.0076 292.188 60.8412 292.784 60.6315 293.295C60.4332 293.809 60.2646 294.158 60.1258 294.344L56.779 292.694C57.2045 291.765 57.4511 290.922 57.5186 290.163C57.5862 289.404 57.3724 288.683 56.8772 287.998C56.3953 287.305 55.5363 286.596 54.3003 285.873L52.3983 284.762L24.4344 289.714L25.2226 285.37L47.31 281.89L47.3593 281.618L27.883 270.707L28.6712 266.363L56.546 282.77C57.8027 283.509 58.8057 284.325 59.5552 285.218C60.316 286.113 60.8232 287.086 61.0768 288.136C61.3324 289.174 61.3504 290.299 61.1308 291.51Z" fill="white"/>
<path d="M60.1493 251.266L23.5599 248.954L24.9857 244.848L54.6271 247.189L54.7403 246.863L29.9873 230.444L31.5716 225.882L61.2583 228.093L61.3714 227.767L36.5732 211.479L37.999 207.373L68.2515 227.934L66.8031 232.105L37.6134 230.356L37.5228 230.617L61.5978 247.095L60.1493 251.266Z" fill="white"/>
<path d="M76.7691 211.377C75.7345 213.526 74.3138 215.169 72.507 216.305C70.7051 217.431 68.6631 218.011 66.3808 218.045C64.1035 218.07 61.7317 217.497 59.2653 216.327C56.7783 215.148 54.8236 213.668 53.4014 211.889C51.9842 210.1 51.1506 208.156 50.9006 206.057C50.6556 203.948 51.0504 201.819 52.085 199.669C53.1196 197.52 54.5378 195.882 56.3397 194.757C58.1465 193.621 60.1937 193.043 62.4814 193.024C64.774 192.994 67.1639 193.569 69.6509 194.749C72.1173 195.918 74.0539 197.395 75.4607 199.18C76.8726 200.954 77.701 202.895 77.946 205.004C78.196 207.103 77.8037 209.227 76.7691 211.377ZM73.4737 209.814C74.2596 208.181 74.4865 206.638 74.1545 205.186C73.8224 203.734 73.0943 202.43 71.9702 201.275C70.846 200.12 69.486 199.164 67.8902 198.407C66.2943 197.65 64.6854 197.198 63.0634 197.051C61.4414 196.903 59.9519 197.155 58.5948 197.806C57.2377 198.458 56.1662 199.6 55.3804 201.232C54.5945 202.865 54.3727 204.41 54.7151 205.867C55.0575 207.325 55.796 208.633 56.9305 209.793C58.0651 210.953 59.4302 211.912 61.0261 212.669C62.622 213.426 64.2257 213.875 65.8373 214.018C67.4489 214.16 68.9281 213.903 70.2748 213.247C71.6215 212.591 72.6878 211.447 73.4737 209.814Z" fill="white"/>
<path d="M83.0399 197.518L59.923 184.577L61.8654 181.157L65.3571 183.112L65.4934 182.872C64.5881 181.812 64.0917 180.533 64.0041 179.034C63.9165 177.535 64.2645 176.096 65.0483 174.717C65.196 174.457 65.3856 174.134 65.6172 173.75C65.8487 173.366 66.0313 173.079 66.165 172.891L69.777 174.913C69.6787 175.016 69.4774 175.265 69.1729 175.662C68.8642 176.042 68.5763 176.467 68.3094 176.937C67.6732 178.057 67.3411 179.189 67.3128 180.333C67.2802 181.461 67.5305 182.51 68.0636 183.481C68.5923 184.436 69.3784 185.205 70.4218 185.789L85.0505 193.979L83.0399 197.518Z" fill="white"/>
<path d="M84.7507 175.27L80.4728 172.572L80.9305 171.879L77.4063 155.709L80.1906 151.487L83.8759 168.671L83.6852 168.96L84.7507 175.27ZM90.7842 183.736L61.0474 164.408L63.2976 160.996L93.0345 180.324L90.7842 183.736ZM100.09 169.627L83.3342 171.128L82.5548 167.151L102.951 165.29L100.09 169.627Z" fill="white"/>
<path d="M110.832 103.183L114.673 99.8275L143.138 113.858L143.449 113.586L133.049 83.775L136.89 80.4194L160.3 106.827L157.289 109.457L139.503 89.3935L139.244 89.6202L148.725 116.939L145.818 119.479L119.726 106.67L119.467 106.897L137.253 126.961L134.242 129.591L110.832 103.183Z" fill="white"/>
<path d="M171.572 111.261C171.008 111.659 170.472 111.966 169.963 112.184C169.461 112.411 169.095 112.542 168.866 112.577L167.625 109.063C168.581 108.699 169.349 108.271 169.929 107.777C170.509 107.284 170.862 106.621 170.986 105.787C171.127 104.956 171.009 103.852 170.63 102.472L170.047 100.352L146.548 84.333L150.157 81.7895L168.415 94.7494L168.641 94.5904L162.339 73.2054L165.948 70.6619L174.413 101.832C174.796 103.237 174.942 104.519 174.853 105.679C174.77 106.848 174.452 107.896 173.898 108.821C173.353 109.739 172.578 110.553 171.572 111.261Z" fill="white"/>
<path d="M199.196 81.9078L174.598 54.838L178.472 52.8935L198.074 75.1573L198.381 75.003L192.062 46.0723L196.367 43.9118L216.092 66.1138L216.399 65.9595L209.957 37.0905L213.831 35.146L221.21 70.858L217.275 72.8334L197.585 51.3066L197.339 51.43L203.131 79.9324L199.196 81.9078Z" fill="white"/>
<path d="M239.079 64.6667C236.835 65.4935 234.667 65.6857 232.574 65.2435C230.492 64.7973 228.618 63.7905 226.952 62.2231C225.297 60.6518 223.99 58.5844 223.032 56.021C222.065 53.436 221.691 51.0067 221.909 48.733C222.138 46.4552 222.895 44.4732 224.179 42.7868C225.475 41.0965 227.244 39.8379 229.489 39.0112C231.733 38.1844 233.896 37.9941 235.978 38.4403C238.07 38.8826 239.946 39.8948 241.606 41.4769C243.276 43.055 244.594 45.1366 245.561 47.7215C246.519 50.2849 246.882 52.7001 246.649 54.967C246.427 57.23 245.668 59.2067 244.373 60.897C243.088 62.5834 241.324 63.8399 239.079 64.6667ZM237.799 61.2417C239.504 60.6136 240.743 59.6607 241.518 58.3828C242.292 57.105 242.678 55.6578 242.675 54.0413C242.673 52.4248 242.361 50.7873 241.741 49.1286C241.121 47.4699 240.279 46.0217 239.215 44.784C238.15 43.5463 236.903 42.6886 235.472 42.2108C234.042 41.7331 232.474 41.8082 230.769 42.4362C229.064 43.0642 227.827 44.0226 227.056 45.3112C226.286 46.5998 225.904 48.0577 225.911 49.685C225.918 51.3123 226.231 52.9552 226.851 54.6139C227.471 56.2726 228.311 57.7154 229.372 58.9423C230.432 60.1693 231.675 61.0162 233.102 61.4832C234.529 61.9502 236.094 61.8697 237.799 61.2417Z" fill="white"/>
<path d="M253.393 59.2819L245.952 33.8557L249.731 32.766L250.855 36.6064L251.12 36.5299C251.216 35.138 251.756 33.8751 252.742 32.741C253.728 31.607 254.984 30.8201 256.508 30.3804C256.796 30.2976 257.156 30.1995 257.591 30.0863C258.025 29.9731 258.355 29.8956 258.583 29.854L259.746 33.8268C259.603 33.8319 259.285 33.8699 258.79 33.9407C258.304 33.9973 257.801 34.1004 257.282 34.2502C256.044 34.6071 255.015 35.185 254.195 35.9841C253.382 36.769 252.827 37.6951 252.528 38.7626C252.237 39.8158 252.26 40.9162 252.596 42.0639L257.305 58.1539L253.393 59.2819Z" fill="white"/>
<path d="M270.281 44.759L269.135 39.8541L269.944 39.6793L278.746 25.7075L283.669 24.6438L274.273 39.4497L273.936 39.5226L270.281 44.759ZM268.641 54.9951L261.075 20.4912L265.054 19.6315L272.62 54.1354L268.641 54.9951ZM285.095 51.4397L272.172 40.8212L274.399 37.4462L290.153 50.3469L285.095 51.4397Z" fill="white"/>
</svg>
