<svg width="239" height="110" viewBox="0 0 239 110" fill="none" xmlns="http://www.w3.org/2000/svg">
<g clip-path="url(#clip0_1_465)">
<path d="M57.2057 44.2184V38.7693C57.2057 37.9162 56.5177 37.2281 55.6645 37.2281H41.4639V47.7135H53.7106C55.637 47.7135 57.2057 46.1448 57.2057 44.2184Z" fill="white"/>
<path d="M2.38379 -0.0899658V109.91H236.419V-0.0899658H2.38379ZM72.5339 73.4452C72.5339 80.573 66.727 86.3799 59.5992 86.3799H26.9047V23.4127H58.9662C66.0941 23.4127 71.9009 29.2195 71.9009 36.3474V45.7319C71.9009 49.915 70.3598 52.502 68.5709 53.9606C71.0753 55.5017 72.5339 58.6666 72.5339 62.8497V73.4177V73.4452ZM125.071 37.228H109.522V86.3799H94.9907V37.228H79.4416V23.4127H125.071V37.228ZM177.883 86.3799H132.254V69.6473C132.254 68.7116 132.336 67.7484 132.501 66.8402C133.63 60.7306 136.795 57.0704 148.959 51.814C157.105 48.2913 162.196 47.0254 162.196 43.3926V38.7692C162.196 37.916 161.508 37.228 160.655 37.228H149.234C148.381 37.228 147.693 37.916 147.693 38.7692V43.833H133.162V36.3749C133.162 29.2195 138.941 23.4402 146.097 23.4402H163.792C170.948 23.4402 176.727 29.2195 176.727 36.3749V45.0439C176.727 54.2358 169.049 56.6301 160.627 60.7031C152.702 64.5285 147.775 66.2348 147.775 70.6656V72.592H177.855V86.4074L177.883 86.3799ZM214.43 86.3799H186.084V72.5645H192.992V37.228H186.084V23.4127H207.523V72.5645H214.43V86.3799Z" fill="white"/>
<path d="M54.3427 60.8959H41.4355V72.8398H56.2692C57.1223 72.8398 57.8378 72.1518 57.8378 71.2712V64.391C57.8378 62.4646 56.2692 60.8959 54.3427 60.8959Z" fill="white"/>
</g>
<defs>
<clipPath id="clip0_1_465">
<rect width="239" height="110" fill="white"/>
</clipPath>
</defs>
</svg>
