<svg width="1920" height="385" viewBox="0 0 1920 385" fill="none" xmlns="http://www.w3.org/2000/svg">
<g clip-path="url(#clip0_1_1478)">
<path d="M1964 238.891C1932.08 228.979 1908.23 221.427 1906.08 220.528C1899.29 217.673 1893.11 214.841 1886.52 211.469C1879.19 207.738 1871.87 205.895 1863.95 203.58C1847.91 198.927 1831.52 196.994 1815.63 192.139C1799.38 187.172 1783.44 184.048 1768.34 175.731C1755.3 168.561 1741.79 162.088 1728.6 155.187C1719.11 150.22 1708.05 147.792 1698.14 143.522C1692.34 141.027 1688.01 138.532 1681.58 137.34C1677.55 136.576 1673.64 135.834 1669.71 134.801C1658.04 131.744 1647.23 128.507 1635.84 124.618C1626.44 121.427 1618.57 115.313 1608.73 113.178C1607 112.796 1604.8 113.178 1603 112.863C1602.41 112.751 1602.19 111.717 1601.36 111.559C1599.72 111.222 1597.94 111.829 1596.34 111.514C1594.79 111.177 1595.02 110.233 1593.98 109.941C1583.85 107.109 1573.62 103.288 1563.21 99.8488C1555.01 97.1291 1546.31 92.9708 1537.72 91.0378C1528.28 88.925 1518.84 84.6768 1509.36 82.6539C1469.3 74.0452 1433.21 59.7948 1394.93 47.41C1386.81 44.7802 1378.52 42.7123 1370.29 40.4421C1363.28 38.5091 1357.8 34.7105 1351.19 31.9683C1346.96 30.2151 1342.62 29.7655 1338.17 28.9339C1319.05 25.2926 1302.7 15.0881 1282.5 15.0656C1264.61 15.0431 1248.27 6.18719 1231.16 1.71427C1219.72 -1.29765 1208.71 -0.421047 1197.44 2.3661C1186.59 5.04086 1174.2 4.1193 1163.1 3.8271C1148.87 3.44499 1134.85 0.320693 1120.64 -0.128846C1096.39 -0.893064 1073.17 2.79316 1049.19 5.24315C1030.96 7.10874 1011.87 5.62526 993.511 5.62526C972.473 5.62526 951.434 5.62526 930.396 5.62526C905.716 5.62526 881.441 5.96242 856.784 7.10874C828.62 8.38993 800.119 9.58121 771.933 9.44635C751.254 9.35644 730.598 9.31149 709.919 9.44635C698.95 9.51378 688.341 7.35599 677.417 7.46837C671.506 7.53581 665.572 7.58076 659.66 7.53581C655.165 7.51333 651.749 8.99681 647.478 9.4014C642.6 9.85093 638.24 11.5142 633.857 12.7729C623.472 15.7624 612.189 17.0885 601.895 20.7523C593.533 23.7192 584.969 27.0458 577.147 29.7431C571.281 31.7435 565.077 33.0247 559.368 35.0926C552.513 37.5651 546.039 40.532 538.892 42.465C519.988 47.5898 501.894 56.4232 482.856 60.8512C476.585 62.3122 470.786 65.7737 464.74 67.9989C459.008 70.0893 453.367 72.3145 447.725 74.6071C436.419 79.1924 425.068 83.6204 413.582 87.8236C400.209 92.7461 386.475 95.5107 373.011 100.119C360.627 104.367 348.422 108.952 336.104 113.335C310.143 122.551 283.868 130.125 258.109 139.79C244.286 144.983 229.721 148.714 216.032 154.131C201.085 160.042 186.902 166.695 171.235 170.988C152.759 176.068 134.036 181.485 116.212 188.341C107.805 191.577 99.1967 195.174 91.15 199.107C89.7789 199.781 88.3628 200.591 86.9917 201.242C62.4693 209.581 37.8795 217.741 13.2223 225.72C4.70348 228.53 -3.83778 231.317 -12.3566 234.126C-22.179 237.34 -30.8326 241.274 -40.2955 245.14C-41.217 245.522 -42.161 246.017 -43.1276 246.534C-43.3074 270.067 -25.5281 358.312 -26.1349 381.8L1944.76 385.307C1943.34 366.426 1964.13 257.84 1963.93 238.936L1964 238.891Z" fill="url(#paint0_linear_1_1478)"/>
<g clip-path="url(#clip1_1_1478)">
<g style="mix-blend-mode:screen">
<path d="M403.38 248.58C401.9 248.58 399.9 249.18 399.26 247.74C398.66 246.4 399.56 244.38 400.14 243.4C400.1 243.46 397.52 241.88 397.34 241.72C396.86 241.32 396.26 240.7 396.38 240C396.48 239.46 396.74 238.82 397.12 238.42C397.76 237.76 398.16 237.62 399.06 237.64C399.96 237.66 400.9 237.58 401.82 237.68C402.52 237.76 403.58 238.24 404.28 238.06C404.98 237.88 404.72 236.94 404.72 236.4C404.72 235.5 404.76 235.02 405.72 234.72C406.88 234.36 408.48 234.48 409.6 234.98C410.16 235.22 410.82 235.5 411.2 236C411.52 236.42 411.6 237.04 412.14 237.22C412.42 237.3 412.82 237.22 413.08 237.18C413.58 237.1 414.02 237.02 414.52 237.02C415.36 237.02 416.24 236.88 417.02 237.22C417.38 237.38 417.54 237.38 417.94 237.44C418.5 237.5 419.08 237.88 419.56 238.14C420.5 238.62 421.3 239.36 421.38 240.5C421.54 242.4 418.52 242.56 417.7 243.94C417.22 244.76 417.92 245.7 418.56 246.32C419.08 246.82 419.38 247.06 419.5 247.82C419.62 248.5 419.46 248.86 419.14 249.44C418.88 249.88 418.66 250.38 418.18 250.62C417.98 250.72 417.74 250.7 417.56 250.84C417.34 251 417.28 251.2 417.1 251.38C416.86 251.6 416.56 251.84 416.24 251.9C416.06 251.94 415.84 251.84 415.66 251.88C415.46 251.92 415.38 252 415.22 252.04C414.5 252.22 413.86 251.78 413.24 251.42C412.42 250.96 411.68 250.42 410.88 249.94C410.32 249.6 409.66 249.18 409.02 249.04C408.46 248.92 407.92 248.94 407.38 248.74C406.1 248.3 404.7 248.56 403.38 248.56V248.58Z" fill="#70C7D8"/>
</g>
<g style="mix-blend-mode:screen">
<path d="M431.06 244.62C429.92 244.74 428.34 243.78 427.44 243.2C426.6 242.68 425.96 241.86 425.1 241.36C424.96 241.28 424.78 241.16 424.62 241.12C424.24 241.04 423.84 241.4 423.52 241.56C423.02 241.78 422.52 242.04 422.02 242.28C421.48 242.52 420.94 242.6 420.36 242.72C420.02 242.8 419.72 242.8 419.4 242.84C419.08 242.88 418.8 242.96 418.46 242.9C417.84 242.8 417.3 242.4 417.2 241.74C417.14 241.36 417.22 241.04 417.38 240.7C417.44 240.56 417.48 240.5 417.58 240.36C417.82 240.08 418 239.74 418.24 239.46C418.36 239.32 418.5 239.24 418.64 239.1C418.82 238.92 418.96 238.68 419.16 238.5C419.34 238.34 419.66 238.22 419.82 238.04C420.16 237.68 418.98 237.1 418.74 236.96C418.08 236.56 417.44 236 417.24 235.22C417.08 234.56 417.2 233.88 417.88 233.56C418.2 233.42 418.52 233.46 418.86 233.42C419.4 233.32 419.9 233.34 420.44 233.34C420.92 233.34 421.4 233.34 421.88 233.34C422.28 233.34 422.68 233.52 423.06 233.44C423.44 233.36 423.66 232.92 423.88 232.62C424.46 231.88 425.3 231.34 426.2 231.08C426.68 230.94 427.18 230.82 427.66 231.02C428.04 231.18 428.42 231.4 428.74 231.68C429.44 232.28 429.62 233.28 430.02 234.06C430.36 234.72 431.42 234.54 432.02 234.64C433.12 234.82 434.26 234.9 435.24 235.48C436.08 235.98 436.82 236.66 436.4 237.7C436.2 238.18 435.66 238.52 435.26 238.8C434.8 239.12 434.3 239.38 433.8 239.66C433.6 239.78 433.1 239.9 432.96 240.1C432.88 240.22 432.96 240.56 432.96 240.7C432.96 241.22 432.76 241.74 432.78 242.28C432.78 242.68 432.92 242.92 432.78 243.32C432.52 244.1 431.88 244.5 431.08 244.6L431.06 244.62Z" fill="#70C7D8"/>
</g>
<path d="M456.16 260.16C455.02 260.28 453.44 259.32 452.54 258.74C451.7 258.22 451.06 257.4 450.2 256.9C450.06 256.82 449.88 256.7 449.72 256.66C449.34 256.58 448.94 256.94 448.62 257.1C448.12 257.32 447.62 257.58 447.12 257.82C446.58 258.06 446.04 258.14 445.46 258.26C445.12 258.34 444.82 258.34 444.5 258.38C444.18 258.42 443.9 258.5 443.56 258.44C442.94 258.34 442.4 257.94 442.3 257.28C442.24 256.9 442.32 256.58 442.48 256.24C442.54 256.1 442.58 256.04 442.68 255.9C442.92 255.62 443.1 255.28 443.34 255C443.46 254.86 443.6 254.78 443.74 254.64C443.92 254.46 444.06 254.22 444.26 254.04C444.44 253.88 444.76 253.76 444.92 253.58C445.26 253.22 444.08 252.64 443.84 252.5C443.18 252.1 442.54 251.54 442.34 250.76C442.18 250.1 442.3 249.42 442.98 249.1C443.3 248.96 443.62 249 443.96 248.96C444.5 248.86 445 248.88 445.54 248.88C446.02 248.88 446.5 248.88 446.98 248.88C447.38 248.88 447.78 249.06 448.16 248.98C448.54 248.9 448.76 248.46 448.98 248.16C449.56 247.42 450.4 246.88 451.3 246.62C451.78 246.48 452.28 246.36 452.76 246.56C453.14 246.72 453.52 246.94 453.84 247.22C454.54 247.82 454.72 248.82 455.12 249.6C455.46 250.26 456.52 250.08 457.12 250.18C458.22 250.36 459.36 250.44 460.34 251.02C461.18 251.52 461.92 252.2 461.5 253.24C461.3 253.72 460.76 254.06 460.36 254.34C459.9 254.66 459.4 254.92 458.9 255.2C458.7 255.32 458.2 255.44 458.06 255.64C457.98 255.76 458.06 256.1 458.06 256.24C458.06 256.76 457.86 257.28 457.88 257.82C457.88 258.22 458.02 258.46 457.88 258.86C457.62 259.64 456.98 260.04 456.18 260.14L456.16 260.16Z" fill="#FFF9B1"/>
<g style="mix-blend-mode:screen">
<path d="M246.78 211.98C248.36 211.64 250.8 209.1 252.18 208.16C253.24 207.44 254.48 206.08 255.8 205.84C257.52 205.54 257.38 205.96 258.04 207.48C258.38 208.28 258.82 209.12 259.28 209.86C260.24 211.42 259.88 210.66 261.68 211.06C263.02 211.36 266.2 211.94 266.48 213.54C264.4 215.5 262.06 218.18 262.12 221C262.16 222.76 262.7 225.32 260.32 225.58C259.18 225.7 257.6 224.74 256.7 224.16C255.74 223.56 254.94 222.4 253.82 222.08C252.34 221.66 250.62 221.88 249.06 221.88C247.58 221.88 245.58 222.48 244.94 221.04C244.34 219.7 245.24 217.68 245.82 216.7C244.72 215.96 240.94 214.62 242.32 212.46C243.08 211.3 247.16 211.96 248.6 211.96" fill="#70C7D8"/>
</g>
<g style="mix-blend-mode:screen">
<path d="M286.86 240.92C285.38 240.92 283.38 241.52 282.74 240.08C282.14 238.74 283.04 236.72 283.62 235.74C282.5 235 281.28 234.32 280.1 233.64C279.64 233.38 279.24 232.98 279.18 232.44C279.14 232.1 279.16 231.64 279.24 231.32C279.5 230.16 280.92 229.66 281.96 229.4C283.38 229.06 285.38 229.16 286.82 229.5C287.44 229.64 288.24 229.9 288.82 229.58C289.12 229.4 289.38 229.02 289.68 228.8C289.98 228.56 290.32 228.34 290.64 228.08C291.28 227.54 292.2 227.18 293.08 227.28C294.12 227.4 294.68 228.24 295 229.14C295.08 229.36 295 229.96 295.14 230.1C295.36 230.34 295.62 230 295.76 229.96C296.46 229.78 297.2 229.66 297.94 229.56C299.44 229.36 300.68 229.48 301.94 230.32C302.96 231 303.5 231.5 303.64 232.76C303.74 233.76 303.32 234.88 302.44 235.4C301.98 235.68 301.42 235.9 301.06 236.32C300.8 236.64 300.72 236.68 301 237.02C301.68 237.8 302.78 237.76 303.24 238.86C304.22 241.22 301.3 241.92 299.56 241.92C298.98 241.92 298.44 241.92 297.88 241.78C297.38 241.64 296.94 241.4 296.44 241.26C296.02 241.12 295.5 241.16 295.1 240.98C294.8 240.84 294.8 240.76 294.46 240.72C293.9 240.66 293.3 240.72 292.72 240.72C291.8 240.72 290.94 240.96 290.02 240.92C288.96 240.86 287.9 240.96 286.84 240.96L286.86 240.92Z" fill="#F0C0D9"/>
</g>
<g style="mix-blend-mode:screen">
<path d="M310.24 215.68C309.1 215.8 307.52 214.84 306.62 214.26C305.78 213.74 305.14 212.92 304.28 212.42C304.14 212.34 303.96 212.22 303.8 212.18C303.42 212.1 303.02 212.46 302.7 212.62C302.2 212.84 301.7 213.1 301.2 213.34C300.66 213.58 300.12 213.66 299.54 213.78C299.2 213.86 298.9 213.86 298.58 213.9C298.26 213.94 297.98 214.02 297.64 213.96C297.02 213.86 296.48 213.46 296.38 212.8C296.32 212.42 296.4 212.1 296.56 211.76C296.62 211.62 296.66 211.56 296.76 211.42C297 211.14 297.18 210.8 297.42 210.52C297.54 210.38 297.68 210.3 297.82 210.16C298 209.98 298.14 209.74 298.34 209.56C298.52 209.4 298.84 209.28 299 209.1C299.34 208.74 298.16 208.16 297.92 208.02C297.26 207.62 296.62 207.06 296.42 206.28C296.26 205.62 296.38 204.94 297.06 204.62C297.38 204.48 297.7 204.52 298.04 204.48C298.58 204.38 299.08 204.4 299.62 204.4C300.1 204.4 300.58 204.4 301.06 204.4C301.46 204.4 301.86 204.58 302.24 204.5C302.62 204.42 302.84 203.98 303.06 203.68C303.64 202.94 304.48 202.4 305.38 202.14C305.86 202 306.36 201.88 306.84 202.08C307.22 202.24 307.6 202.46 307.92 202.74C308.62 203.34 308.8 204.34 309.2 205.12C309.54 205.78 310.6 205.6 311.2 205.7C312.3 205.88 313.44 205.96 314.42 206.54C315.26 207.04 316 207.72 315.58 208.76C315.38 209.24 314.84 209.58 314.44 209.86C313.98 210.18 313.48 210.44 312.98 210.72C312.78 210.84 312.28 210.96 312.14 211.16C312.06 211.28 312.14 211.62 312.14 211.76C312.14 212.28 311.94 212.8 311.96 213.34C311.96 213.74 312.1 213.98 311.96 214.38C311.7 215.16 311.06 215.56 310.26 215.66L310.24 215.68Z" fill="#70C7D8"/>
</g>
<path d="M293.74 221.72C292.6 221.84 291.02 220.88 290.12 220.3C289.28 219.78 288.64 218.96 287.78 218.46C287.64 218.38 287.46 218.26 287.3 218.22C286.92 218.14 286.52 218.5 286.2 218.66C285.7 218.88 285.2 219.14 284.7 219.38C284.16 219.62 283.62 219.7 283.04 219.82C282.7 219.9 282.4 219.9 282.08 219.94C281.76 219.98 281.48 220.06 281.14 220C280.52 219.9 279.98 219.5 279.88 218.84C279.82 218.46 279.9 218.14 280.06 217.8C280.12 217.66 280.16 217.6 280.26 217.46C280.5 217.18 280.68 216.84 280.92 216.56C281.04 216.42 281.18 216.34 281.32 216.2C281.5 216.02 281.64 215.78 281.84 215.6C282.02 215.44 282.34 215.32 282.5 215.14C282.84 214.78 281.66 214.2 281.42 214.06C280.76 213.66 280.12 213.1 279.92 212.32C279.76 211.66 279.88 210.98 280.56 210.66C280.88 210.52 281.2 210.56 281.54 210.52C282.08 210.42 282.58 210.44 283.12 210.44C283.6 210.44 284.08 210.44 284.56 210.44C284.96 210.44 285.36 210.62 285.74 210.54C286.12 210.46 286.34 210.02 286.56 209.72C287.14 208.98 287.98 208.44 288.88 208.18C289.36 208.04 289.86 207.92 290.34 208.12C290.72 208.28 291.1 208.5 291.42 208.78C292.12 209.38 292.3 210.38 292.7 211.16C293.04 211.82 294.1 211.64 294.7 211.74C295.8 211.92 296.94 212 297.92 212.58C298.76 213.08 299.5 213.76 299.08 214.8C298.88 215.28 298.34 215.62 297.94 215.9C297.48 216.22 296.98 216.48 296.48 216.76C296.28 216.88 295.78 217 295.64 217.2C295.56 217.32 295.64 217.66 295.64 217.8C295.64 218.32 295.44 218.84 295.46 219.38C295.46 219.78 295.6 220.02 295.46 220.42C295.2 221.2 294.56 221.6 293.76 221.7L293.74 221.72Z" fill="#FFF9B1"/>
<g style="mix-blend-mode:screen">
<path d="M335.34 232.42C334.2 232.54 332.62 231.58 331.72 231C330.88 230.48 330.24 229.66 329.38 229.16C329.24 229.08 329.06 228.96 328.9 228.92C328.52 228.84 328.12 229.2 327.8 229.36C327.3 229.58 326.8 229.84 326.3 230.08C325.76 230.32 325.22 230.4 324.64 230.52C324.3 230.6 324 230.6 323.68 230.64C323.36 230.68 323.08 230.76 322.74 230.7C322.12 230.6 321.58 230.2 321.48 229.54C321.42 229.16 321.5 228.84 321.66 228.5C321.72 228.36 321.76 228.3 321.86 228.16C322.1 227.88 322.28 227.54 322.52 227.26C322.64 227.12 322.78 227.04 322.92 226.9C323.1 226.72 323.24 226.48 323.44 226.3C323.62 226.14 323.94 226.02 324.1 225.84C324.44 225.48 323.26 224.9 323.02 224.76C322.36 224.36 321.72 223.8 321.52 223.02C321.36 222.36 321.48 221.68 322.16 221.36C322.48 221.22 322.8 221.26 323.14 221.22C323.68 221.12 324.18 221.14 324.72 221.14C325.2 221.14 325.68 221.14 326.16 221.14C326.56 221.14 326.96 221.32 327.34 221.24C327.72 221.16 327.94 220.72 328.16 220.42C328.74 219.68 329.58 219.14 330.48 218.88C330.96 218.74 331.46 218.62 331.94 218.82C332.32 218.98 332.7 219.2 333.02 219.48C333.72 220.08 333.9 221.08 334.3 221.86C334.64 222.52 335.7 222.34 336.3 222.44C337.4 222.62 338.54 222.7 339.52 223.28C340.36 223.78 341.1 224.46 340.68 225.5C340.48 225.98 339.94 226.32 339.54 226.6C339.08 226.92 338.58 227.18 338.08 227.46C337.88 227.58 337.38 227.7 337.24 227.9C337.16 228.02 337.24 228.36 337.24 228.5C337.24 229.02 337.04 229.54 337.06 230.08C337.06 230.48 337.2 230.72 337.06 231.12C336.8 231.9 336.16 232.3 335.36 232.4L335.34 232.42Z" fill="#70C7D8"/>
</g>
</g>
</g>
<defs>
<linearGradient id="paint0_linear_1_1478" x1="960.47" y1="385.262" x2="960.47" y2="-0.241242" gradientUnits="userSpaceOnUse">
<stop stop-color="#D3B6D6"/>
<stop offset="0.59" stop-color="#96A2D2"/>
</linearGradient>
<clipPath id="clip0_1_1478">
<rect width="1920" height="385" fill="white"/>
</clipPath>
<clipPath id="clip1_1_1478">
<rect width="219.62" height="58.18" fill="white" transform="translate(242 202)"/>
</clipPath>
</defs>
</svg>
