<svg width="1920" height="1335" viewBox="0 0 1920 1335" fill="none" xmlns="http://www.w3.org/2000/svg">
<path d="M691.244 301.814C690.908 301.798 690.542 301.814 690.175 301.844C689.503 301.905 688.663 301.89 688.037 302.18C686.403 302.944 686.494 305.616 687.258 306.914C688.419 308.869 690.374 309.633 692.542 309.068C694.558 308.548 694.741 305.586 694.207 303.952C693.718 302.424 692.588 301.89 691.229 301.814H691.244Z" fill="#FFF466"/>
<path d="M56.4687 295.106C56.4687 295.106 56.484 295.045 56.4993 295.03C56.7742 294.281 56.9422 293.457 57.6141 292.937C58.2097 292.464 59.0802 292.51 59.7827 292.449C60.699 292.372 61.5237 292.342 62.3637 291.945C63.7534 291.288 63.4938 289.364 62.4706 288.509C62.1499 288.249 61.7528 288.035 61.3863 287.837C60.8976 287.562 60.2562 287.455 59.7064 287.333C59.5231 287.287 59.3398 287.256 59.1566 287.195C59.0497 287.149 58.9275 287.088 58.8206 287.027C58.6221 286.905 58.393 286.768 58.2708 286.539C58.1486 286.309 58.1945 286.019 58.1639 285.775C58.0876 285.24 58.0265 284.721 57.9043 284.202C57.8432 283.927 57.7974 283.606 57.6294 283.377C57.0949 282.705 56.148 283.087 55.4913 283.331C55.247 283.423 55.0332 283.561 54.8652 283.759C54.6514 284.003 54.6514 284.278 54.6056 284.584C54.5292 285.195 54.5292 285.867 54.1474 286.386C53.8573 286.783 53.4144 286.447 53.0326 286.371C52.605 286.279 52.2384 286.523 51.9177 286.768C51.6581 286.981 51.3069 287.211 51.1541 287.516C51.0167 287.776 51.0167 288.127 51.0014 288.432C50.9861 288.89 51.0931 289.287 51.3679 289.654C51.7345 290.143 52.1926 290.525 52.4981 291.074C52.6355 291.334 52.8951 291.578 52.9868 291.868C53.0937 292.189 53.0326 292.586 52.9868 292.922C52.9409 293.38 52.9409 293.808 52.9868 294.266C53.0326 294.724 52.9868 295.274 53.1395 295.717C53.2006 295.915 53.3227 296.068 53.4296 296.251C53.5824 296.496 53.7045 296.74 53.842 296.984C54.1321 297.473 54.4681 297.504 54.9416 297.259C55.3539 297.046 55.6899 296.847 55.8731 296.389C56.0411 295.977 56.2397 295.564 56.3924 295.137L56.4687 295.106Z" fill="#FFF9C2"/>
<path d="M735.013 310.106C735.013 310.106 735.028 310.045 735.043 310.03C735.318 309.281 735.486 308.457 736.158 307.937C736.754 307.464 737.624 307.51 738.327 307.449C739.243 307.372 740.068 307.342 740.908 306.945C742.297 306.288 742.038 304.364 741.014 303.509C740.694 303.249 740.297 303.035 739.93 302.837C739.441 302.562 738.8 302.455 738.25 302.333C738.067 302.287 737.884 302.256 737.701 302.195C737.594 302.149 737.471 302.088 737.365 302.027C737.166 301.905 736.937 301.768 736.815 301.539C736.693 301.309 736.738 301.019 736.708 300.775C736.632 300.24 736.57 299.721 736.448 299.202C736.387 298.927 736.341 298.606 736.173 298.377C735.639 297.705 734.692 298.087 734.035 298.331C733.791 298.423 733.577 298.561 733.409 298.759C733.195 299.003 733.195 299.278 733.149 299.584C733.073 300.195 733.073 300.867 732.691 301.386C732.401 301.783 731.958 301.447 731.577 301.371C731.149 301.279 730.782 301.523 730.462 301.768C730.202 301.981 729.851 302.211 729.698 302.516C729.561 302.776 729.561 303.127 729.545 303.432C729.53 303.89 729.637 304.287 729.912 304.654C730.278 305.143 730.737 305.525 731.042 306.074C731.179 306.334 731.439 306.578 731.531 306.868C731.638 307.189 731.577 307.586 731.531 307.922C731.485 308.38 731.485 308.808 731.531 309.266C731.577 309.724 731.531 310.274 731.683 310.717C731.745 310.915 731.867 311.068 731.974 311.251C732.126 311.496 732.248 311.74 732.386 311.985C732.676 312.473 733.012 312.504 733.485 312.259C733.898 312.046 734.234 311.847 734.417 311.389C734.585 310.977 734.784 310.564 734.936 310.137L735.013 310.106Z" fill="#FFF9C2"/>
<path d="M314.827 195.282C314.979 194.793 315.04 194.274 314.888 193.755C314.827 193.526 314.72 193.312 314.597 193.098C314.475 192.884 314.338 192.686 314.17 192.503C313.803 192.075 313.376 191.724 312.856 191.479C312.368 191.25 311.879 191.098 311.345 191.037C311.115 191.006 310.886 190.991 310.642 191.006C310.398 191.021 310.169 191.082 309.94 191.174C309.573 191.311 309.237 191.464 308.916 191.693C308.596 191.922 308.443 192.212 308.305 192.564C308.183 192.869 308.061 193.175 308.031 193.495C308.015 193.648 308 193.801 308 193.953C308 194.106 308.015 194.259 308.015 194.412C308.015 194.519 308.031 194.625 308.031 194.748C308.031 194.839 308.031 194.931 308.031 195.022C308.031 195.16 308.061 195.313 308.061 195.45C308.061 195.542 308.076 195.633 308.107 195.71C308.137 195.786 308.168 195.832 308.199 195.908C308.275 196.076 308.397 196.198 308.535 196.321C308.565 196.351 308.611 196.382 308.641 196.412C308.672 196.443 308.687 196.473 308.718 196.504C308.748 196.534 308.794 196.565 308.825 196.595C309.038 196.794 309.313 196.931 309.573 197.038C309.833 197.145 310.138 197.252 310.428 197.329C310.642 197.374 310.856 197.42 311.07 197.435C311.787 197.497 312.52 197.359 313.177 197.069C313.437 196.962 313.681 196.809 313.941 196.718C314.048 196.687 314.124 196.595 314.2 196.504C314.338 196.351 314.414 196.153 314.506 195.969C314.613 195.756 314.704 195.526 314.781 195.313L314.827 195.282Z" fill="#FFF9C2"/>
<path d="M245.307 397.025C244.207 397.025 243.016 396.933 241.855 397.101C240.389 397.3 239.748 398.247 240.099 399.759C240.404 401.118 241.535 401.209 242.558 401.194C244.513 401.194 246.055 398.934 245.307 397.025Z" fill="#FFF9C2"/>
<path d="M123.468 470.361C122.491 469.002 121.04 468.574 120.215 469.506C119.833 469.934 119.757 471.323 120.062 471.537C121.529 472.56 122.414 471.247 123.468 470.346V470.361Z" fill="#FFF9C2"/>
<path d="M256.73 427.416C257.066 427.339 257.402 427.278 257.692 427.095C257.967 426.912 258.562 426.453 258.715 426.133C259.097 425.323 258.211 424.056 257.631 423.674C257.249 423.414 256.959 423.338 256.47 423.46C255.997 423.567 255.874 423.888 255.661 424.361C255.493 424.743 255.218 425.232 255.187 425.644C255.111 426.515 255.401 427.874 256.531 427.492C256.592 427.477 256.669 427.446 256.73 427.431V427.416Z" fill="#FFF9C2"/>
<path d="M1266.55 1058.01C1266.89 1057.94 1267.23 1057.87 1267.52 1057.69C1267.79 1057.51 1268.39 1057.05 1268.54 1056.73C1268.92 1055.92 1268.04 1054.65 1267.45 1054.27C1267.07 1054.01 1266.78 1053.93 1266.29 1054.06C1265.82 1054.16 1265.7 1054.48 1265.48 1054.96C1265.32 1055.34 1265.04 1055.83 1265.01 1056.24C1264.94 1057.11 1265.23 1058.47 1266.36 1058.09C1266.42 1058.07 1266.49 1058.04 1266.55 1058.03V1058.01Z" fill="#FFF9C2"/>
<path d="M223.987 500.018C223.788 499.85 223.62 499.637 223.407 499.514C222.949 499.255 222.643 498.903 222.521 498.4C222.338 497.651 222.139 496.903 222.032 496.139C221.879 495.024 222.277 494.032 223.086 493.283C223.697 492.703 224.399 492.23 225.071 491.756C225.774 491.268 226.614 491.374 227.148 492.016C228.217 493.329 228.599 494.887 228.599 496.521C228.599 497.376 228.171 498.125 227.591 498.781C227.225 499.194 226.889 499.621 226.522 500.034H223.987V500.018Z" fill="#FFF9C2"/>
<path d="M91.2006 516.001C93.3998 516.062 95.3851 517.757 95.8127 519.941C95.8585 520.216 95.8433 520.506 95.7975 520.781C95.7516 521.056 95.5378 521.3 95.5226 521.575C95.3546 523.729 93.751 524.721 92.1475 525.592C91.1548 526.126 89.9331 525.867 88.9099 525.363C87.8561 524.828 87.062 523.973 87.0161 522.751C86.9703 521.56 87.0161 520.338 87.2299 519.162C87.5507 517.36 89.4444 515.955 91.2159 516.001H91.2006Z" fill="#FFF9C2"/>
<path d="M1843.2 258.77C1845.4 258.831 1847.39 260.526 1847.81 262.71C1847.86 262.985 1847.85 263.275 1847.8 263.55C1847.75 263.825 1847.54 264.069 1847.52 264.344C1847.36 266.498 1845.75 267.49 1844.15 268.361C1843.16 268.895 1841.94 268.636 1840.91 268.132C1839.86 267.597 1839.06 266.742 1839.02 265.52C1838.97 264.329 1839.02 263.107 1839.23 261.931C1839.55 260.129 1841.45 258.724 1843.22 258.77H1843.2Z" fill="#FFF9C2"/>
<path d="M150.437 78.145C150.681 78.9697 150.314 79.6722 149.673 80.3136C149.077 80.9092 148.543 81.5659 147.978 82.192C146.695 83.597 145.137 83.2152 143.87 82.864C143.809 82.8487 143.717 82.8182 143.686 82.7571C142.953 81.5353 141.671 80.5579 141.808 78.9086C141.839 78.5573 141.976 78.1755 141.884 77.8701C141.518 76.74 142.281 75.9917 142.77 75.167C142.953 74.8463 143.396 74.5256 143.778 74.4645C144.847 74.2812 145.916 73.5634 147.016 74.3881C147.153 74.495 147.428 74.4339 147.642 74.4645C149.704 74.7546 150.437 75.564 150.437 77.6105C150.437 77.7479 150.437 77.8854 150.437 78.1297V78.145Z" fill="#FF89BC"/>
<path d="M332.925 642.726C332.665 642.146 332.405 641.642 332.207 641.138C331.596 639.596 332.39 637.671 333.902 637.076C334.101 636.999 334.36 636.984 334.589 637.015C334.91 637.061 335.215 637.229 335.536 637.244C336.315 637.29 336.697 637.809 336.911 638.435C337.155 639.183 337.231 639.977 337.124 640.772C337.094 641.031 336.956 641.306 336.819 641.535C336.62 641.841 336.376 642.131 336.116 642.406C335.261 643.337 334.757 643.444 333.536 642.956C333.368 642.894 333.184 642.833 332.94 642.742L332.925 642.726Z" fill="#FFF9C2"/>
<path d="M112.534 406.647C112.381 407.563 112.427 408.434 112.076 409.06C111.679 409.763 111.022 410.526 110.304 410.77C109.021 411.198 107.586 411.519 106.242 410.832C105.937 410.679 105.631 410.434 105.463 410.144C104.959 409.228 104.455 408.281 104.073 407.304C103.936 406.968 103.997 406.387 104.211 406.113C104.868 405.303 105.57 404.463 106.425 403.868C107.143 403.364 108.014 403.241 109.021 403.577C110.442 404.036 111.602 404.662 112.305 406.006C112.427 406.25 112.488 406.525 112.534 406.647Z" fill="#FFF9C2"/>
<path d="M1868.01 147.354C1867.86 148.27 1867.91 149.14 1867.56 149.767C1867.16 150.469 1866.5 151.233 1865.78 151.477C1864.5 151.905 1863.07 152.225 1861.72 151.538C1861.42 151.385 1861.11 151.141 1860.94 150.851C1860.44 149.935 1859.93 148.988 1859.55 148.01C1859.42 147.674 1859.48 147.094 1859.69 146.819C1860.35 146.01 1861.05 145.17 1861.9 144.574C1862.62 144.07 1863.49 143.948 1864.5 144.284C1865.92 144.742 1867.08 145.368 1867.78 146.712C1867.91 146.957 1867.97 147.231 1868.01 147.354Z" fill="#FFF9C2"/>
<path d="M550.543 305.765C549.794 305.612 549.107 305.505 548.435 305.337C545.808 304.681 545.121 302.252 546.465 300.527C547.015 299.824 547.656 299.167 548.313 298.541C548.542 298.327 548.939 298.236 549.26 298.19C549.749 298.129 550.237 298.129 550.726 298.144C552.391 298.205 553.536 299.32 553.429 300.954C553.368 301.977 553.032 303.001 552.742 303.993C552.65 304.299 552.33 304.558 552.055 304.757C551.551 305.123 551.016 305.444 550.528 305.765H550.543Z" fill="#FFF9C2"/>
<path d="M225.506 274.736C224.605 274.629 223.841 274.507 223.169 274.049C222.054 273.285 221.688 272.033 222.283 270.796C222.482 270.383 222.543 269.91 222.97 269.605C224.177 268.719 225.689 269.055 226.575 270.429C226.682 270.597 226.727 270.826 226.849 270.979C227.216 271.391 227.445 271.834 227.292 272.399C227.094 273.148 226.941 273.942 226.239 274.43C225.994 274.598 225.689 274.659 225.506 274.736Z" fill="#FFF9C2"/>
<path d="M249.818 292.725C251.315 291.427 252.643 289.992 254.904 290.74C256.675 291.809 256.018 293.489 255.866 295.032C255.85 295.23 255.744 295.429 255.667 295.627C255.194 296.956 253.789 297.811 252.369 297.643C251.025 297.475 249.971 296.421 249.818 294.986C249.742 294.222 249.818 293.459 249.818 292.71V292.725Z" fill="#FF89BC"/>
<path d="M283.722 219.818C283.584 220.933 283.218 222.323 281.629 222.567C281.492 222.582 281.355 222.613 281.217 222.643C279.415 223.01 278.606 222.582 277.934 220.933C277.903 220.872 277.873 220.811 277.857 220.734C277.414 219.345 278.682 217.039 280.102 216.733C282.454 216.214 283.447 217.329 283.722 219.803V219.818Z" fill="#FFF9C2"/>
<path d="M143.946 150.03C143.977 149.602 144.023 149.159 144.053 148.716C144.084 148.075 144.435 147.708 145.015 147.495C145.275 147.403 145.535 147.296 145.794 147.205C146.695 146.899 147.306 147.082 147.825 147.861C148.268 148.518 148.421 149.297 148.436 150.076C148.436 150.366 148.238 150.732 148.009 150.931C147.642 151.267 147.184 151.481 146.772 151.756C145.932 152.305 145.153 151.939 144.42 151.542C143.855 151.236 143.855 150.641 143.946 150.045V150.03Z" fill="#FFF9C2"/>
<path d="M385.496 409C385.725 409.275 385.955 409.641 386.275 409.901C387.711 411.108 387.314 412.619 386.55 414.131C385.985 415.246 384.061 415.704 383.022 415.032C382.793 414.88 382.564 414.635 382.503 414.391C382.289 413.597 381.923 412.849 382.014 411.947C382.274 409.611 382.931 409 385.512 409H385.496Z" fill="#FFF9C2"/>
<path d="M310.548 486.151C311.8 487.312 311.815 488.702 311.266 490.213C311.052 490.809 310.655 491.206 310.044 491.206C309.418 491.206 308.746 491.191 308.196 490.947C306.791 490.336 306.486 489.083 307.402 487.862C308.166 486.838 308.99 485.83 310.548 486.166V486.151Z" fill="#FFF9C2"/>
<path d="M431.752 385.954C432.821 385.847 433.6 386.228 434.287 386.9C435.31 387.893 436.196 388.932 436.471 390.413C436.929 392.963 435.249 395.59 432.745 396.186C431.706 396.43 430.683 396.629 429.629 396.277C429.003 396.064 428.499 395.743 428.346 395.025C428.27 394.689 428.224 394.261 427.995 394.063C426.636 392.902 427.048 391.345 427.094 389.924C427.125 389.115 427.43 388.275 428.239 387.771C428.591 387.557 428.82 387.16 429.125 386.87C429.889 386.183 430.744 385.74 431.737 385.938L431.752 385.954Z" fill="#FF89BC"/>
<path d="M1423.75 364.063C1424.82 363.956 1425.6 364.338 1426.29 365.01C1427.31 366.002 1428.2 367.041 1428.47 368.522C1428.93 371.073 1427.25 373.699 1424.74 374.295C1423.71 374.539 1422.68 374.738 1421.63 374.387C1421 374.173 1420.5 373.852 1420.35 373.134C1420.27 372.798 1420.22 372.371 1420 372.172C1418.64 371.012 1419.05 369.454 1419.09 368.034C1419.12 367.224 1419.43 366.384 1420.24 365.88C1420.59 365.666 1420.82 365.269 1421.13 364.979C1421.89 364.292 1422.74 363.849 1423.74 364.048L1423.75 364.063Z" fill="#FF89BC"/>
<path d="M1801.75 1054.06C1802.82 1053.96 1803.6 1054.34 1804.29 1055.01C1805.31 1056 1806.2 1057.04 1806.47 1058.52C1806.93 1061.07 1805.25 1063.7 1802.74 1064.3C1801.71 1064.54 1800.68 1064.74 1799.63 1064.39C1799 1064.17 1798.5 1063.85 1798.35 1063.13C1798.27 1062.8 1798.22 1062.37 1798 1062.17C1796.64 1061.01 1797.05 1059.45 1797.09 1058.03C1797.12 1057.22 1797.43 1056.38 1798.24 1055.88C1798.59 1055.67 1798.82 1055.27 1799.13 1054.98C1799.89 1054.29 1800.74 1053.85 1801.74 1054.05L1801.75 1054.06Z" fill="#FF89BC"/>
<path d="M564.685 453.482C563.616 453.36 562.517 453.238 561.432 453.116C560.593 452.23 559.554 451.604 559.218 450.336C558.943 449.282 558.867 448.275 559.356 447.282C559.447 447.099 559.63 446.915 559.646 446.732C559.753 445.159 560.745 444.594 562.15 444.426C562.425 444.395 562.685 444.258 562.96 444.182C564.777 443.647 566.304 444.304 567.144 445.999C567.419 446.564 567.648 447.16 567.877 447.74C568.137 448.412 568.167 449.099 567.877 449.802C567.724 450.183 567.557 450.581 567.465 450.993C567.343 451.588 567.007 452.001 566.518 452.322C565.922 452.703 565.342 453.085 564.701 453.497L564.685 453.482Z" fill="#FFF9C2"/>
<path d="M890.921 263.645C892.784 264.852 893.166 266.272 892.922 268.043C892.693 269.601 891.364 270.884 889.791 270.762C889.104 270.716 888.417 270.533 887.745 270.319C887.439 270.227 887.103 269.968 886.935 269.693C886.324 268.731 886.095 267.631 885.897 266.516C885.881 266.394 885.897 266.211 885.988 266.119C886.569 265.432 887.119 264.684 887.806 264.118C888.188 263.798 888.829 263.752 889.379 263.676C889.929 263.599 890.494 263.66 890.921 263.66V263.645Z" fill="#FF89BC"/>
<path d="M668.015 356.991C668 354.67 670.367 353.035 672.307 353.83C673.528 354.334 674.2 355.846 673.834 357.128C673.391 358.64 672.368 359.45 670.886 359.801C669.985 360.015 668.657 359.312 668.305 358.442C668.229 358.243 668.168 358.045 668.122 357.831C668.061 357.48 668.031 357.144 668 356.976L668.015 356.991Z" fill="#FFF9C2"/>
<path d="M614.129 204.671C614.053 203.908 614.007 203.281 613.931 202.655C613.701 200.93 614.755 199.616 616.481 199.57C616.97 199.57 617.458 199.662 617.886 199.692C619.154 200.502 618.94 201.693 618.726 202.793C618.466 204.106 618.115 205.465 616.298 205.878C615.717 205.557 615 205.145 614.144 204.671H614.129Z" fill="#FFF9C2"/>
<path d="M651.779 256.773C651.519 256.91 651.397 256.986 651.26 257.032C648.587 257.933 648.206 257.047 647.457 254.879C646.877 253.199 648.969 251.122 650.695 251.611C651.122 251.733 651.581 252.099 651.81 252.481C652.359 253.413 652.604 254.436 652.207 255.52C652.069 255.917 651.932 256.314 651.764 256.788L651.779 256.773Z" fill="#FFF9C2"/>
<path d="M731.485 359.052C731.226 359.19 731.103 359.266 730.966 359.312C728.293 360.213 727.912 359.327 727.163 357.159C726.583 355.479 728.675 353.402 730.401 353.89C730.829 354.013 731.287 354.379 731.516 354.761C732.066 355.693 732.31 356.716 731.913 357.8C731.775 358.197 731.638 358.594 731.47 359.068L731.485 359.052Z" fill="#FFF9C2"/>
<path d="M1692.25 305.572C1691.74 305.771 1691.51 305.878 1691.26 305.939C1686.05 307.252 1685.32 305.969 1683.84 302.823C1682.69 300.395 1686.79 297.402 1690.16 298.104C1690.99 298.272 1691.9 298.807 1692.35 299.356C1693.42 300.7 1693.89 302.182 1693.14 303.739C1692.87 304.305 1692.61 304.885 1692.29 305.572H1692.25Z" fill="#FFF9C2"/>
<path d="M949.993 185.438C949.733 185.576 949.611 185.652 949.474 185.698C946.801 186.599 946.419 185.713 945.671 183.544C945.091 181.864 947.183 179.788 948.909 180.276C949.336 180.398 949.794 180.765 950.024 181.147C950.573 182.078 950.818 183.102 950.421 184.186C950.283 184.583 950.146 184.98 949.978 185.453L949.993 185.438Z" fill="#FFF9C2"/>
<path d="M1824.54 115.434C1823.79 116.396 1822.92 117.083 1821.59 117.007C1820.62 116.946 1819.93 116.472 1819.94 115.51C1819.96 114.624 1820.13 113.708 1820.39 112.853C1820.72 111.814 1821.82 111.494 1822.75 112.074C1823.59 112.593 1824.17 113.372 1824.71 114.166L1824.54 115.418V115.434Z" fill="#FFF9C2"/>
<path d="M1853.52 666.152C1854.59 666.182 1855.3 666.671 1855.9 667.435C1856.77 668.565 1857.52 669.71 1857.59 671.207C1857.72 673.788 1855.69 676.185 1853.12 676.43C1852.07 676.537 1851.01 676.598 1850.02 676.109C1849.42 675.819 1848.97 675.422 1848.92 674.689C1848.89 674.353 1848.9 673.91 1848.71 673.681C1847.51 672.337 1848.14 670.855 1848.37 669.45C1848.51 668.641 1848.92 667.862 1849.81 667.465C1850.17 667.297 1850.46 666.931 1850.8 666.702C1851.64 666.121 1852.55 665.801 1853.52 666.136V666.152Z" fill="#FF89BC"/>
<path d="M1788.41 120.168C1789.4 120.519 1790.33 120.809 1791.23 121.206C1791.58 121.359 1791.89 121.741 1792.09 122.092C1792.68 123.192 1792.71 124.383 1792.45 125.559C1792.29 126.292 1791.95 127.01 1791.61 127.697C1791.48 128.002 1791.19 128.247 1790.93 128.461C1790.45 128.873 1789.93 129.239 1789.45 129.637C1788.93 130.064 1788.35 130.202 1787.67 130.034C1786.24 129.667 1785.11 128.934 1784.48 127.544C1784.39 127.346 1784.34 127.147 1784.24 126.964C1782.31 123.696 1784.89 121.298 1787.43 120.26C1787.73 120.137 1788.12 120.199 1788.41 120.168Z" fill="#FF89BC"/>
<path d="M1417.05 89.2656C1416 89.006 1414.93 88.7311 1413.88 88.4715C1413.16 87.4941 1412.21 86.7305 1412.06 85.4171C1411.92 84.3328 1411.98 83.3249 1412.61 82.4086C1412.73 82.2406 1412.93 82.0879 1412.98 81.9046C1413.3 80.3622 1414.37 79.9346 1415.77 79.9498C1416.05 79.9498 1416.32 79.8582 1416.6 79.8124C1418.47 79.5222 1419.9 80.3774 1420.49 82.1795C1420.69 82.7751 1420.84 83.4013 1420.98 84.0121C1421.13 84.7146 1421.09 85.4019 1420.7 86.0433C1420.49 86.4098 1420.28 86.7763 1420.14 87.1581C1419.94 87.7385 1419.56 88.105 1419.02 88.3493C1418.38 88.6395 1417.76 88.9449 1417.07 89.2656H1417.05Z" fill="#FFF9C2"/>
<path d="M1580.36 692.184C1582.04 693.62 1582.24 695.086 1581.75 696.812C1581.32 698.324 1579.83 699.408 1578.28 699.087C1577.61 698.95 1576.95 698.675 1576.31 698.369C1576.02 698.232 1575.73 697.927 1575.6 697.636C1575.12 696.598 1575.03 695.483 1575 694.353C1575 694.231 1575.05 694.048 1575.14 693.971C1575.81 693.36 1576.45 692.688 1577.2 692.23C1577.63 691.971 1578.27 692.001 1578.82 692.001C1579.37 692.001 1579.92 692.139 1580.36 692.2V692.184Z" fill="#FF89BC"/>
<path d="M1653 591.921C1653.29 589.615 1655.87 588.317 1657.67 589.371C1658.82 590.043 1659.28 591.616 1658.74 592.853C1658.1 594.288 1656.97 594.96 1655.46 595.098C1654.53 595.189 1653.31 594.304 1653.09 593.403C1653.05 593.204 1653 592.99 1653 592.777C1653 592.425 1653 592.074 1653 591.921Z" fill="#FFF9C2"/>
<path d="M1700.65 388.208C1700.68 387.444 1700.72 386.818 1700.72 386.192C1700.72 384.451 1701.94 383.29 1703.66 383.489C1704.15 383.55 1704.62 383.703 1705.04 383.794C1706.18 384.772 1705.8 385.932 1705.45 386.971C1705.02 388.238 1704.49 389.537 1702.62 389.704C1702.11 389.307 1701.43 388.803 1700.65 388.208Z" fill="#FFF9C2"/>
<path d="M1527.05 501.75C1526.78 501.842 1526.64 501.903 1526.52 501.933C1523.74 502.468 1523.49 501.536 1523.04 499.276C1522.68 497.535 1525.05 495.748 1526.69 496.466C1527.1 496.649 1527.51 497.062 1527.68 497.474C1528.09 498.467 1528.2 499.52 1527.68 500.544C1527.48 500.91 1527.3 501.292 1527.07 501.75H1527.05Z" fill="#FFF9C2"/>
<path d="M1812.67 108.012C1811.53 107.814 1809.99 106.424 1809.76 105.553C1809.42 104.332 1810.14 103.522 1810.92 102.804C1811.6 102.163 1812.41 102.148 1813.27 102.545C1814.55 103.125 1815.29 103.95 1815.15 105.065C1815.01 106.118 1814.43 107.035 1813.67 107.768C1813.41 108.012 1812.89 107.982 1812.69 108.027L1812.67 108.012Z" fill="#FFF9C2"/>
<path d="M1669.72 469.132C1669.55 470.69 1667.97 471.881 1666.42 471.636C1665.68 471.514 1664.96 470.796 1664.94 469.819C1664.94 468.933 1665.16 468.017 1665.37 467.146C1665.49 466.658 1665.97 466.383 1666.48 466.276C1666.62 466.245 1666.76 466.245 1666.9 466.23C1669.05 465.894 1669.66 467.146 1669.72 469.147V469.132Z" fill="#FF89BC"/>
<path d="M1631.01 467.926C1630.4 467.85 1629.79 467.758 1629.18 467.682C1628.53 467.605 1628.12 467.3 1627.95 466.719C1627.66 465.65 1627.82 464.612 1628.41 463.696C1629.1 462.627 1630.84 462.52 1631.71 463.451C1632.25 464.016 1632.76 464.612 1632.69 465.467C1632.6 466.597 1632.05 467.437 1631.01 467.941V467.926Z" fill="#FFF9C2"/>
<path d="M1797.31 93.0153C1797.97 93.3971 1798.5 93.7025 1798.98 93.9774C1799.31 95.0159 1799.56 95.9475 1798.98 96.8943C1798.2 98.1466 1796.73 98.2841 1795.88 97.1234C1795.66 96.8485 1795.48 96.5431 1795.33 96.2224C1794.87 95.2297 1795.05 94.4814 1795.92 93.84C1796.32 93.5498 1796.76 93.336 1797.33 93L1797.31 93.0153Z" fill="#FFF9C2"/>
<path d="M1694.1 239.267C1693.22 239.221 1693.26 238.839 1693.1 238.152C1693.01 237.694 1692.95 237.22 1693.06 236.762C1693.09 236.64 1693.15 236.579 1693.22 236.487C1693.36 236.319 1693.51 236.167 1693.68 236.029C1693.97 235.8 1694.22 235.525 1694.48 235.266C1694.55 235.189 1694.64 235.098 1694.72 235.021C1694.8 234.945 1694.86 234.823 1694.94 234.716C1695.03 234.578 1695.04 234.365 1695.03 234.197C1695.03 234.09 1695.01 233.998 1695 233.891C1695 233.769 1695 233.632 1694.95 233.525C1694.89 233.28 1694.81 233.067 1694.78 232.822C1694.75 232.547 1694.72 232.257 1694.77 231.997C1694.78 231.875 1694.8 231.738 1694.81 231.616C1694.81 231.555 1694.81 231.478 1694.84 231.417C1694.86 231.341 1694.9 231.264 1694.92 231.173C1695.01 230.715 1695.45 230.363 1695.93 230.394C1696.19 230.409 1696.43 230.363 1696.65 230.547C1696.75 230.638 1696.83 230.76 1696.94 230.837C1697 230.883 1697.06 230.898 1697.1 230.959C1697.16 231.02 1697.2 231.066 1697.26 231.127C1697.36 231.203 1697.45 231.295 1697.55 231.387C1697.65 231.494 1697.79 231.555 1697.91 231.631C1698.11 231.753 1698.33 231.86 1698.54 231.936C1698.74 231.997 1699 231.997 1699.2 232.028C1699.49 232.074 1699.72 231.982 1699.99 231.952C1700.22 231.921 1700.45 231.829 1700.66 231.753C1700.85 231.692 1701.04 231.662 1701.23 231.646C1701.44 231.631 1701.62 231.585 1701.84 231.616C1701.96 231.631 1702.01 231.707 1702.08 231.784C1702.17 231.875 1702.28 231.936 1702.36 232.043C1702.51 232.227 1702.56 232.425 1702.6 232.654C1702.63 232.837 1702.59 233.036 1702.56 233.235C1702.54 233.418 1702.37 233.632 1702.27 233.754C1702.14 233.891 1702.01 234.029 1701.87 234.166C1701.81 234.227 1701.76 234.273 1701.7 234.334C1701.62 234.395 1701.58 234.456 1701.5 234.548C1701.47 234.594 1701.44 234.64 1701.41 234.685C1701.38 234.731 1701.33 234.762 1701.32 234.808C1701.27 234.884 1701.21 234.975 1701.18 235.052C1701.15 235.128 1701.09 235.22 1701.07 235.311C1701.06 235.418 1701.04 235.51 1701.03 235.617C1701 235.831 1700.92 235.983 1700.94 236.182C1700.94 236.274 1700.91 236.365 1700.91 236.472C1700.91 236.625 1700.95 236.778 1701 236.93C1701.06 237.159 1701.15 237.358 1701.27 237.572C1701.33 237.694 1701.38 237.831 1701.46 237.954C1701.53 238.076 1701.61 238.198 1701.65 238.335C1701.76 238.61 1701.91 238.916 1701.94 239.206C1701.94 239.267 1701.98 239.328 1701.98 239.374C1701.98 239.435 1701.98 239.481 1701.98 239.526C1701.98 239.588 1702.01 239.649 1701.99 239.725C1701.99 239.801 1701.96 239.832 1701.93 239.893C1701.88 240 1701.85 240.092 1701.79 240.198C1701.73 240.29 1701.67 240.397 1701.58 240.458C1701.47 240.534 1701.35 240.534 1701.23 240.565C1700.74 240.672 1700.3 240.809 1699.82 240.565C1699.64 240.458 1699.49 240.321 1699.3 240.214C1699.13 240.122 1698.98 240.015 1698.83 239.908C1698.72 239.832 1698.6 239.74 1698.48 239.71C1698.34 239.664 1698.25 239.603 1698.14 239.511C1697.96 239.343 1697.75 239.221 1697.53 239.114C1696.97 238.809 1696.39 239.068 1695.81 239.129C1695.27 239.191 1694.72 239.297 1694.19 239.297C1694.14 239.297 1694.11 239.297 1694.06 239.297L1694.1 239.267Z" fill="#FFF9C2"/>
<path d="M679.742 226.595C678.871 226.672 678.856 226.29 678.612 225.618C678.459 225.175 678.337 224.717 678.383 224.243C678.383 224.121 678.444 224.06 678.52 223.953C678.642 223.77 678.765 223.602 678.917 223.449C679.177 223.19 679.375 222.869 679.605 222.579C679.681 222.487 679.742 222.38 679.818 222.304C679.895 222.227 679.941 222.09 679.986 221.968C680.047 221.83 680.047 221.601 680.002 221.449C679.971 221.342 679.956 221.25 679.941 221.143C679.925 221.021 679.895 220.899 679.849 220.792C679.757 220.563 679.65 220.349 679.589 220.12C679.528 219.86 679.452 219.57 679.452 219.295C679.452 219.173 679.452 219.036 679.452 218.913C679.452 218.852 679.452 218.776 679.452 218.715C679.452 218.623 679.498 218.562 679.498 218.471C679.513 218.012 679.925 217.6 680.383 217.569C680.643 217.554 680.872 217.463 681.116 217.615C681.239 217.692 681.33 217.799 681.437 217.875C681.498 217.905 681.559 217.921 681.62 217.967C681.681 218.028 681.727 218.073 681.788 218.104C681.895 218.165 682.002 218.241 682.109 218.318C682.231 218.409 682.369 218.455 682.491 218.501C682.705 218.593 682.934 218.669 683.148 218.715C683.346 218.761 683.606 218.715 683.82 218.715C684.11 218.715 684.324 218.608 684.598 218.532C684.828 218.471 685.026 218.348 685.24 218.241C685.408 218.15 685.606 218.104 685.79 218.058C685.988 218.012 686.187 217.936 686.385 217.951C686.507 217.951 686.553 218.012 686.645 218.089C686.752 218.165 686.859 218.226 686.95 218.303C687.118 218.471 687.195 218.654 687.271 218.883C687.332 219.066 687.302 219.265 687.302 219.463C687.302 219.646 687.179 219.876 687.072 220.028C686.966 220.181 686.843 220.334 686.736 220.486C686.691 220.548 686.645 220.609 686.599 220.67C686.523 220.746 686.492 220.807 686.431 220.899C686.401 220.945 686.385 221.006 686.355 221.051C686.339 221.097 686.294 221.143 686.278 221.189C686.233 221.281 686.202 221.372 686.171 221.449C686.141 221.525 686.095 221.617 686.095 221.708C686.095 221.815 686.095 221.922 686.095 222.014C686.095 222.227 686.034 222.38 686.095 222.594C686.126 222.686 686.095 222.792 686.095 222.884C686.126 223.037 686.187 223.19 686.248 223.327C686.339 223.556 686.462 223.724 686.599 223.923C686.691 224.045 686.752 224.167 686.843 224.274C686.935 224.381 687.027 224.503 687.088 224.625C687.225 224.885 687.424 225.16 687.485 225.45C687.485 225.511 687.531 225.572 687.546 225.618C687.546 225.664 687.546 225.725 687.546 225.77C687.546 225.832 687.592 225.893 687.592 225.969C687.592 226.045 687.576 226.076 687.561 226.137C687.531 226.244 687.515 226.351 687.47 226.458C687.424 226.565 687.378 226.672 687.286 226.748C687.195 226.84 687.072 226.855 686.95 226.901C686.492 227.069 686.049 227.267 685.561 227.084C685.362 227.007 685.194 226.885 684.996 226.809C684.812 226.733 684.66 226.656 684.492 226.565C684.385 226.504 684.232 226.442 684.11 226.412C683.972 226.381 683.865 226.336 683.743 226.259C683.529 226.122 683.316 226.03 683.071 225.938C682.476 225.725 681.926 226.045 681.361 226.183C680.842 226.32 680.307 226.488 679.773 226.565C679.727 226.565 679.696 226.565 679.65 226.565L679.742 226.595Z" fill="#FFF9C2"/>
<path d="M1752.37 1289.07C1751.5 1289.14 1751.48 1288.76 1751.24 1288.09C1751.09 1287.65 1750.96 1287.19 1751.01 1286.71C1751.01 1286.59 1751.07 1286.53 1751.15 1286.42C1751.27 1286.24 1751.39 1286.07 1751.54 1285.92C1751.8 1285.66 1752 1285.34 1752.23 1285.05C1752.31 1284.96 1752.37 1284.85 1752.45 1284.78C1752.52 1284.7 1752.57 1284.56 1752.61 1284.44C1752.67 1284.3 1752.67 1284.07 1752.63 1283.92C1752.6 1283.81 1752.58 1283.72 1752.57 1283.61C1752.55 1283.49 1752.52 1283.37 1752.48 1283.26C1752.38 1283.03 1752.28 1282.82 1752.22 1282.59C1752.16 1282.33 1752.08 1282.04 1752.08 1281.77C1752.08 1281.64 1752.08 1281.51 1752.08 1281.39C1752.08 1281.32 1752.08 1281.25 1752.08 1281.19C1752.08 1281.09 1752.12 1281.03 1752.12 1280.94C1752.14 1280.48 1752.55 1280.07 1753.01 1280.04C1753.27 1280.03 1753.5 1279.93 1753.74 1280.09C1753.87 1280.16 1753.96 1280.27 1754.06 1280.35C1754.13 1280.38 1754.19 1280.39 1754.25 1280.44C1754.31 1280.5 1754.35 1280.55 1754.42 1280.58C1754.52 1280.64 1754.63 1280.71 1754.74 1280.79C1754.86 1280.88 1755 1280.93 1755.12 1280.97C1755.33 1281.06 1755.56 1281.14 1755.77 1281.19C1755.97 1281.23 1756.23 1281.19 1756.45 1281.19C1756.74 1281.19 1756.95 1281.08 1757.23 1281C1757.45 1280.94 1757.65 1280.82 1757.87 1280.71C1758.03 1280.62 1758.23 1280.58 1758.42 1280.53C1758.62 1280.48 1758.81 1280.41 1759.01 1280.42C1759.13 1280.42 1759.18 1280.48 1759.27 1280.56C1759.38 1280.64 1759.49 1280.7 1759.58 1280.77C1759.75 1280.94 1759.82 1281.13 1759.9 1281.35C1759.96 1281.54 1759.93 1281.74 1759.93 1281.93C1759.93 1282.12 1759.81 1282.35 1759.7 1282.5C1759.59 1282.65 1759.47 1282.81 1759.36 1282.96C1759.32 1283.02 1759.27 1283.08 1759.23 1283.14C1759.15 1283.22 1759.12 1283.28 1759.06 1283.37C1759.03 1283.42 1759.01 1283.48 1758.98 1283.52C1758.97 1283.57 1758.92 1283.61 1758.91 1283.66C1758.86 1283.75 1758.83 1283.84 1758.8 1283.92C1758.77 1284 1758.72 1284.09 1758.72 1284.18C1758.72 1284.29 1758.72 1284.39 1758.72 1284.49C1758.72 1284.7 1758.66 1284.85 1758.72 1285.07C1758.75 1285.16 1758.72 1285.26 1758.72 1285.36C1758.75 1285.51 1758.81 1285.66 1758.87 1285.8C1758.97 1286.03 1759.09 1286.2 1759.23 1286.39C1759.32 1286.52 1759.38 1286.64 1759.47 1286.75C1759.56 1286.85 1759.65 1286.97 1759.71 1287.1C1759.85 1287.36 1760.05 1287.63 1760.11 1287.92C1760.11 1287.98 1760.16 1288.04 1760.17 1288.09C1760.17 1288.14 1760.17 1288.2 1760.17 1288.24C1760.17 1288.3 1760.22 1288.36 1760.22 1288.44C1760.22 1288.52 1760.2 1288.55 1760.19 1288.61C1760.16 1288.72 1760.14 1288.82 1760.1 1288.93C1760.05 1289.04 1760 1289.14 1759.91 1289.22C1759.82 1289.31 1759.7 1289.33 1759.58 1289.37C1759.12 1289.54 1758.68 1289.74 1758.19 1289.56C1757.99 1289.48 1757.82 1289.36 1757.62 1289.28C1757.44 1289.2 1757.29 1289.13 1757.12 1289.04C1757.01 1288.98 1756.86 1288.91 1756.74 1288.88C1756.6 1288.85 1756.49 1288.81 1756.37 1288.73C1756.16 1288.59 1755.94 1288.5 1755.7 1288.41C1755.1 1288.2 1754.55 1288.52 1753.99 1288.65C1753.47 1288.79 1752.93 1288.96 1752.4 1289.04C1752.35 1289.04 1752.32 1289.04 1752.28 1289.04L1752.37 1289.07Z" fill="#FFF9C2"/>
<path d="M1120.05 341.652C1118.74 341.759 1118.73 341.194 1118.36 340.186C1118.13 339.529 1117.93 338.827 1118.02 338.124C1118.04 337.941 1118.13 337.849 1118.22 337.696C1118.39 337.422 1118.59 337.162 1118.82 336.933C1119.2 336.536 1119.52 336.062 1119.86 335.619C1119.96 335.482 1120.07 335.329 1120.18 335.192C1120.28 335.054 1120.34 334.856 1120.42 334.703C1120.51 334.489 1120.51 334.153 1120.45 333.924C1120.41 333.772 1120.37 333.619 1120.36 333.466C1120.33 333.298 1120.28 333.084 1120.22 332.932C1120.08 332.596 1119.92 332.275 1119.82 331.908C1119.72 331.511 1119.63 331.084 1119.63 330.671C1119.63 330.473 1119.63 330.29 1119.63 330.091C1119.63 329.999 1119.63 329.893 1119.63 329.786C1119.63 329.663 1119.69 329.541 1119.7 329.419C1119.73 328.717 1120.33 328.106 1121.03 328.06C1121.41 328.029 1121.76 327.907 1122.13 328.136C1122.3 328.243 1122.45 328.411 1122.62 328.518C1122.71 328.579 1122.8 328.594 1122.89 328.671C1122.99 328.747 1123.05 328.823 1123.15 328.885C1123.32 328.991 1123.47 329.083 1123.64 329.205C1123.83 329.343 1124.02 329.404 1124.22 329.495C1124.53 329.633 1124.9 329.755 1125.22 329.816C1125.52 329.877 1125.9 329.816 1126.22 329.816C1126.65 329.816 1126.99 329.648 1127.4 329.541C1127.74 329.45 1128.06 329.266 1128.36 329.114C1128.62 328.991 1128.9 328.915 1129.19 328.854C1129.49 328.793 1129.77 328.671 1130.09 328.686C1130.27 328.686 1130.35 328.778 1130.48 328.885C1130.64 329.007 1130.81 329.083 1130.96 329.221C1131.22 329.48 1131.34 329.755 1131.45 330.091C1131.54 330.366 1131.49 330.671 1131.49 330.962C1131.49 331.236 1131.31 331.588 1131.16 331.802C1130.99 332.046 1130.82 332.26 1130.65 332.489C1130.58 332.596 1130.53 332.687 1130.44 332.764C1130.33 332.886 1130.27 332.977 1130.19 333.115C1130.15 333.191 1130.12 333.268 1130.09 333.344C1130.06 333.42 1130 333.466 1129.97 333.542C1129.9 333.665 1129.86 333.802 1129.8 333.94C1129.74 334.077 1129.69 334.199 1129.68 334.337C1129.68 334.489 1129.68 334.642 1129.68 334.81C1129.68 335.131 1129.58 335.375 1129.68 335.681C1129.71 335.818 1129.68 335.971 1129.69 336.108C1129.74 336.337 1129.83 336.566 1129.92 336.78C1130.06 337.116 1130.24 337.376 1130.45 337.681C1130.58 337.864 1130.68 338.048 1130.82 338.216C1130.96 338.384 1131.1 338.552 1131.19 338.75C1131.4 339.147 1131.69 339.56 1131.78 339.987C1131.8 340.064 1131.84 340.17 1131.86 340.232C1131.87 340.308 1131.86 340.384 1131.86 340.461C1131.86 340.568 1131.92 340.644 1131.94 340.751C1131.94 340.858 1131.9 340.919 1131.87 341.01C1131.83 341.178 1131.81 341.331 1131.74 341.484C1131.66 341.637 1131.6 341.789 1131.46 341.911C1131.31 342.049 1131.14 342.064 1130.97 342.141C1130.29 342.4 1129.63 342.706 1128.9 342.415C1128.61 342.309 1128.35 342.125 1128.04 342.003C1127.78 341.896 1127.54 341.774 1127.28 341.637C1127.11 341.545 1126.9 341.438 1126.71 341.407C1126.5 341.362 1126.36 341.301 1126.18 341.178C1125.86 340.965 1125.54 340.827 1125.19 340.705C1124.28 340.369 1123.47 340.858 1122.62 341.072C1121.83 341.27 1121.05 341.545 1120.24 341.637C1120.18 341.637 1120.12 341.637 1120.05 341.652Z" fill="#FFF9C2"/>
<path d="M141.054 787.652C139.741 787.759 139.725 787.194 139.359 786.186C139.13 785.529 138.931 784.827 139.023 784.124C139.038 783.941 139.13 783.849 139.221 783.696C139.389 783.422 139.588 783.162 139.817 782.933C140.199 782.536 140.52 782.062 140.855 781.619C140.962 781.482 141.069 781.329 141.176 781.192C141.283 781.054 141.344 780.856 141.421 780.703C141.512 780.489 141.512 780.153 141.451 779.924C141.405 779.772 141.375 779.619 141.359 779.466C141.329 779.298 141.283 779.084 141.222 778.932C141.085 778.596 140.917 778.275 140.825 777.908C140.718 777.511 140.626 777.084 140.626 776.671C140.626 776.473 140.626 776.29 140.626 776.091C140.626 775.999 140.626 775.893 140.626 775.786C140.626 775.663 140.687 775.541 140.703 775.419C140.733 774.717 141.329 774.106 142.031 774.06C142.413 774.029 142.764 773.907 143.131 774.136C143.299 774.243 143.452 774.411 143.62 774.518C143.711 774.579 143.803 774.594 143.895 774.671C143.986 774.747 144.047 774.823 144.154 774.885C144.322 774.991 144.475 775.083 144.643 775.205C144.826 775.343 145.025 775.404 145.223 775.495C145.529 775.633 145.895 775.755 146.216 775.816C146.521 775.877 146.903 775.816 147.224 775.816C147.651 775.816 147.987 775.648 148.4 775.541C148.736 775.45 149.056 775.266 149.362 775.114C149.621 774.991 149.896 774.915 150.187 774.854C150.492 774.793 150.767 774.671 151.088 774.686C151.271 774.686 151.347 774.778 151.485 774.885C151.637 775.007 151.805 775.083 151.958 775.221C152.218 775.48 152.34 775.755 152.447 776.091C152.538 776.366 152.493 776.671 152.493 776.962C152.493 777.236 152.309 777.588 152.157 777.802C151.989 778.046 151.821 778.26 151.653 778.489C151.576 778.596 151.53 778.687 151.439 778.764C151.332 778.886 151.271 778.977 151.195 779.115C151.149 779.191 151.118 779.268 151.088 779.344C151.057 779.42 150.996 779.466 150.965 779.542C150.904 779.665 150.859 779.802 150.797 779.94C150.736 780.077 150.691 780.199 150.675 780.337C150.675 780.489 150.675 780.642 150.675 780.81C150.675 781.131 150.584 781.375 150.675 781.681C150.706 781.818 150.675 781.971 150.691 782.108C150.736 782.337 150.828 782.566 150.92 782.78C151.057 783.116 151.24 783.376 151.454 783.681C151.576 783.864 151.683 784.048 151.821 784.216C151.958 784.384 152.096 784.552 152.187 784.75C152.401 785.147 152.691 785.56 152.783 785.987C152.798 786.064 152.844 786.17 152.859 786.232C152.874 786.308 152.859 786.384 152.859 786.461C152.859 786.568 152.92 786.644 152.936 786.751C152.936 786.858 152.905 786.919 152.874 787.01C152.829 787.178 152.813 787.331 152.737 787.484C152.661 787.637 152.599 787.789 152.462 787.911C152.309 788.049 152.141 788.064 151.973 788.141C151.286 788.4 150.629 788.706 149.896 788.415C149.606 788.309 149.347 788.125 149.041 788.003C148.782 787.896 148.537 787.774 148.278 787.637C148.11 787.545 147.896 787.438 147.713 787.407C147.499 787.362 147.361 787.301 147.178 787.178C146.857 786.965 146.537 786.827 146.185 786.705C145.284 786.369 144.475 786.858 143.62 787.072C142.826 787.27 142.047 787.545 141.237 787.637C141.176 787.637 141.115 787.637 141.054 787.652Z" fill="#FFF9C2"/>
<path d="M539.577 129.421C538.706 129.497 538.691 129.115 538.447 128.443C538.294 128.001 538.172 127.542 538.218 127.069C538.218 126.947 538.279 126.886 538.355 126.779C538.477 126.596 538.6 126.428 538.752 126.275C539.012 126.015 539.21 125.695 539.44 125.404C539.516 125.313 539.577 125.206 539.653 125.129C539.73 125.053 539.775 124.916 539.821 124.793C539.882 124.656 539.882 124.427 539.837 124.274C539.806 124.167 539.791 124.076 539.775 123.969C539.76 123.847 539.73 123.724 539.684 123.618C539.592 123.388 539.485 123.175 539.424 122.946C539.363 122.686 539.287 122.396 539.287 122.121C539.287 121.999 539.287 121.861 539.287 121.739C539.287 121.678 539.287 121.602 539.287 121.541C539.287 121.449 539.333 121.388 539.333 121.296C539.348 120.838 539.76 120.426 540.218 120.395C540.478 120.38 540.707 120.288 540.951 120.441C541.074 120.517 541.165 120.624 541.272 120.701C541.333 120.731 541.394 120.746 541.455 120.792C541.516 120.853 541.562 120.899 541.623 120.93C541.73 120.991 541.837 121.067 541.944 121.143C542.066 121.235 542.204 121.281 542.326 121.327C542.54 121.418 542.769 121.495 542.983 121.541C543.181 121.586 543.441 121.541 543.655 121.541C543.945 121.541 544.159 121.434 544.433 121.357C544.662 121.296 544.861 121.174 545.075 121.067C545.243 120.976 545.441 120.93 545.625 120.884C545.823 120.838 546.022 120.762 546.22 120.777C546.342 120.777 546.388 120.838 546.48 120.914C546.587 120.991 546.694 121.052 546.785 121.128C546.953 121.296 547.03 121.479 547.106 121.709C547.167 121.892 547.137 122.09 547.137 122.289C547.137 122.472 547.014 122.701 546.907 122.854C546.801 123.007 546.678 123.159 546.571 123.312C546.526 123.373 546.48 123.434 546.434 123.495C546.358 123.572 546.327 123.633 546.266 123.724C546.235 123.77 546.22 123.831 546.19 123.877C546.174 123.923 546.129 123.969 546.113 124.015C546.068 124.106 546.037 124.198 546.006 124.274C545.976 124.351 545.93 124.442 545.93 124.534C545.93 124.641 545.93 124.748 545.93 124.839C545.93 125.053 545.869 125.206 545.93 125.42C545.961 125.511 545.93 125.618 545.93 125.71C545.961 125.862 546.022 126.015 546.083 126.153C546.174 126.382 546.297 126.55 546.434 126.748C546.526 126.87 546.587 126.993 546.678 127.1C546.77 127.206 546.862 127.329 546.923 127.451C547.06 127.71 547.259 127.985 547.32 128.275C547.32 128.337 547.366 128.398 547.381 128.443C547.381 128.489 547.381 128.55 547.381 128.596C547.381 128.657 547.427 128.718 547.427 128.795C547.427 128.871 547.411 128.902 547.396 128.963C547.366 129.07 547.35 129.176 547.305 129.283C547.259 129.39 547.213 129.497 547.121 129.574C547.03 129.665 546.907 129.68 546.785 129.726C546.327 129.894 545.884 130.093 545.396 129.91C545.197 129.833 545.029 129.711 544.83 129.635C544.647 129.558 544.494 129.482 544.326 129.39C544.22 129.329 544.067 129.268 543.945 129.238C543.807 129.207 543.7 129.161 543.578 129.085C543.364 128.947 543.151 128.856 542.906 128.764C542.311 128.55 541.761 128.871 541.196 129.008C540.677 129.146 540.142 129.314 539.608 129.39C539.562 129.39 539.531 129.39 539.485 129.39L539.577 129.421Z" fill="#FF89BC"/>
<path d="M109.369 220.067C108.498 220.143 108.483 219.761 108.239 219.089C108.086 218.647 107.964 218.188 108.01 217.715C108.01 217.593 108.071 217.532 108.147 217.425C108.269 217.242 108.392 217.074 108.544 216.921C108.804 216.661 109.002 216.341 109.232 216.05C109.308 215.959 109.369 215.852 109.445 215.775C109.522 215.699 109.567 215.562 109.613 215.439C109.674 215.302 109.674 215.073 109.629 214.92C109.598 214.813 109.583 214.722 109.567 214.615C109.552 214.493 109.522 214.37 109.476 214.264C109.384 214.034 109.277 213.821 109.216 213.592C109.155 213.332 109.079 213.042 109.079 212.767C109.079 212.645 109.079 212.507 109.079 212.385C109.079 212.324 109.079 212.248 109.079 212.187C109.079 212.095 109.125 212.034 109.125 211.942C109.14 211.484 109.552 211.072 110.01 211.041C110.27 211.026 110.499 210.934 110.743 211.087C110.866 211.163 110.957 211.27 111.064 211.347C111.125 211.377 111.186 211.392 111.247 211.438C111.308 211.499 111.354 211.545 111.415 211.576C111.522 211.637 111.629 211.713 111.736 211.789C111.858 211.881 111.996 211.927 112.118 211.973C112.332 212.064 112.561 212.141 112.775 212.187C112.973 212.232 113.233 212.187 113.447 212.187C113.737 212.187 113.95 212.08 114.225 212.003C114.454 211.942 114.653 211.82 114.867 211.713C115.035 211.622 115.233 211.576 115.417 211.53C115.615 211.484 115.814 211.408 116.012 211.423C116.134 211.423 116.18 211.484 116.272 211.56C116.379 211.637 116.486 211.698 116.577 211.774C116.745 211.942 116.822 212.125 116.898 212.355C116.959 212.538 116.929 212.736 116.929 212.935C116.929 213.118 116.806 213.347 116.699 213.5C116.593 213.653 116.47 213.805 116.363 213.958C116.318 214.019 116.272 214.08 116.226 214.141C116.15 214.218 116.119 214.279 116.058 214.37C116.027 214.416 116.012 214.477 115.982 214.523C115.966 214.569 115.921 214.615 115.905 214.661C115.859 214.752 115.829 214.844 115.798 214.92C115.768 214.997 115.722 215.088 115.722 215.18C115.722 215.287 115.722 215.394 115.722 215.485C115.722 215.699 115.661 215.852 115.722 216.066C115.753 216.157 115.722 216.264 115.722 216.356C115.753 216.508 115.814 216.661 115.875 216.799C115.966 217.028 116.089 217.196 116.226 217.394C116.318 217.516 116.379 217.639 116.47 217.746C116.562 217.852 116.654 217.975 116.715 218.097C116.852 218.356 117.051 218.631 117.112 218.921C117.112 218.983 117.158 219.044 117.173 219.089C117.173 219.135 117.173 219.196 117.173 219.242C117.173 219.303 117.219 219.364 117.219 219.441C117.219 219.517 117.203 219.548 117.188 219.609C117.158 219.716 117.142 219.822 117.097 219.929C117.051 220.036 117.005 220.143 116.913 220.22C116.822 220.311 116.699 220.326 116.577 220.372C116.119 220.54 115.676 220.739 115.188 220.556C114.989 220.479 114.821 220.357 114.622 220.281C114.439 220.204 114.286 220.128 114.118 220.036C114.012 219.975 113.859 219.914 113.737 219.884C113.599 219.853 113.492 219.807 113.37 219.731C113.156 219.593 112.943 219.502 112.698 219.41C112.103 219.196 111.553 219.517 110.988 219.654C110.469 219.792 109.934 219.96 109.399 220.036C109.354 220.036 109.323 220.036 109.277 220.036L109.369 220.067Z" fill="#FF89BC"/>
<path d="M1071.24 161.934C1071.24 161.934 1071.25 161.873 1071.27 161.858C1071.54 161.11 1071.71 160.285 1072.38 159.766C1072.98 159.292 1073.85 159.338 1074.55 159.277C1075.47 159.201 1076.29 159.17 1077.13 158.773C1078.52 158.116 1078.26 156.192 1077.24 155.337C1076.92 155.077 1076.52 154.863 1076.15 154.665C1075.66 154.39 1075.02 154.283 1074.47 154.161C1074.29 154.115 1074.11 154.084 1073.92 154.023C1073.82 153.978 1073.69 153.916 1073.59 153.855C1073.39 153.733 1073.16 153.596 1073.04 153.367C1072.92 153.138 1072.96 152.847 1072.93 152.603C1072.85 152.069 1072.79 151.549 1072.67 151.03C1072.61 150.755 1072.56 150.434 1072.4 150.205C1071.86 149.533 1070.91 149.915 1070.26 150.16C1070.01 150.251 1069.8 150.389 1069.63 150.587C1069.42 150.832 1069.42 151.106 1069.37 151.412C1069.3 152.023 1069.3 152.695 1068.91 153.214C1068.62 153.611 1068.18 153.275 1067.8 153.199C1067.37 153.107 1067.01 153.351 1066.68 153.596C1066.42 153.81 1066.07 154.039 1065.92 154.344C1065.78 154.604 1065.78 154.955 1065.77 155.26C1065.75 155.719 1065.86 156.116 1066.13 156.482C1066.5 156.971 1066.96 157.353 1067.26 157.902C1067.4 158.162 1067.66 158.406 1067.75 158.697C1067.86 159.017 1067.8 159.414 1067.75 159.75C1067.71 160.208 1067.71 160.636 1067.75 161.094C1067.8 161.552 1067.75 162.102 1067.91 162.545C1067.97 162.744 1068.09 162.896 1068.2 163.08C1068.35 163.324 1068.47 163.568 1068.61 163.813C1068.9 164.301 1069.23 164.332 1069.71 164.088C1070.12 163.874 1070.46 163.675 1070.64 163.217C1070.81 162.805 1071.01 162.392 1071.16 161.965L1071.24 161.934Z" fill="#FFF9C2"/>
<path d="M800.469 252.106C800.469 252.106 800.484 252.045 800.499 252.03C800.774 251.281 800.942 250.457 801.614 249.937C802.21 249.464 803.08 249.51 803.783 249.449C804.699 249.372 805.524 249.342 806.364 248.945C807.753 248.288 807.494 246.364 806.471 245.509C806.15 245.249 805.753 245.035 805.386 244.837C804.898 244.562 804.256 244.455 803.706 244.333C803.523 244.287 803.34 244.256 803.157 244.195C803.05 244.149 802.927 244.088 802.821 244.027C802.622 243.905 802.393 243.768 802.271 243.539C802.149 243.309 802.194 243.019 802.164 242.775C802.088 242.24 802.026 241.721 801.904 241.202C801.843 240.927 801.797 240.606 801.629 240.377C801.095 239.705 800.148 240.087 799.491 240.331C799.247 240.423 799.033 240.561 798.865 240.759C798.651 241.003 798.651 241.278 798.606 241.584C798.529 242.195 798.529 242.867 798.147 243.386C797.857 243.783 797.414 243.447 797.033 243.371C796.605 243.279 796.238 243.523 795.918 243.768C795.658 243.981 795.307 244.211 795.154 244.516C795.017 244.776 795.017 245.127 795.001 245.432C794.986 245.89 795.093 246.287 795.368 246.654C795.734 247.143 796.193 247.525 796.498 248.074C796.635 248.334 796.895 248.578 796.987 248.868C797.094 249.189 797.033 249.586 796.987 249.922C796.941 250.38 796.941 250.808 796.987 251.266C797.033 251.724 796.987 252.274 797.139 252.717C797.201 252.915 797.323 253.068 797.43 253.251C797.582 253.496 797.705 253.74 797.842 253.984C798.132 254.473 798.468 254.504 798.942 254.259C799.354 254.046 799.69 253.847 799.873 253.389C800.041 252.977 800.24 252.564 800.392 252.137L800.469 252.106Z" fill="#FFF9C2"/>
<path d="M1302.92 197.282C1303.08 196.793 1303.14 196.274 1302.99 195.755C1302.92 195.526 1302.82 195.312 1302.7 195.098C1302.57 194.884 1302.44 194.686 1302.27 194.503C1301.9 194.075 1301.47 193.724 1300.95 193.479C1300.47 193.25 1299.98 193.098 1299.44 193.037C1299.21 193.006 1298.98 192.991 1298.74 193.006C1298.5 193.021 1298.27 193.082 1298.04 193.174C1297.67 193.311 1297.33 193.464 1297.01 193.693C1296.69 193.922 1296.54 194.212 1296.4 194.564C1296.28 194.869 1296.16 195.175 1296.13 195.495C1296.11 195.648 1296.1 195.801 1296.1 195.953C1296.1 196.106 1296.11 196.259 1296.11 196.412C1296.11 196.519 1296.13 196.625 1296.13 196.748C1296.13 196.839 1296.13 196.931 1296.13 197.022C1296.13 197.16 1296.16 197.313 1296.16 197.45C1296.16 197.542 1296.17 197.633 1296.2 197.71C1296.24 197.786 1296.27 197.832 1296.3 197.908C1296.37 198.076 1296.49 198.198 1296.63 198.321C1296.66 198.351 1296.71 198.382 1296.74 198.412C1296.77 198.443 1296.78 198.473 1296.82 198.504C1296.85 198.534 1296.89 198.565 1296.92 198.595C1297.14 198.794 1297.41 198.931 1297.67 199.038C1297.93 199.145 1298.24 199.252 1298.53 199.329C1298.74 199.374 1298.95 199.42 1299.17 199.435C1299.88 199.497 1300.62 199.359 1301.27 199.069C1301.53 198.962 1301.78 198.809 1302.04 198.718C1302.15 198.687 1302.22 198.595 1302.3 198.504C1302.44 198.351 1302.51 198.153 1302.6 197.969C1302.71 197.756 1302.8 197.526 1302.88 197.313L1302.92 197.282Z" fill="#FFF9C2"/>
<path d="M1291.3 224.619C1290.2 224.619 1289.01 224.527 1287.85 224.695C1286.38 224.894 1285.74 225.84 1286.09 227.352C1286.4 228.712 1287.53 228.803 1288.55 228.788C1290.51 228.788 1292.05 226.528 1291.3 224.619Z" fill="#FFF9C2"/>
<path d="M1561.3 172.025C1560.2 172.025 1559.01 171.933 1557.85 172.101C1556.38 172.3 1555.74 173.247 1556.09 174.759C1556.4 176.118 1557.53 176.209 1558.55 176.194C1560.51 176.194 1562.05 173.934 1561.3 172.025Z" fill="#FFF9C2"/>
<path d="M1354.66 203.7C1354.66 203.7 1354.66 203.669 1354.66 203.654C1354.58 202.875 1354.21 202.539 1353.69 201.974C1353.18 201.409 1352.89 201.241 1352.18 201.119C1351.68 201.043 1351.05 200.92 1350.52 201.073C1350.03 201.226 1349.69 201.974 1349.48 202.417C1349.27 202.86 1349.13 203.379 1349.07 203.898C1349.02 204.295 1349.16 204.998 1349.39 205.334C1349.59 205.609 1350.12 205.823 1350.49 205.945C1351.82 206.357 1353.01 205.792 1354.03 205.044C1354.5 204.693 1354.69 204.295 1354.64 203.715L1354.66 203.7Z" fill="#FFF9C2"/>
<path d="M526.598 1331.7C526.598 1331.7 526.598 1331.67 526.598 1331.65C526.522 1330.88 526.155 1330.54 525.636 1329.97C525.117 1329.41 524.827 1329.24 524.124 1329.12C523.62 1329.04 522.994 1328.92 522.46 1329.07C521.971 1329.23 521.635 1329.97 521.421 1330.42C521.207 1330.86 521.07 1331.38 521.009 1331.9C520.963 1332.3 521.1 1333 521.33 1333.33C521.528 1333.61 522.063 1333.82 522.429 1333.94C523.758 1334.36 524.949 1333.79 525.972 1333.04C526.446 1332.69 526.629 1332.3 526.583 1331.72L526.598 1331.7Z" fill="#FFF9C2"/>
<path d="M1132.19 160.346C1131.21 158.987 1129.76 158.559 1128.93 159.491C1128.55 159.918 1128.47 161.308 1128.78 161.522C1130.25 162.545 1131.13 161.232 1132.19 160.331V160.346Z" fill="#FFF9C2"/>
<path d="M1492.19 256.012C1492.53 255.936 1492.86 255.875 1493.15 255.692C1493.43 255.508 1494.03 255.05 1494.18 254.729C1494.56 253.92 1493.67 252.652 1493.09 252.271C1492.71 252.011 1492.42 251.935 1491.93 252.057C1491.44 252.179 1491.34 252.484 1491.12 252.958C1490.96 253.34 1490.68 253.828 1490.65 254.241C1490.57 255.111 1490.86 256.47 1491.99 256.089C1492.06 256.073 1492.13 256.043 1492.19 256.028V256.012Z" fill="#FFF9C2"/>
<path d="M1423.55 264.012C1423.89 263.936 1424.23 263.875 1424.52 263.692C1424.79 263.508 1425.39 263.05 1425.54 262.729C1425.92 261.92 1425.04 260.652 1424.45 260.271C1424.07 260.011 1423.78 259.935 1423.29 260.057C1422.81 260.179 1422.7 260.484 1422.48 260.958C1422.32 261.34 1422.04 261.828 1422.01 262.241C1421.94 263.111 1422.23 264.47 1423.36 264.089C1423.42 264.073 1423.49 264.043 1423.55 264.028V264.012Z" fill="#FFF9C2"/>
<path d="M896.987 28.5672C896.788 28.3992 896.62 28.1854 896.407 28.0632C895.948 27.8036 895.643 27.4523 895.521 26.9483C895.338 26.2 895.139 25.4517 895.032 24.6881C894.879 23.5733 895.277 22.5806 896.086 21.8323C896.697 21.2519 897.399 20.7785 898.071 20.3051C898.774 19.8164 899.614 19.9233 900.148 20.5647C901.217 21.8781 901.599 23.4358 901.599 25.0699C901.599 25.9251 901.171 26.6734 900.591 27.3301C900.225 27.7425 899.889 28.1701 899.522 28.5824H896.987V28.5672Z" fill="#FFF9C2"/>
<path d="M1104.71 283.285C1106.91 283.346 1108.9 285.041 1109.32 287.225C1109.37 287.5 1109.35 287.79 1109.31 288.065C1109.26 288.34 1109.05 288.584 1109.03 288.859C1108.87 291.012 1107.26 292.005 1105.66 292.876C1104.67 293.41 1103.44 293.15 1102.42 292.646C1101.37 292.112 1100.57 291.257 1100.53 290.035C1100.48 288.844 1100.53 287.622 1100.74 286.446C1101.06 284.644 1102.96 283.239 1104.73 283.285H1104.71Z" fill="#FFF9C2"/>
<path d="M1210.65 222.145C1210.89 222.97 1210.53 223.672 1209.88 224.314C1209.29 224.909 1208.75 225.566 1208.19 226.192C1206.91 227.597 1205.35 227.215 1204.08 226.864C1204.02 226.849 1203.93 226.818 1203.9 226.757C1203.17 225.535 1201.88 224.558 1202.02 222.909C1202.05 222.557 1202.19 222.176 1202.1 221.87C1201.73 220.74 1202.49 219.992 1202.98 219.167C1203.17 218.846 1203.61 218.526 1203.99 218.464C1205.06 218.281 1206.13 217.563 1207.23 218.388C1207.37 218.495 1207.64 218.434 1207.85 218.464C1209.92 218.755 1210.65 219.564 1210.65 221.61C1210.65 221.748 1210.65 221.885 1210.65 222.13V222.145Z" fill="#FF89BC"/>
<path d="M1019.92 98.7264C1019.67 98.1461 1019.41 97.6421 1019.21 97.1381C1018.6 95.5957 1019.39 93.6714 1020.9 93.0758C1021.1 92.9995 1021.36 92.9842 1021.59 93.0147C1021.91 93.0606 1022.22 93.2286 1022.54 93.2438C1023.32 93.2896 1023.7 93.8089 1023.91 94.435C1024.15 95.1834 1024.23 95.9775 1024.12 96.7716C1024.09 97.0312 1023.96 97.3061 1023.82 97.5352C1023.62 97.8406 1023.38 98.1308 1023.12 98.4057C1022.26 99.3373 1021.76 99.4442 1020.54 98.9555C1020.37 98.8944 1020.18 98.8333 1019.94 98.7417L1019.92 98.7264Z" fill="#FFF9C2"/>
<path d="M1017.92 308.726C1017.67 308.146 1017.41 307.642 1017.21 307.138C1016.6 305.596 1017.39 303.671 1018.9 303.076C1019.1 302.999 1019.36 302.984 1019.59 303.015C1019.91 303.061 1020.22 303.229 1020.54 303.244C1021.31 303.29 1021.7 303.809 1021.91 304.435C1022.15 305.183 1022.23 305.977 1022.12 306.772C1022.09 307.031 1021.96 307.306 1021.82 307.535C1021.62 307.841 1021.38 308.131 1021.12 308.406C1020.26 309.337 1019.76 309.444 1018.54 308.955C1018.37 308.894 1018.18 308.833 1017.94 308.742L1017.92 308.726Z" fill="#FFF9C2"/>
<path d="M851.534 225.258C851.381 226.175 851.427 227.045 851.076 227.671C850.679 228.374 850.022 229.137 849.304 229.382C848.021 229.809 846.586 230.13 845.242 229.443C844.937 229.29 844.631 229.046 844.463 228.756C843.959 227.839 843.455 226.892 843.073 225.915C842.936 225.579 842.997 224.999 843.211 224.724C843.868 223.914 844.57 223.075 845.425 222.479C846.143 221.975 847.014 221.853 848.021 222.189C849.442 222.647 850.602 223.273 851.305 224.617C851.427 224.861 851.488 225.136 851.534 225.258Z" fill="#FFF9C2"/>
<path d="M1267.75 84.6291C1267 84.4764 1266.31 84.3695 1265.64 84.2015C1263.01 83.5448 1262.33 81.1166 1263.67 79.3909C1264.22 78.6884 1264.86 78.0317 1265.52 77.4056C1265.75 77.1917 1266.14 77.1001 1266.47 77.0543C1266.95 76.9932 1267.44 76.9932 1267.93 77.0085C1269.6 77.0696 1270.74 78.1844 1270.63 79.8185C1270.57 80.8417 1270.24 81.8649 1269.95 82.8576C1269.86 83.163 1269.53 83.4227 1269.26 83.6212C1268.76 83.9877 1268.22 84.3084 1267.73 84.6291H1267.75Z" fill="#FFF9C2"/>
<path d="M1562.51 344.454C1561.6 344.347 1560.84 344.225 1560.17 343.767C1559.05 343.003 1558.69 341.751 1559.28 340.514C1559.48 340.102 1559.54 339.628 1559.97 339.323C1561.18 338.437 1562.69 338.773 1563.57 340.147C1563.68 340.315 1563.73 340.545 1563.85 340.697C1564.22 341.11 1564.45 341.552 1564.29 342.118C1564.09 342.866 1563.94 343.66 1563.24 344.149C1562.99 344.317 1562.69 344.378 1562.51 344.454Z" fill="#FFF9C2"/>
<path d="M1586.83 362.444C1588.33 361.146 1589.66 359.711 1591.92 360.459C1593.69 361.528 1593.03 363.208 1592.88 364.75C1592.87 364.949 1592.76 365.147 1592.68 365.346C1592.21 366.675 1590.8 367.53 1589.38 367.362C1588.04 367.194 1586.99 366.14 1586.83 364.704C1586.76 363.941 1586.83 363.177 1586.83 362.429V362.444Z" fill="#FF89BC"/>
<path d="M1526.74 270.032C1526.6 271.147 1526.23 272.537 1524.65 272.781C1524.51 272.796 1524.37 272.827 1524.23 272.857C1522.43 273.224 1521.62 272.796 1520.95 271.147C1520.92 271.086 1520.89 271.025 1520.87 270.948C1520.43 269.559 1521.7 267.253 1523.12 266.947C1525.47 266.428 1526.46 267.543 1526.74 270.017V270.032Z" fill="#FFF9C2"/>
<path d="M1598.03 313.498C1598.06 313.07 1598.1 312.628 1598.13 312.185C1598.16 311.543 1598.52 311.177 1599.1 310.963C1599.36 310.871 1599.62 310.764 1599.88 310.673C1600.78 310.367 1601.39 310.551 1601.91 311.329C1602.35 311.986 1602.5 312.765 1602.52 313.544C1602.52 313.834 1602.32 314.201 1602.09 314.399C1601.72 314.735 1601.27 314.949 1600.85 315.224C1600.01 315.774 1599.23 315.407 1598.5 315.01C1597.94 314.705 1597.94 314.109 1598.03 313.513V313.498Z" fill="#FFF9C2"/>
<path d="M1338.79 300.462C1339.02 300.737 1339.25 301.103 1339.57 301.363C1341 302.569 1340.61 304.081 1339.84 305.593C1339.28 306.708 1337.35 307.166 1336.32 306.494C1336.09 306.342 1335.86 306.097 1335.8 305.853C1335.58 305.059 1335.22 304.31 1335.31 303.409C1335.57 301.073 1336.22 300.462 1338.8 300.462H1338.79Z" fill="#FFF9C2"/>
<path d="M1028.57 186.904C1027.47 186.904 1026.28 186.812 1025.12 186.98C1023.65 187.179 1023.01 188.126 1023.36 189.638C1023.66 190.997 1024.79 191.088 1025.82 191.073C1027.77 191.073 1029.31 188.813 1028.57 186.904Z" fill="#FFF9C2"/>
<path d="M1040.01 217.28C1040.34 217.203 1040.68 217.142 1040.97 216.959C1041.24 216.776 1041.84 216.318 1041.99 215.997C1042.37 215.188 1041.49 213.92 1040.91 213.538C1040.52 213.279 1040.23 213.202 1039.75 213.324C1039.26 213.447 1039.15 213.752 1038.94 214.225C1038.77 214.607 1038.49 215.096 1038.46 215.508C1038.39 216.379 1038.68 217.738 1039.81 217.356C1039.87 217.341 1039.94 217.31 1040.01 217.295V217.28Z" fill="#FFF9C2"/>
<path d="M884.919 150.756C885.255 150.68 885.591 150.618 885.881 150.435C886.156 150.252 886.752 149.794 886.904 149.473C887.286 148.664 886.401 147.396 885.82 147.014C885.438 146.755 885.148 146.678 884.66 146.8C884.171 146.923 884.064 147.228 883.85 147.702C883.682 148.083 883.407 148.572 883.377 148.984C883.3 149.855 883.59 151.214 884.721 150.832C884.782 150.817 884.858 150.786 884.919 150.771V150.756Z" fill="#FFF9C2"/>
<path d="M763.142 138.63C763.478 138.554 763.814 138.492 764.104 138.309C764.379 138.126 764.974 137.668 765.127 137.347C765.509 136.538 764.623 135.27 764.043 134.888C763.661 134.629 763.371 134.552 762.882 134.675C762.393 134.797 762.287 135.102 762.073 135.576C761.905 135.957 761.63 136.446 761.599 136.858C761.523 137.729 761.813 139.088 762.943 138.706C763.004 138.691 763.081 138.66 763.142 138.645V138.63Z" fill="#FFF9C2"/>
<path d="M1069.5 222C1069.73 222.275 1069.95 222.641 1070.28 222.901C1071.71 224.108 1071.31 225.619 1070.55 227.131C1069.99 228.246 1068.06 228.704 1067.02 228.032C1066.79 227.88 1066.56 227.635 1066.5 227.391C1066.29 226.597 1065.92 225.849 1066.01 224.947C1066.27 222.611 1066.93 222 1069.51 222H1069.5Z" fill="#FFF9C2"/>
<path d="M1226.49 287.79C1227.74 288.951 1227.76 290.34 1227.21 291.852C1226.99 292.448 1226.6 292.845 1225.99 292.845C1225.36 292.845 1224.69 292.83 1224.14 292.585C1222.73 291.974 1222.43 290.722 1223.34 289.5C1224.11 288.477 1224.93 287.469 1226.49 287.805V287.79Z" fill="#FFF9C2"/>
<path d="M1582.45 317.759C1581.58 317.836 1581.56 317.454 1581.32 316.782C1581.17 316.339 1581.04 315.881 1581.09 315.407C1581.09 315.285 1581.15 315.224 1581.23 315.117C1581.35 314.934 1581.47 314.766 1581.63 314.613C1581.88 314.354 1582.08 314.033 1582.31 313.743C1582.39 313.651 1582.45 313.544 1582.53 313.468C1582.6 313.391 1582.65 313.254 1582.69 313.132C1582.76 312.994 1582.76 312.765 1582.71 312.613C1582.68 312.506 1582.66 312.414 1582.65 312.307C1582.63 312.185 1582.6 312.063 1582.56 311.956C1582.47 311.727 1582.36 311.513 1582.3 311.284C1582.24 311.024 1582.16 310.734 1582.16 310.459C1582.16 310.337 1582.16 310.2 1582.16 310.077C1582.16 310.016 1582.16 309.94 1582.16 309.879C1582.16 309.787 1582.21 309.726 1582.21 309.635C1582.22 309.176 1582.63 308.764 1583.09 308.734C1583.35 308.718 1583.58 308.627 1583.82 308.779C1583.95 308.856 1584.04 308.963 1584.15 309.039C1584.21 309.07 1584.27 309.085 1584.33 309.131C1584.39 309.192 1584.44 309.238 1584.5 309.268C1584.6 309.329 1584.71 309.406 1584.82 309.482C1584.94 309.574 1585.08 309.619 1585.2 309.665C1585.41 309.757 1585.64 309.833 1585.86 309.879C1586.05 309.925 1586.31 309.879 1586.53 309.879C1586.82 309.879 1587.03 309.772 1587.31 309.696C1587.54 309.635 1587.73 309.512 1587.95 309.406C1588.12 309.314 1588.31 309.268 1588.5 309.222C1588.7 309.176 1588.89 309.1 1589.09 309.115C1589.22 309.115 1589.26 309.176 1589.35 309.253C1589.46 309.329 1589.57 309.39 1589.66 309.467C1589.83 309.635 1589.9 309.818 1589.98 310.047C1590.04 310.23 1590.01 310.429 1590.01 310.627C1590.01 310.811 1589.89 311.04 1589.78 311.192C1589.67 311.345 1589.55 311.498 1589.44 311.65C1589.4 311.712 1589.35 311.773 1589.31 311.834C1589.23 311.91 1589.2 311.971 1589.14 312.063C1589.11 312.109 1589.09 312.17 1589.06 312.216C1589.05 312.261 1589 312.307 1588.99 312.353C1588.94 312.445 1588.91 312.536 1588.88 312.613C1588.85 312.689 1588.8 312.781 1588.8 312.872C1588.8 312.979 1588.8 313.086 1588.8 313.178C1588.8 313.391 1588.74 313.544 1588.8 313.758C1588.83 313.85 1588.8 313.957 1588.8 314.048C1588.83 314.201 1588.89 314.354 1588.96 314.491C1589.05 314.72 1589.17 314.888 1589.31 315.087C1589.4 315.209 1589.46 315.331 1589.55 315.438C1589.64 315.545 1589.73 315.667 1589.8 315.789C1589.93 316.049 1590.13 316.324 1590.19 316.614C1590.19 316.675 1590.24 316.736 1590.25 316.782C1590.25 316.828 1590.25 316.889 1590.25 316.935C1590.25 316.996 1590.3 317.057 1590.3 317.133C1590.3 317.209 1590.28 317.24 1590.27 317.301C1590.24 317.408 1590.22 317.515 1590.18 317.622C1590.13 317.729 1590.09 317.836 1589.99 317.912C1589.9 318.004 1589.78 318.019 1589.66 318.065C1589.2 318.233 1588.76 318.431 1588.27 318.248C1588.07 318.172 1587.9 318.049 1587.7 317.973C1587.52 317.897 1587.37 317.82 1587.2 317.729C1587.09 317.668 1586.94 317.606 1586.82 317.576C1586.68 317.545 1586.57 317.5 1586.45 317.423C1586.24 317.286 1586.02 317.194 1585.78 317.103C1585.18 316.889 1584.63 317.209 1584.07 317.347C1583.55 317.484 1583.02 317.652 1582.48 317.729C1582.43 317.729 1582.4 317.729 1582.36 317.729L1582.45 317.759Z" fill="#FF89BC"/>
<path d="M174.369 1093.07C173.498 1093.14 173.483 1092.76 173.239 1092.09C173.086 1091.65 172.964 1091.19 173.01 1090.71C173.01 1090.59 173.071 1090.53 173.147 1090.42C173.269 1090.24 173.392 1090.07 173.544 1089.92C173.804 1089.66 174.002 1089.34 174.232 1089.05C174.308 1088.96 174.369 1088.85 174.445 1088.78C174.522 1088.7 174.568 1088.56 174.613 1088.44C174.674 1088.3 174.674 1088.07 174.629 1087.92C174.598 1087.81 174.583 1087.72 174.568 1087.61C174.552 1087.49 174.522 1087.37 174.476 1087.26C174.384 1087.03 174.277 1086.82 174.216 1086.59C174.155 1086.33 174.079 1086.04 174.079 1085.77C174.079 1085.64 174.079 1085.51 174.079 1085.39C174.079 1085.32 174.079 1085.25 174.079 1085.19C174.079 1085.09 174.125 1085.03 174.125 1084.94C174.14 1084.48 174.552 1084.07 175.01 1084.04C175.27 1084.03 175.499 1083.93 175.743 1084.09C175.866 1084.16 175.957 1084.27 176.064 1084.35C176.125 1084.38 176.186 1084.39 176.247 1084.44C176.308 1084.5 176.354 1084.55 176.415 1084.58C176.522 1084.64 176.629 1084.71 176.736 1084.79C176.858 1084.88 176.996 1084.93 177.118 1084.97C177.332 1085.06 177.561 1085.14 177.775 1085.19C177.973 1085.23 178.233 1085.19 178.447 1085.19C178.737 1085.19 178.951 1085.08 179.225 1085C179.454 1084.94 179.653 1084.82 179.867 1084.71C180.035 1084.62 180.233 1084.58 180.417 1084.53C180.615 1084.48 180.814 1084.41 181.012 1084.42C181.134 1084.42 181.18 1084.48 181.272 1084.56C181.379 1084.64 181.486 1084.7 181.577 1084.77C181.745 1084.94 181.822 1085.13 181.898 1085.35C181.959 1085.54 181.929 1085.74 181.929 1085.93C181.929 1086.12 181.806 1086.35 181.699 1086.5C181.593 1086.65 181.47 1086.81 181.363 1086.96C181.318 1087.02 181.272 1087.08 181.226 1087.14C181.15 1087.22 181.119 1087.28 181.058 1087.37C181.027 1087.42 181.012 1087.48 180.982 1087.52C180.966 1087.57 180.921 1087.61 180.905 1087.66C180.86 1087.75 180.829 1087.84 180.798 1087.92C180.768 1088 180.722 1088.09 180.722 1088.18C180.722 1088.29 180.722 1088.39 180.722 1088.49C180.722 1088.7 180.661 1088.85 180.722 1089.07C180.753 1089.16 180.722 1089.26 180.722 1089.36C180.753 1089.51 180.814 1089.66 180.875 1089.8C180.966 1090.03 181.089 1090.2 181.226 1090.39C181.318 1090.52 181.379 1090.64 181.47 1090.75C181.562 1090.85 181.654 1090.97 181.715 1091.1C181.852 1091.36 182.051 1091.63 182.112 1091.92C182.112 1091.98 182.158 1092.04 182.173 1092.09C182.173 1092.14 182.173 1092.2 182.173 1092.24C182.173 1092.3 182.219 1092.36 182.219 1092.44C182.219 1092.52 182.203 1092.55 182.188 1092.61C182.158 1092.72 182.142 1092.82 182.097 1092.93C182.051 1093.04 182.005 1093.14 181.913 1093.22C181.822 1093.31 181.699 1093.33 181.577 1093.37C181.119 1093.54 180.676 1093.74 180.188 1093.56C179.989 1093.48 179.821 1093.36 179.622 1093.28C179.439 1093.2 179.286 1093.13 179.118 1093.04C179.012 1092.98 178.859 1092.91 178.737 1092.88C178.599 1092.85 178.492 1092.81 178.37 1092.73C178.156 1092.59 177.943 1092.5 177.698 1092.41C177.103 1092.2 176.553 1092.52 175.988 1092.65C175.469 1092.79 174.934 1092.96 174.4 1093.04C174.354 1093.04 174.323 1093.04 174.277 1093.04L174.369 1093.07Z" fill="#FF89BC"/>
<path d="M1384.37 180.067C1383.5 180.143 1383.48 179.761 1383.24 179.089C1383.09 178.647 1382.96 178.188 1383.01 177.715C1383.01 177.593 1383.07 177.532 1383.15 177.425C1383.27 177.242 1383.39 177.074 1383.54 176.921C1383.8 176.661 1384 176.341 1384.23 176.05C1384.31 175.959 1384.37 175.852 1384.45 175.775C1384.52 175.699 1384.57 175.562 1384.61 175.439C1384.67 175.302 1384.67 175.073 1384.63 174.92C1384.6 174.813 1384.58 174.722 1384.57 174.615C1384.55 174.493 1384.52 174.37 1384.48 174.264C1384.38 174.034 1384.28 173.821 1384.22 173.592C1384.16 173.332 1384.08 173.042 1384.08 172.767C1384.08 172.645 1384.08 172.507 1384.08 172.385C1384.08 172.324 1384.08 172.248 1384.08 172.187C1384.08 172.095 1384.12 172.034 1384.12 171.942C1384.14 171.484 1384.55 171.072 1385.01 171.041C1385.27 171.026 1385.5 170.934 1385.74 171.087C1385.87 171.163 1385.96 171.27 1386.06 171.347C1386.13 171.377 1386.19 171.392 1386.25 171.438C1386.31 171.499 1386.35 171.545 1386.42 171.576C1386.52 171.637 1386.63 171.713 1386.74 171.789C1386.86 171.881 1387 171.927 1387.12 171.973C1387.33 172.064 1387.56 172.141 1387.77 172.187C1387.97 172.232 1388.23 172.187 1388.45 172.187C1388.74 172.187 1388.95 172.08 1389.23 172.003C1389.45 171.942 1389.65 171.82 1389.87 171.713C1390.03 171.622 1390.23 171.576 1390.42 171.53C1390.62 171.484 1390.81 171.408 1391.01 171.423C1391.13 171.423 1391.18 171.484 1391.27 171.56C1391.38 171.637 1391.49 171.698 1391.58 171.774C1391.75 171.942 1391.82 172.125 1391.9 172.355C1391.96 172.538 1391.93 172.736 1391.93 172.935C1391.93 173.118 1391.81 173.347 1391.7 173.5C1391.59 173.653 1391.47 173.805 1391.36 173.958C1391.32 174.019 1391.27 174.08 1391.23 174.141C1391.15 174.218 1391.12 174.279 1391.06 174.37C1391.03 174.416 1391.01 174.477 1390.98 174.523C1390.97 174.569 1390.92 174.615 1390.91 174.661C1390.86 174.752 1390.83 174.844 1390.8 174.92C1390.77 174.997 1390.72 175.088 1390.72 175.18C1390.72 175.287 1390.72 175.394 1390.72 175.485C1390.72 175.699 1390.66 175.852 1390.72 176.066C1390.75 176.157 1390.72 176.264 1390.72 176.356C1390.75 176.508 1390.81 176.661 1390.87 176.799C1390.97 177.028 1391.09 177.196 1391.23 177.394C1391.32 177.516 1391.38 177.639 1391.47 177.746C1391.56 177.852 1391.65 177.975 1391.71 178.097C1391.85 178.356 1392.05 178.631 1392.11 178.921C1392.11 178.983 1392.16 179.044 1392.17 179.089C1392.17 179.135 1392.17 179.196 1392.17 179.242C1392.17 179.303 1392.22 179.364 1392.22 179.441C1392.22 179.517 1392.2 179.548 1392.19 179.609C1392.16 179.716 1392.14 179.822 1392.1 179.929C1392.05 180.036 1392 180.143 1391.91 180.22C1391.82 180.311 1391.7 180.326 1391.58 180.372C1391.12 180.54 1390.68 180.739 1390.19 180.556C1389.99 180.479 1389.82 180.357 1389.62 180.281C1389.44 180.204 1389.29 180.128 1389.12 180.036C1389.01 179.975 1388.86 179.914 1388.74 179.884C1388.6 179.853 1388.49 179.807 1388.37 179.731C1388.16 179.593 1387.94 179.502 1387.7 179.41C1387.1 179.196 1386.55 179.517 1385.99 179.654C1385.47 179.792 1384.93 179.96 1384.4 180.036C1384.35 180.036 1384.32 180.036 1384.28 180.036L1384.37 180.067Z" fill="#FF89BC"/>
<path d="M487.769 356.555C487.158 357.609 486.394 358.418 485.066 358.51C484.088 358.571 483.34 358.205 483.233 357.258C483.126 356.372 483.172 355.44 483.309 354.57C483.493 353.486 484.546 353.027 485.554 353.47C486.455 353.867 487.127 354.555 487.769 355.288V356.555Z" fill="#FFF9C2"/>
<path d="M379.685 264.482C378.616 264.36 377.517 264.238 376.432 264.116C375.593 263.23 374.554 262.604 374.218 261.336C373.943 260.282 373.867 259.275 374.356 258.282C374.447 258.099 374.63 257.915 374.646 257.732C374.753 256.159 375.745 255.594 377.15 255.426C377.425 255.395 377.685 255.258 377.96 255.182C379.777 254.647 381.304 255.304 382.144 256.999C382.419 257.564 382.648 258.16 382.877 258.74C383.137 259.412 383.167 260.099 382.877 260.802C382.724 261.183 382.557 261.581 382.465 261.993C382.343 262.588 382.007 263.001 381.518 263.322C380.922 263.703 380.342 264.085 379.701 264.497L379.685 264.482Z" fill="#FFF9C2"/>
<path d="M520.182 176.826C519.952 176.826 519.662 176.856 519.387 176.826C517.952 176.658 517.555 176.139 517.158 174.749C516.776 173.39 517.127 172.244 517.784 171.129C517.952 170.839 518.242 170.58 518.532 170.412C519.632 169.755 521.556 169.908 522.533 170.702C522.793 170.916 523.098 171.206 523.19 171.511C523.45 172.458 523.664 173.42 523.786 174.398C523.831 174.764 523.664 175.36 523.389 175.528C522.426 176.139 521.648 177.284 520.182 176.841V176.826Z" fill="#FFF9C2"/>
<path d="M388.015 93.4239C388.015 93.0421 388.015 92.6145 388.015 92.2022C388.031 90.5223 388.672 89.6213 390.245 89.0715C390.963 88.8271 392.398 89.2395 392.933 89.8503C394.139 91.1943 394.216 93.0269 393.131 94.4777C392.154 95.7758 390.474 95.9743 389.283 94.9053C388.825 94.493 388.458 93.9585 388 93.4239H388.015Z" fill="#FFF9C2"/>
<path d="M608.708 187.689C608.738 189.247 607.333 190.652 605.776 190.606C605.012 190.59 604.203 189.964 604.065 189.002C603.928 188.116 604.035 187.185 604.141 186.284C604.203 185.78 604.63 185.444 605.119 185.276C605.256 185.23 605.394 185.215 605.531 185.169C607.608 184.543 608.387 185.719 608.723 187.674L608.708 187.689Z" fill="#FF89BC"/>
<path d="M544.449 259.323C543.823 259.323 543.212 259.323 542.601 259.323C541.944 259.323 541.501 259.094 541.272 258.529C540.845 257.505 540.845 256.467 541.318 255.474C541.853 254.329 543.563 253.993 544.556 254.787C545.167 255.276 545.747 255.795 545.793 256.65C545.854 257.78 545.426 258.697 544.464 259.323H544.449Z" fill="#FFF9C2"/>
<path d="M457.775 338C458.477 338.29 459.042 338.519 459.546 338.733C460.02 339.726 460.386 340.611 459.928 341.635C459.332 342.994 457.897 343.315 456.874 342.276C456.629 342.032 456.4 341.757 456.202 341.467C455.606 340.55 455.682 339.787 456.477 339.023C456.828 338.687 457.24 338.412 457.759 338H457.775Z" fill="#FFF9C2"/>
<path d="M221.369 703.067C220.498 703.143 220.483 702.761 220.239 702.089C220.086 701.647 219.964 701.188 220.01 700.715C220.01 700.593 220.071 700.532 220.147 700.425C220.269 700.242 220.392 700.074 220.544 699.921C220.804 699.661 221.002 699.341 221.231 699.05C221.308 698.959 221.369 698.852 221.445 698.775C221.522 698.699 221.567 698.562 221.613 698.439C221.674 698.302 221.674 698.073 221.629 697.92C221.598 697.813 221.583 697.722 221.567 697.615C221.552 697.493 221.522 697.37 221.476 697.264C221.384 697.034 221.277 696.821 221.216 696.592C221.155 696.332 221.079 696.042 221.079 695.767C221.079 695.645 221.079 695.507 221.079 695.385C221.079 695.324 221.079 695.248 221.079 695.187C221.079 695.095 221.125 695.034 221.125 694.942C221.14 694.484 221.552 694.072 222.01 694.041C222.27 694.026 222.499 693.934 222.743 694.087C222.866 694.163 222.957 694.27 223.064 694.347C223.125 694.377 223.186 694.392 223.247 694.438C223.308 694.499 223.354 694.545 223.415 694.576C223.522 694.637 223.629 694.713 223.736 694.789C223.858 694.881 223.996 694.927 224.118 694.973C224.332 695.064 224.561 695.141 224.775 695.187C224.973 695.232 225.233 695.187 225.447 695.187C225.737 695.187 225.95 695.08 226.225 695.003C226.454 694.942 226.653 694.82 226.867 694.713C227.035 694.622 227.233 694.576 227.417 694.53C227.615 694.484 227.814 694.408 228.012 694.423C228.134 694.423 228.18 694.484 228.272 694.56C228.379 694.637 228.486 694.698 228.577 694.774C228.745 694.942 228.822 695.125 228.898 695.355C228.959 695.538 228.928 695.736 228.928 695.935C228.928 696.118 228.806 696.347 228.699 696.5C228.593 696.653 228.47 696.805 228.363 696.958C228.318 697.019 228.272 697.08 228.226 697.141C228.15 697.218 228.119 697.279 228.058 697.37C228.027 697.416 228.012 697.477 227.982 697.523C227.966 697.569 227.921 697.615 227.905 697.661C227.859 697.752 227.829 697.844 227.798 697.92C227.768 697.997 227.722 698.088 227.722 698.18C227.722 698.287 227.722 698.394 227.722 698.485C227.722 698.699 227.661 698.852 227.722 699.066C227.753 699.157 227.722 699.264 227.722 699.356C227.753 699.508 227.814 699.661 227.875 699.799C227.966 700.028 228.089 700.196 228.226 700.394C228.318 700.516 228.379 700.639 228.47 700.746C228.562 700.852 228.654 700.975 228.715 701.097C228.852 701.356 229.051 701.631 229.112 701.921C229.112 701.983 229.158 702.044 229.173 702.089C229.173 702.135 229.173 702.196 229.173 702.242C229.173 702.303 229.219 702.364 229.219 702.441C229.219 702.517 229.203 702.548 229.188 702.609C229.158 702.716 229.142 702.822 229.096 702.929C229.051 703.036 229.005 703.143 228.913 703.22C228.822 703.311 228.699 703.326 228.577 703.372C228.119 703.54 227.676 703.739 227.188 703.556C226.989 703.479 226.821 703.357 226.622 703.281C226.439 703.204 226.286 703.128 226.118 703.036C226.012 702.975 225.859 702.914 225.737 702.884C225.599 702.853 225.492 702.807 225.37 702.731C225.156 702.593 224.943 702.502 224.698 702.41C224.103 702.196 223.553 702.517 222.988 702.654C222.469 702.792 221.934 702.96 221.399 703.036C221.354 703.036 221.323 703.036 221.277 703.036L221.369 703.067Z" fill="#FFF9C2"/>
<path d="M1281.61 368.028C1281.89 367.158 1282.21 366.287 1282.54 365.417C1283.05 364.119 1283.81 362.653 1285.14 362.149C1286.41 361.675 1287.66 362.393 1288.16 363.447C1288.67 364.485 1289.17 366.303 1289.31 367.494C1289.52 369.235 1289.97 370.899 1290.61 372.457C1290.94 373.251 1291.36 374.045 1292.12 374.443C1292.75 374.763 1293.54 374.778 1294.3 374.748C1296.23 374.672 1298.2 374.412 1300.08 374.565C1301.95 374.717 1303.79 375.374 1304.76 376.825C1305.05 377.253 1305.25 377.772 1305.12 378.337C1305.02 378.703 1304.76 379.055 1304.49 379.36C1303.28 380.673 1301.57 381.315 1299.94 381.895C1296.03 383.27 1291.94 383.987 1291.22 388.706C1290.53 393.166 1291.46 397.503 1290.45 401.962C1290.24 402.94 1289.9 403.948 1289.22 404.772C1288.53 405.597 1287.43 406.223 1286.48 406.07C1285.51 405.918 1284.96 405.047 1284.54 404.223C1283.25 401.626 1282.36 398.786 1281.95 395.808C1281.55 392.921 1280.85 389.271 1279.18 386.996C1277.34 384.476 1273.55 384.278 1270.23 383.804C1268.94 383.621 1267.52 383.254 1267.1 382.063C1266.57 380.505 1268.19 378.566 1269.9 377.695C1272.51 376.382 1276.8 376.138 1279.06 374.381C1280.16 373.526 1280.51 372.106 1280.82 370.838C1281.05 369.891 1281.32 368.945 1281.63 368.013L1281.61 368.028Z" fill="#FFF9C2"/>
<path d="M1715.61 902.028C1715.89 901.158 1716.21 900.287 1716.54 899.417C1717.05 898.119 1717.81 896.653 1719.14 896.149C1720.41 895.675 1721.66 896.393 1722.16 897.447C1722.67 898.485 1723.17 900.303 1723.31 901.494C1723.52 903.235 1723.97 904.899 1724.61 906.457C1724.94 907.251 1725.36 908.045 1726.12 908.443C1726.75 908.763 1727.54 908.778 1728.3 908.748C1730.23 908.672 1732.2 908.412 1734.08 908.565C1735.95 908.717 1737.79 909.374 1738.76 910.825C1739.05 911.253 1739.25 911.772 1739.12 912.337C1739.02 912.703 1738.76 913.055 1738.49 913.36C1737.28 914.673 1735.57 915.315 1733.94 915.895C1730.03 917.27 1725.94 917.987 1725.22 922.706C1724.53 927.166 1725.46 931.503 1724.45 935.962C1724.24 936.94 1723.9 937.948 1723.22 938.772C1722.53 939.597 1721.43 940.223 1720.48 940.07C1719.51 939.918 1718.96 939.047 1718.54 938.223C1717.25 935.626 1716.36 932.786 1715.95 929.808C1715.55 926.921 1714.85 923.271 1713.18 920.996C1711.34 918.476 1707.55 918.278 1704.23 917.804C1702.94 917.621 1701.52 917.254 1701.1 916.063C1700.57 914.505 1702.19 912.566 1703.9 911.695C1706.51 910.382 1710.8 910.138 1713.06 908.381C1714.16 907.526 1714.51 906.106 1714.82 904.838C1715.05 903.891 1715.32 902.945 1715.63 902.013L1715.61 902.028Z" fill="#FFF9C2"/>
<path d="M1644.76 350.349C1644 351.204 1644.58 351.892 1644.53 352.594C1644.5 353.052 1644.55 353.51 1644.76 353.923C1645.49 355.374 1645.55 356.855 1645.42 358.336C1645.26 360.016 1645.28 361.727 1642.33 363.025C1639.81 362.597 1639.49 360.49 1638.33 359.054C1637.46 357.97 1637.14 356.687 1636.86 355.404C1636.62 354.289 1635.96 353.51 1635.12 352.9C1634.41 352.38 1633.47 352.38 1632.63 352.411C1630.83 352.457 1629.03 352.716 1627.23 352.762C1625.94 352.793 1624.66 352.64 1623.33 352.564L1622.37 351.647C1622.39 350.991 1622.13 350.258 1622.77 349.677C1622.94 349.524 1623.24 349.356 1623.26 349.173C1623.35 348.165 1624.19 347.768 1624.8 347.203C1625.43 346.623 1626.28 346.333 1626.82 345.615C1626.94 345.447 1627.24 345.432 1627.46 345.309C1628.11 344.912 1628.71 344.439 1629.4 344.134C1630.05 343.843 1630.74 343.63 1631.31 343.156C1631.41 343.065 1631.58 343.034 1631.67 342.942C1632.28 342.362 1632.76 341.705 1632.53 340.789C1632.48 340.606 1632.51 340.392 1632.42 340.224C1631.79 339.094 1631.95 337.887 1632.16 336.727C1632.34 335.658 1632.7 334.589 1633.78 333.993C1634.19 333.764 1634.59 333.474 1634.99 333.214C1635.34 332.985 1635.67 332.97 1636.05 333.168C1636.65 333.459 1637.26 333.718 1637.6 334.36C1637.69 334.528 1637.78 334.726 1637.92 334.818C1638.64 335.322 1638.9 336.085 1639.12 336.879C1639.25 337.292 1639.45 337.674 1639.64 338.162C1640.04 337.964 1640.42 337.857 1640.68 337.628C1641.63 336.788 1642.51 335.871 1643.45 335.001C1644.82 334.13 1646.12 333.123 1647.57 332.374C1648.27 332.008 1648.75 332.374 1649.23 332.832C1649.36 334.466 1648.73 335.963 1648.38 337.49C1648.01 338.3 1647.66 339.124 1647.02 339.812C1646.56 340.285 1646.26 340.896 1645.92 341.476C1645.75 341.782 1645.94 342.163 1646.26 342.316C1646.42 342.393 1646.61 342.454 1646.79 342.515C1648.5 343.11 1650.23 343.691 1651.94 344.286C1652.26 344.393 1652.53 344.607 1652.85 344.683C1653.51 344.851 1653.79 345.325 1653.91 345.92C1654.17 347.234 1653.83 348.578 1652.41 349.326C1651.51 349.799 1650.62 350.12 1649.54 349.937C1648.76 349.799 1647.94 349.876 1647.13 350.059C1646.35 350.242 1645.52 350.258 1644.74 350.334L1644.76 350.349Z" fill="#FFF466"/>
<path d="M945.854 133.178C945.381 133.697 945.732 134.125 945.717 134.568C945.717 134.843 945.717 135.133 945.854 135.392C946.297 136.293 946.343 137.21 946.266 138.126C946.175 139.165 946.175 140.218 944.357 141.028C942.8 140.768 942.601 139.455 941.883 138.569C941.349 137.897 941.15 137.103 940.982 136.324C940.83 135.637 940.433 135.163 939.898 134.782C939.455 134.461 938.875 134.461 938.356 134.476C937.241 134.507 936.126 134.659 935.011 134.69C934.217 134.705 933.423 134.614 932.598 134.568L932.002 134.003C932.002 133.606 931.85 133.147 932.247 132.781C932.354 132.689 932.537 132.582 932.552 132.475C932.598 131.849 933.117 131.605 933.514 131.254C933.911 130.902 934.431 130.719 934.767 130.261C934.843 130.154 935.042 130.154 935.164 130.078C935.561 129.833 935.943 129.543 936.37 129.345C936.783 129.161 937.195 129.039 937.546 128.749C937.607 128.688 937.714 128.673 937.775 128.612C938.157 128.245 938.447 127.848 938.31 127.283C938.279 127.161 938.31 127.039 938.249 126.932C937.867 126.229 937.959 125.481 938.081 124.778C938.188 124.122 938.417 123.465 939.073 123.099C939.333 122.961 939.562 122.778 939.822 122.625C940.035 122.488 940.249 122.472 940.494 122.595C940.86 122.778 941.242 122.946 941.44 123.328C941.502 123.435 941.547 123.557 941.639 123.618C942.082 123.939 942.235 124.412 942.387 124.885C942.464 125.13 942.586 125.374 942.708 125.679C942.952 125.557 943.181 125.496 943.349 125.344C943.93 124.824 944.48 124.259 945.06 123.709C945.915 123.175 946.709 122.549 947.61 122.075C948.038 121.846 948.343 122.075 948.634 122.366C948.71 123.373 948.328 124.29 948.099 125.252C947.87 125.756 947.656 126.26 947.259 126.687C946.984 126.978 946.786 127.359 946.587 127.711C946.48 127.894 946.587 128.138 946.801 128.23C946.908 128.276 947.015 128.306 947.137 128.352C948.191 128.719 949.26 129.07 950.313 129.452C950.512 129.513 950.68 129.65 950.879 129.696C951.276 129.803 951.459 130.093 951.535 130.46C951.688 131.269 951.489 132.094 950.604 132.567C950.039 132.857 949.504 133.056 948.832 132.949C948.343 132.873 947.839 132.918 947.335 133.025C946.847 133.132 946.343 133.147 945.854 133.193V133.178Z" fill="#FFF9C2"/>
<path d="M709.428 86.1246C708.664 86.9798 709.245 87.667 709.199 88.3695C709.168 88.8277 709.214 89.2858 709.428 89.6982C710.161 91.149 710.222 92.6304 710.085 94.1117C709.932 95.7916 709.947 97.5021 707 98.8002C704.48 98.3726 704.159 96.2651 702.998 94.8295C702.128 93.7452 701.807 92.4624 701.532 91.1795C701.288 90.0647 700.631 89.2858 699.791 88.675C699.074 88.1557 698.142 88.1557 697.302 88.1863C695.5 88.2321 693.698 88.4917 691.896 88.5375C690.613 88.568 689.33 88.4153 688.001 88.339L687.039 87.4227C687.055 86.766 686.795 86.0329 687.436 85.4526C687.604 85.2999 687.91 85.1319 687.925 84.9486C688.017 83.9407 688.857 83.5436 689.468 82.9786C690.094 82.3982 690.949 82.1081 691.483 81.3903C691.606 81.2223 691.911 81.207 692.125 81.0848C692.782 80.6878 693.377 80.2144 694.064 79.9089C694.721 79.6188 695.408 79.4049 695.973 78.9315C696.08 78.8399 696.248 78.8093 696.34 78.7177C696.951 78.1374 697.424 77.4807 697.195 76.5644C697.149 76.3811 697.18 76.1673 697.088 75.9993C696.462 74.8692 696.615 73.6627 696.829 72.5021C697.012 71.433 697.363 70.364 698.447 69.7684C698.86 69.5393 699.257 69.2492 699.654 68.9896C700.005 68.7605 700.341 68.7452 700.723 68.9437C701.318 69.2339 701.929 69.4935 702.265 70.1349C702.357 70.3029 702.449 70.5015 702.586 70.5931C703.304 71.0971 703.563 71.8607 703.793 72.6548C703.915 73.0671 704.113 73.4489 704.312 73.9376C704.709 73.7391 705.091 73.6322 705.35 73.4031C706.297 72.5632 707.183 71.6469 708.114 70.7764C709.489 69.9059 710.787 68.8979 712.238 68.1496C712.94 67.7831 713.414 68.1496 713.902 68.6078C714.025 70.2418 713.399 71.7385 713.047 73.2657C712.681 74.0751 712.329 74.8998 711.688 75.587C711.23 76.0604 710.924 76.6713 710.588 77.2516C710.42 77.5571 710.604 77.9388 710.924 78.0916C711.092 78.1679 711.276 78.229 711.459 78.2901C713.169 78.8857 714.895 79.466 716.606 80.0616C716.926 80.1685 717.201 80.3823 717.522 80.4587C718.179 80.6267 718.453 81.1001 718.576 81.6957C718.835 83.0091 718.499 84.353 717.079 85.1013C716.178 85.5748 715.292 85.8955 714.208 85.7122C713.429 85.5748 712.604 85.6511 711.795 85.8344C711.016 86.0177 710.191 86.0329 709.413 86.1093L709.428 86.1246Z" fill="#FFF466"/>
<path d="M210.428 358.125C209.664 358.98 210.245 359.667 210.199 360.37C210.168 360.828 210.214 361.286 210.428 361.698C211.161 363.149 211.222 364.63 211.085 366.112C210.932 367.792 210.947 369.502 208 370.8C205.48 370.373 205.159 368.265 203.998 366.83C203.128 365.745 202.807 364.462 202.532 363.18C202.288 362.065 201.631 361.286 200.791 360.675C200.074 360.156 199.142 360.156 198.302 360.186C196.5 360.232 194.698 360.492 192.896 360.538C191.613 360.568 190.33 360.415 189.001 360.339L188.039 359.423C188.055 358.766 187.795 358.033 188.436 357.453C188.604 357.3 188.91 357.132 188.925 356.949C189.017 355.941 189.857 355.544 190.468 354.979C191.094 354.398 191.949 354.108 192.483 353.39C192.606 353.222 192.911 353.207 193.125 353.085C193.782 352.688 194.377 352.214 195.064 351.909C195.721 351.619 196.408 351.405 196.973 350.932C197.08 350.84 197.248 350.809 197.34 350.718C197.951 350.137 198.424 349.481 198.195 348.564C198.149 348.381 198.18 348.167 198.088 347.999C197.462 346.869 197.615 345.663 197.829 344.502C198.012 343.433 198.363 342.364 199.447 341.768C199.86 341.539 200.257 341.249 200.654 340.99C201.005 340.76 201.341 340.745 201.723 340.944C202.318 341.234 202.929 341.494 203.265 342.135C203.357 342.303 203.449 342.501 203.586 342.593C204.304 343.097 204.563 343.861 204.793 344.655C204.915 345.067 205.113 345.449 205.312 345.938C205.709 345.739 206.091 345.632 206.35 345.403C207.297 344.563 208.183 343.647 209.114 342.776C210.489 341.906 211.787 340.898 213.238 340.15C213.94 339.783 214.414 340.15 214.902 340.608C215.025 342.242 214.399 343.738 214.047 345.266C213.681 346.075 213.329 346.9 212.688 347.587C212.23 348.06 211.924 348.671 211.589 349.252C211.421 349.557 211.604 349.939 211.924 350.092C212.092 350.168 212.276 350.229 212.459 350.29C214.169 350.886 215.895 351.466 217.606 352.062C217.926 352.169 218.201 352.382 218.522 352.459C219.179 352.627 219.454 353.1 219.576 353.696C219.835 355.009 219.499 356.353 218.079 357.101C217.178 357.575 216.292 357.895 215.208 357.712C214.429 357.575 213.604 357.651 212.795 357.834C212.016 358.018 211.191 358.033 210.413 358.109L210.428 358.125Z" fill="#FFF466"/>
<path d="M99.4278 669.125C98.6642 669.98 99.2446 670.667 99.1988 671.37C99.1682 671.828 99.214 672.286 99.4278 672.698C100.161 674.149 100.222 675.63 100.085 677.112C99.9318 678.792 99.9471 680.502 96.9996 681.8C94.4798 681.373 94.1591 679.265 92.9984 677.83C92.1279 676.745 91.8072 675.462 91.5323 674.18C91.288 673.065 90.6313 672.286 89.7913 671.675C89.0735 671.156 88.142 671.156 87.302 671.186C85.4999 671.232 83.6979 671.492 81.8958 671.538C80.6129 671.568 79.3301 671.415 78.0015 671.339L77.0393 670.423C77.0546 669.766 76.795 669.033 77.4364 668.453C77.6044 668.3 77.9098 668.132 77.9251 667.949C78.0167 666.941 78.8567 666.544 79.4675 665.979C80.0937 665.398 80.9489 665.108 81.4834 664.39C81.6056 664.222 81.911 664.207 82.1249 664.085C82.7815 663.688 83.3771 663.214 84.0644 662.909C84.7211 662.619 85.4083 662.405 85.9734 661.932C86.0803 661.84 86.2482 661.809 86.3399 661.718C86.9507 661.137 87.4242 660.481 87.1951 659.564C87.1493 659.381 87.1798 659.167 87.0882 658.999C86.4621 657.869 86.6148 656.663 86.8286 655.502C87.0118 654.433 87.3631 653.364 88.4474 652.768C88.8597 652.539 89.2568 652.249 89.6539 651.99C90.0051 651.76 90.3411 651.745 90.7229 651.944C91.3185 652.234 91.9294 652.494 92.2654 653.135C92.357 653.303 92.4486 653.501 92.5861 653.593C93.3038 654.097 93.5635 654.861 93.7925 655.655C93.9147 656.067 94.1132 656.449 94.3118 656.938C94.7088 656.739 95.0906 656.632 95.3503 656.403C96.2971 655.563 97.1829 654.647 98.1145 653.776C99.4889 652.906 100.787 651.898 102.238 651.15C102.94 650.783 103.414 651.15 103.902 651.608C104.025 653.242 103.399 654.738 103.047 656.266C102.681 657.075 102.329 657.9 101.688 658.587C101.23 659.06 100.924 659.671 100.589 660.252C100.421 660.557 100.604 660.939 100.924 661.092C101.092 661.168 101.276 661.229 101.459 661.29C103.169 661.886 104.895 662.466 106.606 663.062C106.926 663.169 107.201 663.382 107.522 663.459C108.179 663.627 108.454 664.1 108.576 664.696C108.835 666.009 108.499 667.353 107.079 668.101C106.178 668.575 105.292 668.895 104.208 668.712C103.429 668.575 102.604 668.651 101.795 668.834C101.016 669.018 100.191 669.033 99.4126 669.109L99.4278 669.125Z" fill="#FFF466"/>
<path d="M1746.43 554.125C1745.66 554.98 1746.24 555.667 1746.2 556.37C1746.17 556.828 1746.21 557.286 1746.43 557.698C1747.16 559.149 1747.22 560.63 1747.08 562.112C1746.93 563.792 1746.95 565.502 1744 566.8C1741.48 566.373 1741.16 564.265 1740 562.83C1739.13 561.745 1738.81 560.462 1738.53 559.18C1738.29 558.065 1737.63 557.286 1736.79 556.675C1736.07 556.156 1735.14 556.156 1734.3 556.186C1732.5 556.232 1730.7 556.492 1728.9 556.538C1727.61 556.568 1726.33 556.415 1725 556.339L1724.04 555.423C1724.05 554.766 1723.79 554.033 1724.44 553.453C1724.6 553.3 1724.91 553.132 1724.93 552.949C1725.02 551.941 1725.86 551.544 1726.47 550.979C1727.09 550.398 1727.95 550.108 1728.48 549.39C1728.61 549.222 1728.91 549.207 1729.12 549.085C1729.78 548.688 1730.38 548.214 1731.06 547.909C1731.72 547.619 1732.41 547.405 1732.97 546.932C1733.08 546.84 1733.25 546.809 1733.34 546.718C1733.95 546.137 1734.42 545.481 1734.2 544.564C1734.15 544.381 1734.18 544.167 1734.09 543.999C1733.46 542.869 1733.61 541.663 1733.83 540.502C1734.01 539.433 1734.36 538.364 1735.45 537.768C1735.86 537.539 1736.26 537.249 1736.65 536.99C1737.01 536.76 1737.34 536.745 1737.72 536.944C1738.32 537.234 1738.93 537.494 1739.27 538.135C1739.36 538.303 1739.45 538.501 1739.59 538.593C1740.3 539.097 1740.56 539.861 1740.79 540.655C1740.91 541.067 1741.11 541.449 1741.31 541.938C1741.71 541.739 1742.09 541.632 1742.35 541.403C1743.3 540.563 1744.18 539.647 1745.11 538.776C1746.49 537.906 1747.79 536.898 1749.24 536.15C1749.94 535.783 1750.41 536.15 1750.9 536.608C1751.02 538.242 1750.4 539.738 1750.05 541.266C1749.68 542.075 1749.33 542.9 1748.69 543.587C1748.23 544.06 1747.92 544.671 1747.59 545.252C1747.42 545.557 1747.6 545.939 1747.92 546.092C1748.09 546.168 1748.28 546.229 1748.46 546.29C1750.17 546.886 1751.9 547.466 1753.61 548.062C1753.93 548.169 1754.2 548.382 1754.52 548.459C1755.18 548.627 1755.45 549.1 1755.58 549.696C1755.84 551.009 1755.5 552.353 1754.08 553.101C1753.18 553.575 1752.29 553.895 1751.21 553.712C1750.43 553.575 1749.6 553.651 1748.79 553.834C1748.02 554.018 1747.19 554.033 1746.41 554.109L1746.43 554.125Z" fill="#FFF466"/>
<path d="M1536.56 45.8024C1536.33 45.7718 1536.04 45.7565 1535.78 45.6955C1534.37 45.3289 1534.05 44.7639 1533.85 43.3283C1533.66 41.9233 1534.17 40.8543 1534.97 39.8311C1535.17 39.5715 1535.49 39.3576 1535.81 39.2202C1536.98 38.7162 1538.86 39.1133 1539.73 40.0449C1539.96 40.2892 1540.22 40.6099 1540.27 40.9306C1540.39 41.908 1540.48 42.8854 1540.47 43.8628C1540.47 44.2294 1540.21 44.7944 1539.92 44.9319C1538.88 45.4206 1537.96 46.4438 1536.57 45.8024H1536.56Z" fill="#FFF9C2"/>
<path d="M1451.63 44.504C1451.68 44.1222 1451.74 43.7099 1451.8 43.2823C1452.04 41.6176 1452.79 40.8235 1454.44 40.4875C1455.17 40.3348 1456.55 40.9457 1457.01 41.6176C1458.01 43.1143 1457.85 44.9469 1456.58 46.2297C1455.43 47.3751 1453.74 47.3599 1452.7 46.1381C1452.3 45.6647 1452.01 45.0844 1451.63 44.504Z" fill="#FFF9C2"/>
</svg>
