<svg width="1818" height="1400" viewBox="0 0 1818 1400" fill="none" xmlns="http://www.w3.org/2000/svg">
<path d="M5.46874 255.106C5.46874 255.106 5.48401 255.045 5.49928 255.03C5.77418 254.281 5.94217 253.457 6.61413 252.937C7.20973 252.464 8.08022 252.51 8.78273 252.449C9.69904 252.372 10.5237 252.342 11.3637 251.945C12.7534 251.288 12.4938 249.364 11.4706 248.509C11.1499 248.249 10.7528 248.035 10.3863 247.837C9.89757 247.562 9.25616 247.455 8.70637 247.333C8.52311 247.287 8.33984 247.256 8.15658 247.195C8.04968 247.149 7.92751 247.088 7.8206 247.027C7.62207 246.905 7.39299 246.768 7.27082 246.539C7.14864 246.309 7.19446 246.019 7.16391 245.775C7.08755 245.24 7.02647 244.721 6.90429 244.202C6.84321 243.927 6.79739 243.606 6.6294 243.377C6.09488 242.705 5.14803 243.087 4.49134 243.331C4.24699 243.423 4.03319 243.561 3.8652 243.759C3.65139 244.003 3.65139 244.278 3.60558 244.584C3.52922 245.195 3.52921 245.867 3.14742 246.386C2.85725 246.783 2.41437 246.447 2.03258 246.371C1.60496 246.279 1.23844 246.523 0.917732 246.768C0.65811 246.981 0.306858 247.211 0.15414 247.516C0.0166932 247.776 0.0166926 248.127 0.00142075 248.432C-0.0138511 248.89 0.0930514 249.287 0.367945 249.654C0.734469 250.143 1.19262 250.525 1.49806 251.074C1.63551 251.334 1.89513 251.578 1.98676 251.868C2.09366 252.189 2.03257 252.586 1.98676 252.922C1.94094 253.38 1.94094 253.808 1.98676 254.266C2.03257 254.724 1.98676 255.274 2.13948 255.717C2.20056 255.915 2.32274 256.068 2.42964 256.251C2.58236 256.496 2.70454 256.74 2.84198 256.984C3.13215 257.473 3.46813 257.504 3.94156 257.259C4.35389 257.046 4.68988 256.847 4.87314 256.389C5.04113 255.977 5.23966 255.564 5.39238 255.137L5.46874 255.106Z" fill="#FFFCDF"/>
<path d="M684.013 270.106C684.013 270.106 684.028 270.045 684.043 270.03C684.318 269.281 684.486 268.457 685.158 267.937C685.754 267.464 686.624 267.51 687.327 267.449C688.243 267.372 689.068 267.342 689.908 266.945C691.297 266.288 691.038 264.364 690.014 263.509C689.694 263.249 689.297 263.035 688.93 262.837C688.441 262.562 687.8 262.455 687.25 262.333C687.067 262.287 686.884 262.256 686.701 262.195C686.594 262.149 686.471 262.088 686.365 262.027C686.166 261.905 685.937 261.768 685.815 261.539C685.693 261.309 685.738 261.019 685.708 260.775C685.632 260.24 685.57 259.721 685.448 259.202C685.387 258.927 685.341 258.606 685.173 258.377C684.639 257.705 683.692 258.087 683.035 258.331C682.791 258.423 682.577 258.561 682.409 258.759C682.195 259.003 682.195 259.278 682.149 259.584C682.073 260.195 682.073 260.867 681.691 261.386C681.401 261.783 680.958 261.447 680.577 261.371C680.149 261.279 679.782 261.523 679.462 261.768C679.202 261.981 678.851 262.211 678.698 262.516C678.561 262.776 678.561 263.127 678.545 263.432C678.53 263.89 678.637 264.287 678.912 264.654C679.278 265.143 679.737 265.525 680.042 266.074C680.179 266.334 680.439 266.578 680.531 266.868C680.638 267.189 680.577 267.586 680.531 267.922C680.485 268.38 680.485 268.808 680.531 269.266C680.577 269.724 680.531 270.274 680.683 270.717C680.745 270.915 680.867 271.068 680.974 271.251C681.126 271.496 681.248 271.74 681.386 271.985C681.676 272.473 682.012 272.504 682.485 272.259C682.898 272.046 683.234 271.847 683.417 271.389C683.585 270.977 683.784 270.564 683.936 270.137L684.013 270.106Z" fill="#FFFCDF"/>
<path d="M590.469 1012.11C590.469 1012.11 590.484 1012.04 590.499 1012.03C590.774 1011.28 590.942 1010.46 591.614 1009.94C592.21 1009.46 593.08 1009.51 593.783 1009.45C594.699 1009.37 595.524 1009.34 596.364 1008.94C597.753 1008.29 597.494 1006.36 596.471 1005.51C596.15 1005.25 595.753 1005.04 595.386 1004.84C594.898 1004.56 594.256 1004.45 593.706 1004.33C593.523 1004.29 593.34 1004.26 593.157 1004.2C593.05 1004.15 592.927 1004.09 592.821 1004.03C592.622 1003.91 592.393 1003.77 592.271 1003.54C592.149 1003.31 592.194 1003.02 592.164 1002.77C592.088 1002.24 592.026 1001.72 591.904 1001.2C591.843 1000.93 591.797 1000.61 591.629 1000.38C591.095 999.705 590.148 1000.09 589.491 1000.33C589.247 1000.42 589.033 1000.56 588.865 1000.76C588.651 1001 588.651 1001.28 588.606 1001.58C588.529 1002.19 588.529 1002.87 588.147 1003.39C587.857 1003.78 587.414 1003.45 587.033 1003.37C586.605 1003.28 586.238 1003.52 585.918 1003.77C585.658 1003.98 585.307 1004.21 585.154 1004.52C585.017 1004.78 585.017 1005.13 585.001 1005.43C584.986 1005.89 585.093 1006.29 585.368 1006.65C585.734 1007.14 586.193 1007.52 586.498 1008.07C586.635 1008.33 586.895 1008.58 586.987 1008.87C587.094 1009.19 587.033 1009.59 586.987 1009.92C586.941 1010.38 586.941 1010.81 586.987 1011.27C587.033 1011.72 586.987 1012.27 587.139 1012.72C587.201 1012.92 587.323 1013.07 587.43 1013.25C587.582 1013.5 587.705 1013.74 587.842 1013.98C588.132 1014.47 588.468 1014.5 588.942 1014.26C589.354 1014.05 589.69 1013.85 589.873 1013.39C590.041 1012.98 590.24 1012.56 590.392 1012.14L590.469 1012.11Z" fill="#FFFCDF"/>
<path d="M263.827 155.282C263.979 154.793 264.04 154.274 263.888 153.755C263.827 153.526 263.72 153.312 263.597 153.098C263.475 152.884 263.338 152.686 263.17 152.503C262.803 152.075 262.376 151.724 261.856 151.479C261.368 151.25 260.879 151.098 260.345 151.037C260.115 151.006 259.886 150.991 259.642 151.006C259.398 151.021 259.169 151.082 258.94 151.174C258.573 151.311 258.237 151.464 257.916 151.693C257.596 151.922 257.443 152.212 257.305 152.564C257.183 152.869 257.061 153.175 257.031 153.495C257.015 153.648 257 153.801 257 153.953C257 154.106 257.015 154.259 257.015 154.412C257.015 154.519 257.031 154.625 257.031 154.748C257.031 154.839 257.031 154.931 257.031 155.022C257.031 155.16 257.061 155.313 257.061 155.45C257.061 155.542 257.076 155.633 257.107 155.71C257.137 155.786 257.168 155.832 257.199 155.908C257.275 156.076 257.397 156.198 257.535 156.321C257.565 156.351 257.611 156.382 257.641 156.412C257.672 156.443 257.687 156.473 257.718 156.504C257.748 156.534 257.794 156.565 257.825 156.595C258.038 156.794 258.313 156.931 258.573 157.038C258.833 157.145 259.138 157.252 259.428 157.329C259.642 157.374 259.856 157.42 260.07 157.435C260.787 157.497 261.52 157.359 262.177 157.069C262.437 156.962 262.681 156.809 262.941 156.718C263.048 156.687 263.124 156.595 263.2 156.504C263.338 156.351 263.414 156.153 263.506 155.969C263.613 155.756 263.704 155.526 263.781 155.313L263.827 155.282Z" fill="#FFFCDF"/>
<path d="M72.4681 430.361C71.4907 429.002 70.0399 428.574 69.2152 429.506C68.8334 429.934 68.7571 431.323 69.0625 431.537C70.5286 432.56 71.4144 431.247 72.4681 430.346V430.361Z" fill="#FFFCDF"/>
<path d="M205.73 387.416C206.066 387.339 206.402 387.278 206.692 387.095C206.967 386.912 207.562 386.454 207.715 386.133C208.097 385.324 207.211 384.056 206.631 383.674C206.249 383.415 205.959 383.338 205.47 383.46C204.997 383.567 204.874 383.888 204.661 384.361C204.493 384.743 204.218 385.232 204.187 385.644C204.111 386.515 204.401 387.874 205.531 387.492C205.592 387.477 205.669 387.446 205.73 387.431V387.416Z" fill="#FFFCDF"/>
<path d="M1215.55 1018.01C1215.89 1017.94 1216.23 1017.87 1216.52 1017.69C1216.79 1017.51 1217.39 1017.05 1217.54 1016.73C1217.92 1015.92 1217.04 1014.65 1216.45 1014.27C1216.07 1014.01 1215.78 1013.93 1215.29 1014.06C1214.82 1014.16 1214.7 1014.48 1214.48 1014.96C1214.32 1015.34 1214.04 1015.83 1214.01 1016.24C1213.94 1017.11 1214.23 1018.47 1215.36 1018.09C1215.42 1018.07 1215.49 1018.04 1215.55 1018.03V1018.01Z" fill="#FFFCDF"/>
<path d="M172.987 460.018C172.788 459.85 172.62 459.636 172.407 459.514C171.949 459.254 171.643 458.903 171.521 458.399C171.338 457.651 171.139 456.903 171.032 456.139C170.879 455.024 171.277 454.032 172.086 453.283C172.697 452.703 173.399 452.229 174.071 451.756C174.774 451.267 175.614 451.374 176.148 452.016C177.217 453.329 177.599 454.887 177.599 456.521C177.599 457.376 177.171 458.124 176.591 458.781C176.225 459.193 175.889 459.621 175.522 460.033H172.987V460.018Z" fill="#FFFCDF"/>
<path d="M40.2006 476.001C42.3998 476.062 44.3851 477.757 44.8127 479.941C44.8585 480.216 44.8433 480.506 44.7975 480.781C44.7516 481.056 44.5378 481.3 44.5226 481.575C44.3546 483.729 42.751 484.721 41.1475 485.592C40.1548 486.126 38.9331 485.867 37.9099 485.363C36.8561 484.828 36.062 483.973 36.0161 482.751C35.9703 481.56 36.0161 480.338 36.2299 479.162C36.5507 477.36 38.4444 475.955 40.2159 476.001H40.2006Z" fill="#FFFCDF"/>
<path d="M99.4366 38.145C99.681 38.9697 99.3144 39.6722 98.673 40.3136C98.0774 40.9092 97.5429 41.5659 96.9779 42.192C95.695 43.597 94.1373 43.2152 92.8697 42.864C92.8086 42.8487 92.717 42.8182 92.6865 42.7571C91.9534 41.5353 90.6706 40.5579 90.808 38.9086C90.8386 38.5573 90.976 38.1755 90.8844 37.8701C90.5179 36.74 91.2814 35.9917 91.7701 35.167C91.9534 34.8463 92.3963 34.5256 92.7781 34.4645C93.8471 34.2812 94.9161 33.5634 96.0157 34.3881C96.1532 34.495 96.4281 34.4339 96.6419 34.4645C98.7036 34.7546 99.4366 35.564 99.4366 37.6105C99.4366 37.7479 99.4366 37.8854 99.4366 38.1297V38.145Z" fill="#FBDDEA"/>
<path d="M1817.01 107.354C1816.86 108.27 1816.91 109.141 1816.56 109.767C1816.16 110.469 1815.5 111.233 1814.78 111.477C1813.5 111.905 1812.07 112.225 1810.72 111.538C1810.42 111.385 1810.11 111.141 1809.94 110.851C1809.44 109.935 1808.93 108.988 1808.55 108.01C1808.42 107.674 1808.48 107.094 1808.69 106.819C1809.35 106.01 1810.05 105.17 1810.9 104.574C1811.62 104.07 1812.49 103.948 1813.5 104.284C1814.92 104.742 1816.08 105.368 1816.78 106.712C1816.91 106.957 1816.97 107.232 1817.01 107.354Z" fill="#FFFCDF"/>
<path d="M174.506 234.736C173.605 234.629 172.841 234.507 172.169 234.049C171.054 233.285 170.688 232.033 171.283 230.796C171.482 230.383 171.543 229.91 171.97 229.605C173.177 228.719 174.689 229.055 175.575 230.429C175.682 230.597 175.727 230.826 175.849 230.979C176.216 231.391 176.445 231.834 176.292 232.399C176.094 233.148 175.941 233.942 175.239 234.43C174.994 234.598 174.689 234.659 174.506 234.736Z" fill="#FFFCDF"/>
<path d="M380.752 345.954C381.821 345.847 382.6 346.228 383.287 346.9C384.31 347.893 385.196 348.932 385.471 350.413C385.929 352.963 384.249 355.59 381.745 356.186C380.706 356.43 379.683 356.629 378.629 356.277C378.003 356.064 377.499 355.743 377.346 355.025C377.27 354.689 377.224 354.261 376.995 354.063C375.636 352.902 376.048 351.345 376.094 349.924C376.125 349.115 376.43 348.275 377.239 347.771C377.591 347.557 377.82 347.16 378.125 346.87C378.889 346.183 379.744 345.74 380.737 345.938L380.752 345.954Z" fill="#FBDDEA"/>
<path d="M1492.75 1389.06C1493.82 1388.96 1494.6 1389.34 1495.29 1390.01C1496.31 1391 1497.2 1392.04 1497.47 1393.52C1497.93 1396.07 1496.25 1398.7 1493.74 1399.3C1492.71 1399.54 1491.68 1399.74 1490.63 1399.39C1490 1399.17 1489.5 1398.85 1489.35 1398.13C1489.27 1397.8 1489.22 1397.37 1489 1397.17C1487.64 1396.01 1488.05 1394.45 1488.09 1393.03C1488.12 1392.22 1488.43 1391.38 1489.24 1390.88C1489.59 1390.67 1489.82 1390.27 1490.13 1389.98C1490.89 1389.29 1491.74 1388.85 1492.74 1389.05L1492.75 1389.06Z" fill="#FBDDEA"/>
<path d="M1156.75 958.063C1157.82 957.956 1158.6 958.338 1159.29 959.01C1160.31 960.002 1161.2 961.041 1161.47 962.522C1161.93 965.073 1160.25 967.699 1157.74 968.295C1156.71 968.539 1155.68 968.738 1154.63 968.387C1154 968.173 1153.5 967.852 1153.35 967.134C1153.27 966.798 1153.22 966.371 1153 966.172C1151.64 965.012 1152.05 963.454 1152.09 962.034C1152.12 961.224 1152.43 960.384 1153.24 959.88C1153.59 959.666 1153.82 959.269 1154.13 958.979C1154.89 958.292 1155.74 957.849 1156.74 958.048L1156.75 958.063Z" fill="#FBDDEA"/>
<path d="M513.685 413.482C512.616 413.36 511.517 413.238 510.432 413.116C509.593 412.23 508.554 411.604 508.218 410.336C507.943 409.282 507.867 408.275 508.356 407.282C508.447 407.099 508.63 406.915 508.646 406.732C508.753 405.159 509.745 404.594 511.15 404.426C511.425 404.395 511.685 404.258 511.96 404.182C513.777 403.647 515.304 404.304 516.144 405.999C516.419 406.564 516.648 407.16 516.877 407.74C517.137 408.412 517.167 409.099 516.877 409.802C516.724 410.183 516.557 410.581 516.465 410.993C516.343 411.588 516.007 412.001 515.518 412.322C514.922 412.703 514.342 413.085 513.701 413.497L513.685 413.482Z" fill="#FFFCDF"/>
<path d="M814.03 287.008C815.893 288.214 816.275 289.635 816.03 291.406C815.801 292.964 814.473 294.247 812.9 294.125C812.212 294.079 811.525 293.895 810.853 293.682C810.548 293.59 810.212 293.33 810.044 293.056C809.433 292.093 809.204 290.994 809.005 289.879C808.99 289.757 809.005 289.574 809.097 289.482C809.677 288.795 810.227 288.046 810.914 287.481C811.296 287.161 811.937 287.115 812.487 287.038C813.037 286.962 813.602 287.023 814.03 287.023V287.008Z" fill="#FBDDEA"/>
<path d="M605.015 360.183C605 357.862 607.367 356.228 609.307 357.022C610.528 357.526 611.2 359.038 610.834 360.32C610.391 361.832 609.368 362.642 607.886 362.993C606.985 363.207 605.657 362.504 605.305 361.634C605.229 361.435 605.168 361.237 605.122 361.023C605.061 360.672 605.031 360.336 605 360.168L605.015 360.183Z" fill="#FFFCDF"/>
<path d="M600.779 216.773C600.519 216.91 600.397 216.986 600.26 217.032C597.587 217.933 597.206 217.047 596.457 214.879C595.877 213.199 597.969 211.122 599.695 211.611C600.122 211.733 600.581 212.099 600.81 212.481C601.359 213.413 601.604 214.436 601.207 215.52C601.069 215.917 600.932 216.314 600.764 216.788L600.779 216.773Z" fill="#FFFCDF"/>
<path d="M668.485 362.245C668.226 362.382 668.103 362.459 667.966 362.504C665.293 363.405 664.912 362.52 664.163 360.351C663.583 358.671 665.675 356.594 667.401 357.083C667.829 357.205 668.287 357.572 668.516 357.953C669.066 358.885 669.31 359.908 668.913 360.992C668.775 361.39 668.638 361.787 668.47 362.26L668.485 362.245Z" fill="#FFFCDF"/>
<path d="M1685.61 286.572C1685.09 286.771 1684.86 286.878 1684.62 286.939C1679.41 288.252 1678.68 286.969 1677.2 283.823C1676.05 281.395 1680.14 278.402 1683.52 279.104C1684.34 279.272 1685.26 279.807 1685.7 280.356C1686.77 281.7 1687.25 283.182 1686.5 284.739C1686.22 285.305 1685.96 285.885 1685.64 286.572H1685.61Z" fill="#FFFCDF"/>
<path d="M898.993 145.438C898.733 145.576 898.611 145.652 898.474 145.698C895.801 146.599 895.419 145.713 894.671 143.544C894.091 141.864 896.183 139.788 897.909 140.276C898.336 140.398 898.794 140.765 899.024 141.147C899.573 142.078 899.818 143.102 899.421 144.186C899.283 144.583 899.146 144.98 898.978 145.453L898.993 145.438Z" fill="#FFFCDF"/>
<path d="M1773.54 75.4338C1772.79 76.3959 1771.92 77.0832 1770.59 77.0068C1769.62 76.9457 1768.93 76.4723 1768.94 75.5102C1768.96 74.6244 1769.13 73.7081 1769.39 72.8529C1769.72 71.8144 1770.82 71.4937 1771.75 72.074C1772.59 72.5932 1773.17 73.3721 1773.71 74.1662L1773.54 75.4185V75.4338Z" fill="#FFFCDF"/>
<path d="M1802.52 626.152C1803.59 626.182 1804.3 626.671 1804.9 627.435C1805.77 628.565 1806.52 629.71 1806.59 631.207C1806.72 633.788 1804.69 636.185 1802.12 636.43C1801.07 636.537 1800.01 636.598 1799.02 636.109C1798.42 635.819 1797.97 635.422 1797.92 634.689C1797.89 634.353 1797.9 633.91 1797.71 633.681C1796.51 632.337 1797.14 630.855 1797.37 629.45C1797.51 628.641 1797.92 627.862 1798.81 627.465C1799.17 627.297 1799.46 626.931 1799.8 626.702C1800.64 626.121 1801.55 625.801 1802.52 626.136V626.152Z" fill="#FBDDEA"/>
<path d="M1366.05 49.2659C1365 49.0063 1363.93 48.7314 1362.88 48.4718C1362.16 47.4944 1361.21 46.7308 1361.06 45.4174C1360.92 44.3331 1360.98 43.3251 1361.61 42.4088C1361.73 42.2408 1361.93 42.0881 1361.98 41.9049C1362.3 40.3624 1363.37 39.9348 1364.77 39.9501C1365.05 39.9501 1365.32 39.8584 1365.6 39.8126C1367.47 39.5225 1368.9 40.3777 1369.49 42.1798C1369.69 42.7754 1369.84 43.4015 1369.98 44.0124C1370.13 44.7149 1370.09 45.4021 1369.7 46.0435C1369.49 46.4101 1369.28 46.7766 1369.14 47.1584C1368.94 47.7387 1368.56 48.1052 1368.02 48.3496C1367.38 48.6397 1366.76 48.9452 1366.07 49.2659H1366.05Z" fill="#FFFCDF"/>
<path d="M1761.67 68.012C1760.53 67.8135 1758.99 66.4238 1758.76 65.5533C1758.42 64.3315 1759.14 63.5221 1759.92 62.8043C1760.6 62.1629 1761.41 62.1476 1762.27 62.5447C1763.55 63.125 1764.29 63.9497 1764.15 65.0646C1764.01 66.1183 1763.43 67.0346 1762.67 67.7677C1762.41 68.012 1761.89 67.9815 1761.69 68.0273L1761.67 68.012Z" fill="#FFFCDF"/>
<path d="M1618.72 429.132C1618.55 430.69 1616.97 431.881 1615.42 431.637C1614.68 431.514 1613.96 430.797 1613.94 429.819C1613.94 428.933 1614.16 428.017 1614.37 427.147C1614.49 426.658 1614.97 426.383 1615.48 426.276C1615.62 426.246 1615.76 426.246 1615.9 426.23C1618.05 425.894 1618.66 427.147 1618.72 429.147V429.132Z" fill="#FBDDEA"/>
<path d="M1580.01 427.926C1579.4 427.849 1578.79 427.758 1578.18 427.681C1577.53 427.605 1577.12 427.299 1576.95 426.719C1576.66 425.65 1576.82 424.612 1577.41 423.695C1578.1 422.626 1579.84 422.519 1580.71 423.451C1581.25 424.016 1581.76 424.612 1581.69 425.467C1581.6 426.597 1581.05 427.437 1580.01 427.941V427.926Z" fill="#FFFCDF"/>
<path d="M1746.31 53.0153C1746.97 53.3971 1747.5 53.7025 1747.98 53.9774C1748.31 55.0159 1748.56 55.9475 1747.98 56.8943C1747.2 58.1466 1745.73 58.2841 1744.88 57.1234C1744.66 56.8485 1744.48 56.5431 1744.33 56.2224C1743.87 55.2297 1744.05 54.4814 1744.92 53.84C1745.32 53.5498 1745.76 53.336 1746.33 53L1746.31 53.0153Z" fill="#FFFCDF"/>
<path d="M1643.1 199.267C1642.22 199.221 1642.26 198.839 1642.1 198.152C1642.01 197.694 1641.95 197.22 1642.06 196.762C1642.09 196.64 1642.15 196.579 1642.22 196.487C1642.36 196.319 1642.51 196.167 1642.68 196.029C1642.97 195.8 1643.22 195.525 1643.48 195.266C1643.55 195.189 1643.64 195.098 1643.72 195.021C1643.8 194.945 1643.86 194.823 1643.94 194.716C1644.03 194.578 1644.04 194.365 1644.03 194.197C1644.03 194.09 1644.01 193.998 1644 193.891C1644 193.769 1644 193.632 1643.95 193.525C1643.89 193.28 1643.81 193.067 1643.78 192.822C1643.75 192.547 1643.72 192.257 1643.77 191.997C1643.78 191.875 1643.8 191.738 1643.81 191.616C1643.81 191.555 1643.81 191.478 1643.84 191.417C1643.86 191.341 1643.9 191.264 1643.92 191.173C1644.01 190.715 1644.45 190.363 1644.93 190.394C1645.19 190.409 1645.43 190.363 1645.65 190.547C1645.75 190.638 1645.83 190.76 1645.94 190.837C1646 190.883 1646.06 190.898 1646.1 190.959C1646.16 191.02 1646.2 191.066 1646.26 191.127C1646.36 191.203 1646.45 191.295 1646.55 191.387C1646.65 191.494 1646.79 191.555 1646.91 191.631C1647.11 191.753 1647.33 191.86 1647.54 191.936C1647.74 191.997 1648 191.997 1648.2 192.028C1648.49 192.074 1648.72 191.982 1648.99 191.952C1649.22 191.921 1649.45 191.829 1649.66 191.753C1649.85 191.692 1650.04 191.662 1650.23 191.646C1650.44 191.631 1650.62 191.585 1650.84 191.616C1650.96 191.631 1651.01 191.707 1651.08 191.784C1651.17 191.875 1651.28 191.936 1651.36 192.043C1651.51 192.227 1651.56 192.425 1651.6 192.654C1651.63 192.837 1651.59 193.036 1651.56 193.235C1651.54 193.418 1651.37 193.632 1651.27 193.754C1651.14 193.891 1651.01 194.029 1650.87 194.166C1650.81 194.227 1650.76 194.273 1650.7 194.334C1650.62 194.395 1650.58 194.456 1650.5 194.548C1650.47 194.594 1650.44 194.64 1650.41 194.685C1650.38 194.731 1650.33 194.762 1650.32 194.808C1650.27 194.884 1650.21 194.975 1650.18 195.052C1650.15 195.128 1650.09 195.22 1650.07 195.311C1650.06 195.418 1650.04 195.51 1650.03 195.617C1650 195.831 1649.92 195.983 1649.94 196.182C1649.94 196.274 1649.91 196.365 1649.91 196.472C1649.91 196.625 1649.95 196.778 1650 196.93C1650.06 197.159 1650.15 197.358 1650.27 197.572C1650.33 197.694 1650.38 197.831 1650.46 197.954C1650.53 198.076 1650.61 198.198 1650.65 198.335C1650.76 198.61 1650.91 198.916 1650.94 199.206C1650.94 199.267 1650.98 199.328 1650.98 199.374C1650.98 199.435 1650.98 199.481 1650.98 199.526C1650.98 199.588 1651.01 199.649 1650.99 199.725C1650.99 199.801 1650.96 199.832 1650.93 199.893C1650.88 200 1650.85 200.092 1650.79 200.198C1650.73 200.29 1650.67 200.397 1650.58 200.458C1650.47 200.534 1650.35 200.534 1650.23 200.565C1649.74 200.672 1649.3 200.809 1648.82 200.565C1648.64 200.458 1648.49 200.321 1648.3 200.214C1648.13 200.122 1647.98 200.015 1647.83 199.908C1647.72 199.832 1647.6 199.74 1647.48 199.71C1647.34 199.664 1647.25 199.603 1647.14 199.511C1646.96 199.343 1646.75 199.221 1646.53 199.114C1645.97 198.809 1645.39 199.068 1644.81 199.129C1644.27 199.191 1643.72 199.297 1643.19 199.297C1643.14 199.297 1643.11 199.297 1643.06 199.297L1643.1 199.267Z" fill="#FFFCDF"/>
<path d="M628.742 186.595C627.871 186.672 627.856 186.29 627.612 185.618C627.459 185.175 627.337 184.717 627.383 184.244C627.383 184.121 627.444 184.06 627.52 183.953C627.642 183.77 627.765 183.602 627.917 183.449C628.177 183.19 628.375 182.869 628.605 182.579C628.681 182.487 628.742 182.38 628.818 182.304C628.895 182.228 628.941 182.09 628.986 181.968C629.047 181.831 629.047 181.602 629.002 181.449C628.971 181.342 628.956 181.25 628.941 181.143C628.925 181.021 628.895 180.899 628.849 180.792C628.757 180.563 628.65 180.349 628.589 180.12C628.528 179.861 628.452 179.57 628.452 179.295C628.452 179.173 628.452 179.036 628.452 178.914C628.452 178.853 628.452 178.776 628.452 178.715C628.452 178.623 628.498 178.562 628.498 178.471C628.513 178.013 628.925 177.6 629.383 177.57C629.643 177.554 629.872 177.463 630.116 177.616C630.239 177.692 630.33 177.799 630.437 177.875C630.498 177.906 630.559 177.921 630.62 177.967C630.681 178.028 630.727 178.074 630.788 178.104C630.895 178.165 631.002 178.242 631.109 178.318C631.231 178.41 631.369 178.456 631.491 178.501C631.705 178.593 631.934 178.669 632.148 178.715C632.346 178.761 632.606 178.715 632.82 178.715C633.11 178.715 633.324 178.608 633.598 178.532C633.828 178.471 634.026 178.349 634.24 178.242C634.408 178.15 634.606 178.104 634.79 178.058C634.988 178.013 635.187 177.936 635.385 177.952C635.507 177.952 635.553 178.013 635.645 178.089C635.752 178.165 635.859 178.226 635.95 178.303C636.118 178.471 636.195 178.654 636.271 178.883C636.332 179.066 636.302 179.265 636.302 179.463C636.302 179.647 636.179 179.876 636.072 180.029C635.966 180.181 635.843 180.334 635.736 180.487C635.691 180.548 635.645 180.609 635.599 180.67C635.523 180.746 635.492 180.807 635.431 180.899C635.401 180.945 635.385 181.006 635.355 181.052C635.339 181.098 635.294 181.143 635.278 181.189C635.233 181.281 635.202 181.372 635.171 181.449C635.141 181.525 635.095 181.617 635.095 181.708C635.095 181.815 635.095 181.922 635.095 182.014C635.095 182.228 635.034 182.38 635.095 182.594C635.126 182.686 635.095 182.793 635.095 182.884C635.126 183.037 635.187 183.19 635.248 183.327C635.339 183.556 635.462 183.724 635.599 183.923C635.691 184.045 635.752 184.167 635.843 184.274C635.935 184.381 636.027 184.503 636.088 184.625C636.225 184.885 636.424 185.16 636.485 185.45C636.485 185.511 636.531 185.572 636.546 185.618C636.546 185.664 636.546 185.725 636.546 185.771C636.546 185.832 636.592 185.893 636.592 185.969C636.592 186.046 636.576 186.076 636.561 186.137C636.531 186.244 636.515 186.351 636.47 186.458C636.424 186.565 636.378 186.672 636.286 186.748C636.195 186.84 636.072 186.855 635.95 186.901C635.492 187.069 635.049 187.267 634.561 187.084C634.362 187.008 634.194 186.886 633.996 186.809C633.812 186.733 633.66 186.656 633.492 186.565C633.385 186.504 633.232 186.443 633.11 186.412C632.972 186.382 632.865 186.336 632.743 186.259C632.529 186.122 632.316 186.03 632.071 185.939C631.476 185.725 630.926 186.046 630.361 186.183C629.842 186.32 629.307 186.488 628.773 186.565C628.727 186.565 628.696 186.565 628.65 186.565L628.742 186.595Z" fill="#FFFCDF"/>
<path d="M1701.37 1249.07C1700.5 1249.14 1700.48 1248.76 1700.24 1248.09C1700.09 1247.65 1699.96 1247.19 1700.01 1246.71C1700.01 1246.59 1700.07 1246.53 1700.15 1246.42C1700.27 1246.24 1700.39 1246.07 1700.54 1245.92C1700.8 1245.66 1701 1245.34 1701.23 1245.05C1701.31 1244.96 1701.37 1244.85 1701.45 1244.78C1701.52 1244.7 1701.57 1244.56 1701.61 1244.44C1701.67 1244.3 1701.67 1244.07 1701.63 1243.92C1701.6 1243.81 1701.58 1243.72 1701.57 1243.61C1701.55 1243.49 1701.52 1243.37 1701.48 1243.26C1701.38 1243.03 1701.28 1242.82 1701.22 1242.59C1701.16 1242.33 1701.08 1242.04 1701.08 1241.77C1701.08 1241.64 1701.08 1241.51 1701.08 1241.39C1701.08 1241.32 1701.08 1241.25 1701.08 1241.19C1701.08 1241.09 1701.12 1241.03 1701.12 1240.94C1701.14 1240.48 1701.55 1240.07 1702.01 1240.04C1702.27 1240.03 1702.5 1239.93 1702.74 1240.09C1702.87 1240.16 1702.96 1240.27 1703.06 1240.35C1703.13 1240.38 1703.19 1240.39 1703.25 1240.44C1703.31 1240.5 1703.35 1240.55 1703.42 1240.58C1703.52 1240.64 1703.63 1240.71 1703.74 1240.79C1703.86 1240.88 1704 1240.93 1704.12 1240.97C1704.33 1241.06 1704.56 1241.14 1704.77 1241.19C1704.97 1241.23 1705.23 1241.19 1705.45 1241.19C1705.74 1241.19 1705.95 1241.08 1706.23 1241C1706.45 1240.94 1706.65 1240.82 1706.87 1240.71C1707.03 1240.62 1707.23 1240.58 1707.42 1240.53C1707.62 1240.48 1707.81 1240.41 1708.01 1240.42C1708.13 1240.42 1708.18 1240.48 1708.27 1240.56C1708.38 1240.64 1708.49 1240.7 1708.58 1240.77C1708.75 1240.94 1708.82 1241.13 1708.9 1241.35C1708.96 1241.54 1708.93 1241.74 1708.93 1241.93C1708.93 1242.12 1708.81 1242.35 1708.7 1242.5C1708.59 1242.65 1708.47 1242.81 1708.36 1242.96C1708.32 1243.02 1708.27 1243.08 1708.23 1243.14C1708.15 1243.22 1708.12 1243.28 1708.06 1243.37C1708.03 1243.42 1708.01 1243.48 1707.98 1243.52C1707.97 1243.57 1707.92 1243.61 1707.91 1243.66C1707.86 1243.75 1707.83 1243.84 1707.8 1243.92C1707.77 1244 1707.72 1244.09 1707.72 1244.18C1707.72 1244.29 1707.72 1244.39 1707.72 1244.49C1707.72 1244.7 1707.66 1244.85 1707.72 1245.07C1707.75 1245.16 1707.72 1245.26 1707.72 1245.36C1707.75 1245.51 1707.81 1245.66 1707.87 1245.8C1707.97 1246.03 1708.09 1246.2 1708.23 1246.39C1708.32 1246.52 1708.38 1246.64 1708.47 1246.75C1708.56 1246.85 1708.65 1246.97 1708.71 1247.1C1708.85 1247.36 1709.05 1247.63 1709.11 1247.92C1709.11 1247.98 1709.16 1248.04 1709.17 1248.09C1709.17 1248.14 1709.17 1248.2 1709.17 1248.24C1709.17 1248.3 1709.22 1248.36 1709.22 1248.44C1709.22 1248.52 1709.2 1248.55 1709.19 1248.61C1709.16 1248.72 1709.14 1248.82 1709.1 1248.93C1709.05 1249.04 1709 1249.14 1708.91 1249.22C1708.82 1249.31 1708.7 1249.33 1708.58 1249.37C1708.12 1249.54 1707.68 1249.74 1707.19 1249.56C1706.99 1249.48 1706.82 1249.36 1706.62 1249.28C1706.44 1249.2 1706.29 1249.13 1706.12 1249.04C1706.01 1248.98 1705.86 1248.91 1705.74 1248.88C1705.6 1248.85 1705.49 1248.81 1705.37 1248.73C1705.16 1248.59 1704.94 1248.5 1704.7 1248.41C1704.1 1248.2 1703.55 1248.52 1702.99 1248.65C1702.47 1248.79 1701.93 1248.96 1701.4 1249.04C1701.35 1249.04 1701.32 1249.04 1701.28 1249.04L1701.37 1249.07Z" fill="#FFFCDF"/>
<path d="M837.054 343.652C835.741 343.759 835.725 343.194 835.359 342.186C835.13 341.529 834.931 340.827 835.023 340.124C835.038 339.941 835.13 339.849 835.221 339.696C835.389 339.422 835.588 339.162 835.817 338.933C836.199 338.536 836.52 338.062 836.855 337.619C836.962 337.482 837.069 337.329 837.176 337.192C837.283 337.054 837.344 336.856 837.421 336.703C837.512 336.489 837.512 336.153 837.451 335.924C837.405 335.772 837.375 335.619 837.359 335.466C837.329 335.298 837.283 335.084 837.222 334.932C837.085 334.596 836.917 334.275 836.825 333.908C836.718 333.511 836.626 333.084 836.626 332.671C836.626 332.473 836.626 332.29 836.626 332.091C836.626 331.999 836.626 331.893 836.626 331.786C836.626 331.663 836.687 331.541 836.703 331.419C836.733 330.717 837.329 330.106 838.031 330.06C838.413 330.029 838.764 329.907 839.131 330.136C839.299 330.243 839.452 330.411 839.62 330.518C839.711 330.579 839.803 330.594 839.895 330.671C839.986 330.747 840.047 330.823 840.154 330.885C840.322 330.991 840.475 331.083 840.643 331.205C840.826 331.343 841.025 331.404 841.223 331.495C841.529 331.633 841.895 331.755 842.216 331.816C842.521 331.877 842.903 331.816 843.224 331.816C843.651 331.816 843.987 331.648 844.4 331.541C844.736 331.45 845.056 331.266 845.362 331.114C845.621 330.991 845.896 330.915 846.187 330.854C846.492 330.793 846.767 330.671 847.088 330.686C847.271 330.686 847.347 330.778 847.485 330.885C847.637 331.007 847.805 331.083 847.958 331.221C848.218 331.48 848.34 331.755 848.447 332.091C848.538 332.366 848.493 332.671 848.493 332.962C848.493 333.236 848.309 333.588 848.157 333.802C847.989 334.046 847.821 334.26 847.653 334.489C847.576 334.596 847.53 334.687 847.439 334.764C847.332 334.886 847.271 334.977 847.195 335.115C847.149 335.191 847.118 335.268 847.088 335.344C847.057 335.42 846.996 335.466 846.965 335.542C846.904 335.665 846.859 335.802 846.797 335.94C846.736 336.077 846.691 336.199 846.675 336.337C846.675 336.489 846.675 336.642 846.675 336.81C846.675 337.131 846.584 337.375 846.675 337.681C846.706 337.818 846.675 337.971 846.691 338.108C846.736 338.337 846.828 338.566 846.92 338.78C847.057 339.116 847.24 339.376 847.454 339.681C847.576 339.864 847.683 340.048 847.821 340.216C847.958 340.384 848.096 340.552 848.187 340.75C848.401 341.147 848.691 341.56 848.783 341.987C848.798 342.064 848.844 342.17 848.859 342.232C848.874 342.308 848.859 342.384 848.859 342.461C848.859 342.568 848.92 342.644 848.936 342.751C848.936 342.858 848.905 342.919 848.874 343.01C848.829 343.178 848.813 343.331 848.737 343.484C848.661 343.637 848.599 343.789 848.462 343.911C848.309 344.049 848.141 344.064 847.973 344.141C847.286 344.4 846.629 344.706 845.896 344.415C845.606 344.309 845.347 344.125 845.041 344.003C844.782 343.896 844.537 343.774 844.278 343.637C844.11 343.545 843.896 343.438 843.713 343.407C843.499 343.362 843.361 343.301 843.178 343.178C842.857 342.965 842.537 342.827 842.185 342.705C841.284 342.369 840.475 342.858 839.62 343.072C838.826 343.27 838.047 343.545 837.237 343.637C837.176 343.637 837.115 343.637 837.054 343.652Z" fill="#FFFCDF"/>
<path d="M90.054 747.652C88.7406 747.759 88.7254 747.194 88.3588 746.186C88.1298 745.529 87.9312 744.827 88.0229 744.124C88.0381 743.941 88.1298 743.849 88.2214 743.696C88.3894 743.422 88.5879 743.162 88.817 742.933C89.1988 742.536 89.5195 742.062 89.8555 741.619C89.9624 741.482 90.0693 741.329 90.1762 741.192C90.2831 741.054 90.3442 740.856 90.4205 740.703C90.5122 740.489 90.5122 740.153 90.4511 739.924C90.4053 739.772 90.3747 739.619 90.3594 739.466C90.3289 739.298 90.2831 739.084 90.222 738.932C90.0846 738.596 89.9165 738.275 89.8249 737.908C89.718 737.511 89.6264 737.084 89.6264 736.671C89.6264 736.473 89.6264 736.29 89.6264 736.091C89.6264 735.999 89.6264 735.893 89.6264 735.786C89.6264 735.663 89.6875 735.541 89.7028 735.419C89.7333 734.717 90.3289 734.106 91.0314 734.06C91.4132 734.029 91.7645 733.907 92.131 734.136C92.299 734.243 92.4517 734.411 92.6197 734.518C92.7113 734.579 92.8029 734.594 92.8946 734.671C92.9862 734.747 93.0473 734.823 93.1542 734.885C93.3222 734.991 93.4749 735.083 93.6429 735.205C93.8261 735.343 94.0247 735.404 94.2232 735.495C94.5287 735.633 94.8952 735.755 95.2159 735.816C95.5213 735.877 95.9031 735.816 96.2238 735.816C96.6514 735.816 96.9874 735.648 97.3998 735.541C97.7358 735.45 98.0564 735.266 98.3619 735.114C98.6215 734.991 98.8964 734.915 99.1866 734.854C99.492 734.793 99.7669 734.671 100.088 734.686C100.271 734.686 100.347 734.778 100.485 734.885C100.637 735.007 100.805 735.083 100.958 735.221C101.218 735.48 101.34 735.755 101.447 736.091C101.538 736.366 101.493 736.671 101.493 736.962C101.493 737.236 101.309 737.588 101.157 737.802C100.989 738.046 100.821 738.26 100.653 738.489C100.576 738.596 100.53 738.687 100.439 738.764C100.332 738.886 100.271 738.977 100.195 739.115C100.149 739.191 100.118 739.268 100.088 739.344C100.057 739.42 99.996 739.466 99.9654 739.542C99.9044 739.665 99.8585 739.802 99.7974 739.94C99.7363 740.077 99.6905 740.199 99.6753 740.337C99.6753 740.489 99.6753 740.642 99.6753 740.81C99.6753 741.131 99.5836 741.375 99.6753 741.681C99.7058 741.818 99.6753 741.971 99.6906 742.108C99.7364 742.337 99.828 742.566 99.9196 742.78C100.057 743.116 100.24 743.376 100.454 743.681C100.576 743.864 100.683 744.048 100.821 744.216C100.958 744.384 101.096 744.552 101.187 744.75C101.401 745.147 101.691 745.56 101.783 745.987C101.798 746.064 101.844 746.17 101.859 746.232C101.874 746.308 101.859 746.384 101.859 746.461C101.859 746.568 101.92 746.644 101.936 746.751C101.936 746.858 101.905 746.919 101.874 747.01C101.829 747.178 101.813 747.331 101.737 747.484C101.661 747.637 101.599 747.789 101.462 747.911C101.309 748.049 101.141 748.064 100.973 748.141C100.286 748.4 99.6294 748.706 98.8964 748.415C98.6062 748.309 98.3466 748.125 98.0412 748.003C97.7816 747.896 97.5372 747.774 97.2776 747.637C97.1096 747.545 96.8958 747.438 96.7125 747.407C96.4987 747.362 96.3613 747.301 96.178 747.178C95.8573 746.965 95.5366 746.827 95.1853 746.705C94.2843 746.369 93.4749 746.858 92.6197 747.072C91.8256 747.27 91.0467 747.545 90.2373 747.637C90.1762 747.637 90.1151 747.637 90.054 747.652Z" fill="#FFFCDF"/>
<path d="M488.577 89.4207C487.706 89.4971 487.691 89.1153 487.447 88.4433C487.294 88.0004 487.172 87.5423 487.218 87.0688C487.218 86.9467 487.279 86.8856 487.355 86.7787C487.477 86.5954 487.6 86.4274 487.752 86.2747C488.012 86.0151 488.21 85.6944 488.44 85.4042C488.516 85.3126 488.577 85.2057 488.653 85.1293C488.73 85.053 488.775 84.9155 488.821 84.7933C488.882 84.6559 488.882 84.4268 488.837 84.2741C488.806 84.1672 488.791 84.0756 488.775 83.9687C488.76 83.8465 488.73 83.7243 488.684 83.6174C488.592 83.3883 488.485 83.1745 488.424 82.9455C488.363 82.6858 488.287 82.3957 488.287 82.1208C488.287 81.9986 488.287 81.8612 488.287 81.739C488.287 81.6779 488.287 81.6015 488.287 81.5404C488.287 81.4488 488.333 81.3877 488.333 81.2961C488.348 80.8379 488.76 80.4256 489.218 80.3951C489.478 80.3798 489.707 80.2882 489.951 80.4409C490.074 80.5172 490.165 80.6241 490.272 80.7005C490.333 80.731 490.394 80.7463 490.455 80.7921C490.516 80.8532 490.562 80.899 490.623 80.9296C490.73 80.9907 490.837 81.067 490.944 81.1434C491.066 81.235 491.204 81.2808 491.326 81.3266C491.54 81.4183 491.769 81.4946 491.983 81.5404C492.181 81.5863 492.441 81.5404 492.655 81.5404C492.945 81.5404 493.159 81.4335 493.433 81.3572C493.662 81.2961 493.861 81.1739 494.075 81.067C494.243 80.9754 494.441 80.9296 494.625 80.8838C494.823 80.8379 495.022 80.7616 495.22 80.7769C495.342 80.7769 495.388 80.8379 495.48 80.9143C495.587 80.9907 495.694 81.0517 495.785 81.1281C495.953 81.2961 496.03 81.4794 496.106 81.7084C496.167 81.8917 496.137 82.0902 496.137 82.2888C496.137 82.472 496.014 82.7011 495.907 82.8538C495.801 83.0065 495.678 83.1593 495.571 83.312C495.526 83.3731 495.48 83.4342 495.434 83.4952C495.358 83.5716 495.327 83.6327 495.266 83.7243C495.235 83.7701 495.22 83.8312 495.19 83.877C495.174 83.9229 495.129 83.9687 495.113 84.0145C495.068 84.1061 495.037 84.1977 495.006 84.2741C494.976 84.3505 494.93 84.4421 494.93 84.5337C494.93 84.6406 494.93 84.7475 494.93 84.8392C494.93 85.053 494.869 85.2057 494.93 85.4195C494.961 85.5111 494.93 85.618 494.93 85.7097C494.961 85.8624 495.022 86.0151 495.083 86.1525C495.174 86.3816 495.297 86.5496 495.434 86.7481C495.526 86.8703 495.587 86.9925 495.678 87.0994C495.77 87.2063 495.862 87.3285 495.923 87.4506C496.06 87.7103 496.259 87.9852 496.32 88.2753C496.32 88.3364 496.366 88.3975 496.381 88.4433C496.381 88.4891 496.381 88.5502 496.381 88.596C496.381 88.6571 496.427 88.7182 496.427 88.7946C496.427 88.8709 496.411 88.9015 496.396 88.9626C496.366 89.0695 496.35 89.1764 496.305 89.2833C496.259 89.3902 496.213 89.4971 496.121 89.5734C496.03 89.6651 495.907 89.6803 495.785 89.7261C495.327 89.8941 494.884 90.0927 494.396 89.9094C494.197 89.8331 494.029 89.7109 493.83 89.6345C493.647 89.5582 493.494 89.4818 493.326 89.3902C493.22 89.3291 493.067 89.268 492.945 89.2374C492.807 89.2069 492.7 89.1611 492.578 89.0847C492.364 88.9473 492.151 88.8557 491.906 88.764C491.311 88.5502 490.761 88.8709 490.196 89.0084C489.677 89.1458 489.142 89.3138 488.608 89.3902C488.562 89.3902 488.531 89.3902 488.485 89.3902L488.577 89.4207Z" fill="#FBDDEA"/>
<path d="M58.3689 180.067C57.4985 180.143 57.4832 179.761 57.2388 179.089C57.0861 178.647 56.9639 178.188 57.0098 177.715C57.0098 177.593 57.0708 177.532 57.1472 177.425C57.2694 177.242 57.3915 177.074 57.5443 176.921C57.8039 176.661 58.0024 176.341 58.2315 176.05C58.3079 175.959 58.369 175.852 58.4453 175.775C58.5217 175.699 58.5675 175.562 58.6133 175.439C58.6744 175.302 58.6744 175.073 58.6286 174.92C58.598 174.813 58.5828 174.722 58.5675 174.615C58.5522 174.493 58.5217 174.37 58.4758 174.264C58.3842 174.034 58.2773 173.821 58.2162 173.592C58.1551 173.332 58.0788 173.042 58.0788 172.767C58.0788 172.645 58.0788 172.507 58.0788 172.385C58.0788 172.324 58.0788 172.248 58.0788 172.187C58.0788 172.095 58.1246 172.034 58.1246 171.942C58.1399 171.484 58.5522 171.072 59.0104 171.041C59.27 171.026 59.4991 170.934 59.7434 171.087C59.8656 171.163 59.9572 171.27 60.0641 171.347C60.1252 171.377 60.1863 171.392 60.2474 171.438C60.3085 171.499 60.3543 171.545 60.4154 171.576C60.5223 171.637 60.6292 171.713 60.7361 171.789C60.8583 171.881 60.9957 171.927 61.1179 171.973C61.3317 172.064 61.5608 172.141 61.7746 172.187C61.9731 172.232 62.2327 172.187 62.4465 172.187C62.7367 172.187 62.9505 172.08 63.2254 172.003C63.4545 171.942 63.653 171.82 63.8668 171.713C64.0348 171.622 64.2333 171.576 64.4166 171.53C64.6151 171.484 64.8137 171.408 65.0122 171.423C65.1344 171.423 65.1802 171.484 65.2718 171.56C65.3787 171.637 65.4856 171.698 65.5773 171.774C65.7452 171.942 65.8216 172.125 65.898 172.355C65.959 172.538 65.9285 172.736 65.9285 172.935C65.9285 173.118 65.8063 173.347 65.6994 173.5C65.5925 173.653 65.4704 173.805 65.3635 173.958C65.3176 174.019 65.2718 174.08 65.226 174.141C65.1496 174.218 65.1191 174.279 65.058 174.37C65.0275 174.416 65.0122 174.477 64.9817 174.523C64.9664 174.569 64.9206 174.615 64.9053 174.661C64.8595 174.752 64.8289 174.844 64.7984 174.92C64.7678 174.997 64.722 175.088 64.722 175.18C64.722 175.287 64.722 175.394 64.722 175.485C64.722 175.699 64.6609 175.852 64.722 176.066C64.7526 176.157 64.722 176.264 64.722 176.356C64.7526 176.508 64.8137 176.661 64.8748 176.799C64.9664 177.028 65.0886 177.196 65.226 177.394C65.3176 177.516 65.3787 177.639 65.4704 177.746C65.562 177.852 65.6536 177.975 65.7147 178.097C65.8522 178.356 66.0507 178.631 66.1118 178.921C66.1118 178.983 66.1576 179.044 66.1729 179.089C66.1729 179.135 66.1729 179.196 66.1729 179.242C66.1729 179.303 66.2187 179.364 66.2187 179.441C66.2187 179.517 66.2034 179.548 66.1881 179.609C66.1576 179.716 66.1423 179.822 66.0965 179.929C66.0507 180.036 66.0049 180.143 65.9132 180.22C65.8216 180.311 65.6994 180.326 65.5773 180.372C65.1191 180.54 64.6762 180.739 64.1875 180.556C63.989 180.479 63.821 180.357 63.6225 180.281C63.4392 180.204 63.2865 180.128 63.1185 180.036C63.0116 179.975 62.8589 179.914 62.7367 179.884C62.5992 179.853 62.4923 179.807 62.3702 179.731C62.1564 179.593 61.9426 179.502 61.6982 179.41C61.1026 179.196 60.5528 179.517 59.9878 179.654C59.4685 179.792 58.934 179.96 58.3995 180.036C58.3537 180.036 58.3231 180.036 58.2773 180.036L58.3689 180.067Z" fill="#FBDDEA"/>
<path d="M1020.24 121.934C1020.24 121.934 1020.25 121.873 1020.27 121.858C1020.54 121.11 1020.71 120.285 1021.38 119.766C1021.98 119.292 1022.85 119.338 1023.55 119.277C1024.47 119.201 1025.29 119.17 1026.13 118.773C1027.52 118.116 1027.26 116.192 1026.24 115.337C1025.92 115.077 1025.52 114.864 1025.15 114.665C1024.66 114.39 1024.02 114.283 1023.47 114.161C1023.29 114.115 1023.11 114.085 1022.92 114.024C1022.82 113.978 1022.69 113.917 1022.59 113.856C1022.39 113.733 1022.16 113.596 1022.04 113.367C1021.92 113.138 1021.96 112.848 1021.93 112.603C1021.85 112.069 1021.79 111.55 1021.67 111.03C1021.61 110.755 1021.56 110.435 1021.4 110.206C1020.86 109.534 1019.91 109.915 1019.26 110.16C1019.01 110.251 1018.8 110.389 1018.63 110.587C1018.42 110.832 1018.42 111.107 1018.37 111.412C1018.3 112.023 1018.3 112.695 1017.91 113.214C1017.62 113.611 1017.18 113.275 1016.8 113.199C1016.37 113.107 1016.01 113.352 1015.68 113.596C1015.42 113.81 1015.07 114.039 1014.92 114.344C1014.78 114.604 1014.78 114.955 1014.77 115.261C1014.75 115.719 1014.86 116.116 1015.13 116.482C1015.5 116.971 1015.96 117.353 1016.26 117.903C1016.4 118.162 1016.66 118.407 1016.75 118.697C1016.86 119.018 1016.8 119.415 1016.75 119.751C1016.71 120.209 1016.71 120.636 1016.75 121.094C1016.8 121.553 1016.75 122.102 1016.91 122.545C1016.97 122.744 1017.09 122.897 1017.2 123.08C1017.35 123.324 1017.47 123.569 1017.61 123.813C1017.9 124.302 1018.23 124.332 1018.71 124.088C1019.12 123.874 1019.46 123.675 1019.64 123.217C1019.81 122.805 1020.01 122.393 1020.16 121.965L1020.24 121.934Z" fill="#FFFCDF"/>
<path d="M741.469 217.106C741.469 217.106 741.484 217.045 741.499 217.03C741.774 216.281 741.942 215.457 742.614 214.937C743.21 214.464 744.08 214.51 744.783 214.449C745.699 214.372 746.524 214.342 747.364 213.945C748.753 213.288 748.494 211.364 747.471 210.509C747.15 210.249 746.753 210.035 746.386 209.837C745.898 209.562 745.256 209.455 744.706 209.333C744.523 209.287 744.34 209.256 744.157 209.195C744.05 209.149 743.927 209.088 743.821 209.027C743.622 208.905 743.393 208.768 743.271 208.539C743.149 208.309 743.194 208.019 743.164 207.775C743.088 207.24 743.026 206.721 742.904 206.202C742.843 205.927 742.797 205.606 742.629 205.377C742.095 204.705 741.148 205.087 740.491 205.331C740.247 205.423 740.033 205.561 739.865 205.759C739.651 206.003 739.651 206.278 739.606 206.584C739.529 207.195 739.529 207.867 739.147 208.386C738.857 208.783 738.414 208.447 738.033 208.371C737.605 208.279 737.238 208.523 736.918 208.768C736.658 208.981 736.307 209.211 736.154 209.516C736.017 209.776 736.017 210.127 736.001 210.432C735.986 210.89 736.093 211.287 736.368 211.654C736.734 212.143 737.193 212.525 737.498 213.074C737.635 213.334 737.895 213.578 737.987 213.868C738.094 214.189 738.033 214.586 737.987 214.922C737.941 215.38 737.941 215.808 737.987 216.266C738.033 216.724 737.987 217.274 738.139 217.717C738.201 217.915 738.323 218.068 738.43 218.251C738.582 218.496 738.705 218.74 738.842 218.984C739.132 219.473 739.468 219.504 739.942 219.259C740.354 219.046 740.69 218.847 740.873 218.389C741.041 217.977 741.24 217.564 741.392 217.137L741.469 217.106Z" fill="#FFFCDF"/>
<path d="M1251.92 157.282C1252.08 156.793 1252.14 156.274 1251.99 155.755C1251.92 155.526 1251.82 155.312 1251.7 155.098C1251.57 154.884 1251.44 154.686 1251.27 154.503C1250.9 154.075 1250.47 153.724 1249.95 153.479C1249.47 153.25 1248.98 153.098 1248.44 153.037C1248.21 153.006 1247.98 152.991 1247.74 153.006C1247.5 153.021 1247.27 153.082 1247.04 153.174C1246.67 153.311 1246.33 153.464 1246.01 153.693C1245.69 153.922 1245.54 154.212 1245.4 154.564C1245.28 154.869 1245.16 155.175 1245.13 155.495C1245.11 155.648 1245.1 155.801 1245.1 155.953C1245.1 156.106 1245.11 156.259 1245.11 156.412C1245.11 156.519 1245.13 156.625 1245.13 156.748C1245.13 156.839 1245.13 156.931 1245.13 157.022C1245.13 157.16 1245.16 157.313 1245.16 157.45C1245.16 157.542 1245.17 157.633 1245.2 157.71C1245.24 157.786 1245.27 157.832 1245.3 157.908C1245.37 158.076 1245.49 158.198 1245.63 158.321C1245.66 158.351 1245.71 158.382 1245.74 158.412C1245.77 158.443 1245.78 158.473 1245.82 158.504C1245.85 158.534 1245.89 158.565 1245.92 158.595C1246.14 158.794 1246.41 158.931 1246.67 159.038C1246.93 159.145 1247.24 159.252 1247.53 159.329C1247.74 159.374 1247.95 159.42 1248.17 159.435C1248.88 159.497 1249.62 159.359 1250.27 159.069C1250.53 158.962 1250.78 158.809 1251.04 158.718C1251.15 158.687 1251.22 158.595 1251.3 158.504C1251.44 158.351 1251.51 158.153 1251.6 157.969C1251.71 157.756 1251.8 157.526 1251.88 157.313L1251.92 157.282Z" fill="#FFFCDF"/>
<path d="M1240.3 184.619C1239.2 184.619 1238.01 184.527 1236.85 184.695C1235.38 184.894 1234.74 185.84 1235.09 187.352C1235.4 188.712 1236.53 188.803 1237.55 188.788C1239.51 188.788 1241.05 186.528 1240.3 184.619Z" fill="#FFFCDF"/>
<path d="M1081.19 120.346C1080.21 118.987 1078.76 118.559 1077.93 119.491C1077.55 119.919 1077.47 121.308 1077.78 121.522C1079.25 122.545 1080.13 121.232 1081.19 120.331V120.346Z" fill="#FFFCDF"/>
<path d="M1419.55 214.012C1419.89 213.936 1420.23 213.875 1420.52 213.692C1420.79 213.508 1421.39 213.05 1421.54 212.729C1421.92 211.92 1421.04 210.652 1420.45 210.271C1420.07 210.011 1419.78 209.935 1419.29 210.057C1418.81 210.179 1418.7 210.484 1418.48 210.958C1418.32 211.34 1418.04 211.828 1418.01 212.241C1417.94 213.111 1418.23 214.47 1419.36 214.089C1419.42 214.073 1419.49 214.043 1419.55 214.028V214.012Z" fill="#FFFCDF"/>
<path d="M1398.55 287.012C1398.89 286.936 1399.23 286.875 1399.52 286.692C1399.79 286.508 1400.39 286.05 1400.54 285.729C1400.92 284.92 1400.04 283.652 1399.45 283.271C1399.07 283.011 1398.78 282.935 1398.29 283.057C1397.81 283.179 1397.7 283.484 1397.48 283.958C1397.32 284.34 1397.04 284.828 1397.01 285.241C1396.94 286.111 1397.23 287.47 1398.36 287.089C1398.42 287.073 1398.49 287.043 1398.55 287.028V287.012Z" fill="#FFFCDF"/>
<path d="M955.987 213.567C955.788 213.399 955.62 213.185 955.407 213.063C954.948 212.804 954.643 212.452 954.521 211.948C954.338 211.2 954.139 210.452 954.032 209.688C953.879 208.573 954.277 207.581 955.086 206.832C955.697 206.252 956.399 205.779 957.071 205.305C957.774 204.816 958.614 204.923 959.148 205.565C960.217 206.878 960.599 208.436 960.599 210.07C960.599 210.925 960.171 211.673 959.591 212.33C959.225 212.742 958.889 213.17 958.522 213.582H955.987V213.567Z" fill="#FFFCDF"/>
<path d="M1053.71 243.285C1055.91 243.346 1057.9 245.041 1058.32 247.225C1058.37 247.5 1058.35 247.79 1058.31 248.065C1058.26 248.34 1058.05 248.584 1058.03 248.859C1057.87 251.012 1056.26 252.005 1054.66 252.876C1053.67 253.41 1052.44 253.15 1051.42 252.646C1050.37 252.112 1049.57 251.257 1049.53 250.035C1049.48 248.844 1049.53 247.622 1049.74 246.446C1050.06 244.644 1051.96 243.239 1053.73 243.285H1053.71Z" fill="#FFFCDF"/>
<path d="M968.925 58.7264C968.665 58.1461 968.405 57.6421 968.207 57.1381C967.596 55.5957 968.39 53.6714 969.902 53.0758C970.101 52.9995 970.36 52.9842 970.589 53.0147C970.91 53.0606 971.215 53.2286 971.536 53.2438C972.315 53.2896 972.697 53.8089 972.911 54.435C973.155 55.1834 973.231 55.9775 973.124 56.7716C973.094 57.0312 972.956 57.3061 972.819 57.5352C972.62 57.8406 972.376 58.1308 972.116 58.4057C971.261 59.3373 970.757 59.4442 969.536 58.9555C969.368 58.8944 969.184 58.8333 968.94 58.7417L968.925 58.7264Z" fill="#FFFCDF"/>
<path d="M966.925 268.726C966.665 268.146 966.405 267.642 966.207 267.138C965.596 265.596 966.39 263.671 967.902 263.076C968.101 262.999 968.36 262.984 968.589 263.015C968.91 263.061 969.215 263.229 969.536 263.244C970.315 263.29 970.697 263.809 970.911 264.435C971.155 265.183 971.231 265.977 971.124 266.772C971.094 267.031 970.956 267.306 970.819 267.535C970.62 267.841 970.376 268.131 970.116 268.406C969.261 269.337 968.757 269.444 967.536 268.955C967.368 268.894 967.184 268.833 966.94 268.742L966.925 268.726Z" fill="#FFFCDF"/>
<path d="M1216.75 44.6291C1216 44.4764 1215.31 44.3695 1214.64 44.2015C1212.01 43.5448 1211.33 41.1166 1212.67 39.3909C1213.22 38.6884 1213.86 38.0317 1214.52 37.4056C1214.75 37.1917 1215.14 37.1001 1215.47 37.0543C1215.95 36.9932 1216.44 36.9932 1216.93 37.0085C1218.6 37.0696 1219.74 38.1844 1219.63 39.8185C1219.57 40.8417 1219.24 41.8649 1218.95 42.8576C1218.86 43.163 1218.53 43.4227 1218.26 43.6212C1217.76 43.9877 1217.22 44.3084 1216.73 44.6291H1216.75Z" fill="#FFFCDF"/>
<path d="M1535.83 322.444C1537.33 321.146 1538.66 319.711 1540.92 320.459C1542.69 321.528 1542.03 323.208 1541.88 324.75C1541.87 324.949 1541.76 325.147 1541.68 325.346C1541.21 326.675 1539.8 327.53 1538.38 327.362C1537.04 327.194 1535.99 326.14 1535.83 324.704C1535.76 323.941 1535.83 323.177 1535.83 322.429V322.444Z" fill="#FBDDEA"/>
<path d="M964.034 998.191C965.531 996.893 966.859 995.458 969.119 996.206C970.891 997.275 970.234 998.955 970.082 1000.5C970.066 1000.7 969.959 1000.89 969.883 1001.09C969.41 1002.42 968.005 1003.28 966.584 1003.11C965.24 1002.94 964.187 1001.89 964.034 1000.45C963.958 999.688 964.034 998.924 964.034 998.176V998.191Z" fill="#FBDDEA"/>
<path d="M1475.74 230.032C1475.6 231.147 1475.23 232.537 1473.65 232.781C1473.51 232.796 1473.37 232.827 1473.23 232.857C1471.43 233.224 1470.62 232.796 1469.95 231.147C1469.92 231.086 1469.89 231.025 1469.87 230.948C1469.43 229.559 1470.7 227.253 1472.12 226.947C1474.47 226.428 1475.46 227.543 1475.74 230.017V230.032Z" fill="#FFFCDF"/>
<path d="M1587.05 231.965C1587.08 231.538 1587.12 231.095 1587.15 230.652C1587.18 230.011 1587.53 229.644 1588.11 229.43C1588.37 229.339 1588.63 229.232 1588.89 229.14C1589.79 228.835 1590.4 229.018 1590.92 229.797C1591.37 230.453 1591.52 231.232 1591.53 232.011C1591.53 232.301 1591.34 232.668 1591.11 232.866C1590.74 233.202 1590.28 233.416 1589.87 233.691C1589.03 234.241 1588.25 233.874 1587.52 233.477C1586.95 233.172 1586.95 232.576 1587.05 231.981V231.965Z" fill="#FFFCDF"/>
<path d="M1287.79 260.462C1288.02 260.737 1288.25 261.104 1288.57 261.363C1290 262.57 1289.61 264.082 1288.84 265.593C1288.28 266.708 1286.35 267.166 1285.32 266.495C1285.09 266.342 1284.86 266.097 1284.8 265.853C1284.58 265.059 1284.22 264.311 1284.31 263.41C1284.57 261.073 1285.22 260.462 1287.8 260.462H1287.79Z" fill="#FFFCDF"/>
<path d="M977.567 146.904C976.467 146.904 975.276 146.812 974.115 146.98C972.649 147.179 972.008 148.126 972.359 149.638C972.664 150.997 973.794 151.088 974.818 151.073C976.772 151.073 978.315 148.813 977.567 146.904Z" fill="#FFFCDF"/>
<path d="M989.005 177.28C989.341 177.203 989.677 177.142 989.967 176.959C990.242 176.776 990.838 176.318 990.99 175.997C991.372 175.188 990.486 173.92 989.906 173.538C989.524 173.279 989.234 173.202 988.745 173.324C988.257 173.447 988.15 173.752 987.936 174.225C987.768 174.607 987.493 175.096 987.463 175.508C987.386 176.379 987.676 177.738 988.807 177.356C988.868 177.341 988.944 177.31 989.005 177.295V177.28Z" fill="#FFFCDF"/>
<path d="M833.919 110.756C834.255 110.679 834.591 110.618 834.881 110.435C835.156 110.252 835.752 109.794 835.904 109.473C836.286 108.664 835.401 107.396 834.82 107.014C834.438 106.755 834.148 106.678 833.66 106.8C833.171 106.923 833.064 107.228 832.85 107.701C832.682 108.083 832.407 108.572 832.377 108.984C832.3 109.855 832.59 111.214 833.721 110.832C833.782 110.817 833.858 110.786 833.919 110.771V110.756Z" fill="#FFFCDF"/>
<path d="M712.142 98.6299C712.478 98.5536 712.814 98.4925 713.104 98.3092C713.379 98.126 713.974 97.6678 714.127 97.3471C714.509 96.5377 713.623 95.2701 713.043 94.8883C712.661 94.6287 712.371 94.5523 711.882 94.6745C711.393 94.7967 711.287 95.1021 711.073 95.5756C710.905 95.9574 710.63 96.446 710.599 96.8584C710.523 97.7289 710.813 99.0881 711.943 98.7063C712.004 98.691 712.081 98.6605 712.142 98.6452V98.6299Z" fill="#FFFCDF"/>
<path d="M1018.5 182C1018.73 182.275 1018.95 182.641 1019.28 182.901C1020.71 184.108 1020.31 185.619 1019.55 187.131C1018.99 188.246 1017.06 188.704 1016.02 188.032C1015.79 187.88 1015.56 187.635 1015.5 187.391C1015.29 186.597 1014.92 185.849 1015.01 184.947C1015.27 182.611 1015.93 182 1018.51 182H1018.5Z" fill="#FFFCDF"/>
<path d="M1175.49 247.79C1176.74 248.951 1176.76 250.34 1176.21 251.852C1175.99 252.448 1175.6 252.845 1174.99 252.845C1174.36 252.845 1173.69 252.83 1173.14 252.585C1171.73 251.974 1171.43 250.722 1172.34 249.5C1173.11 248.477 1173.93 247.469 1175.49 247.805V247.79Z" fill="#FFFCDF"/>
<path d="M1598.37 165.067C1597.5 165.143 1597.48 164.761 1597.24 164.089C1597.09 163.647 1596.96 163.188 1597.01 162.715C1597.01 162.593 1597.07 162.532 1597.15 162.425C1597.27 162.242 1597.39 162.074 1597.54 161.921C1597.8 161.661 1598 161.341 1598.23 161.05C1598.31 160.959 1598.37 160.852 1598.45 160.775C1598.52 160.699 1598.57 160.562 1598.61 160.439C1598.67 160.302 1598.67 160.073 1598.63 159.92C1598.6 159.813 1598.58 159.722 1598.57 159.615C1598.55 159.493 1598.52 159.37 1598.48 159.264C1598.38 159.034 1598.28 158.821 1598.22 158.592C1598.16 158.332 1598.08 158.042 1598.08 157.767C1598.08 157.645 1598.08 157.507 1598.08 157.385C1598.08 157.324 1598.08 157.248 1598.08 157.187C1598.08 157.095 1598.12 157.034 1598.12 156.942C1598.14 156.484 1598.55 156.072 1599.01 156.041C1599.27 156.026 1599.5 155.934 1599.74 156.087C1599.87 156.163 1599.96 156.27 1600.06 156.347C1600.13 156.377 1600.19 156.392 1600.25 156.438C1600.31 156.499 1600.35 156.545 1600.42 156.576C1600.52 156.637 1600.63 156.713 1600.74 156.789C1600.86 156.881 1601 156.927 1601.12 156.973C1601.33 157.064 1601.56 157.141 1601.77 157.187C1601.97 157.232 1602.23 157.187 1602.45 157.187C1602.74 157.187 1602.95 157.08 1603.23 157.003C1603.45 156.942 1603.65 156.82 1603.87 156.713C1604.03 156.622 1604.23 156.576 1604.42 156.53C1604.62 156.484 1604.81 156.408 1605.01 156.423C1605.13 156.423 1605.18 156.484 1605.27 156.56C1605.38 156.637 1605.49 156.698 1605.58 156.774C1605.75 156.942 1605.82 157.125 1605.9 157.355C1605.96 157.538 1605.93 157.736 1605.93 157.935C1605.93 158.118 1605.81 158.347 1605.7 158.5C1605.59 158.653 1605.47 158.805 1605.36 158.958C1605.32 159.019 1605.27 159.08 1605.23 159.141C1605.15 159.218 1605.12 159.279 1605.06 159.37C1605.03 159.416 1605.01 159.477 1604.98 159.523C1604.97 159.569 1604.92 159.615 1604.91 159.661C1604.86 159.752 1604.83 159.844 1604.8 159.92C1604.77 159.997 1604.72 160.088 1604.72 160.18C1604.72 160.287 1604.72 160.394 1604.72 160.485C1604.72 160.699 1604.66 160.852 1604.72 161.066C1604.75 161.157 1604.72 161.264 1604.72 161.356C1604.75 161.508 1604.81 161.661 1604.87 161.799C1604.97 162.028 1605.09 162.196 1605.23 162.394C1605.32 162.516 1605.38 162.639 1605.47 162.746C1605.56 162.852 1605.65 162.975 1605.71 163.097C1605.85 163.356 1606.05 163.631 1606.11 163.921C1606.11 163.983 1606.16 164.044 1606.17 164.089C1606.17 164.135 1606.17 164.196 1606.17 164.242C1606.17 164.303 1606.22 164.364 1606.22 164.441C1606.22 164.517 1606.2 164.548 1606.19 164.609C1606.16 164.716 1606.14 164.822 1606.1 164.929C1606.05 165.036 1606 165.143 1605.91 165.22C1605.82 165.311 1605.7 165.326 1605.58 165.372C1605.12 165.54 1604.68 165.739 1604.19 165.556C1603.99 165.479 1603.82 165.357 1603.62 165.281C1603.44 165.204 1603.29 165.128 1603.12 165.036C1603.01 164.975 1602.86 164.914 1602.74 164.884C1602.6 164.853 1602.49 164.807 1602.37 164.731C1602.16 164.593 1601.94 164.502 1601.7 164.41C1601.1 164.196 1600.55 164.517 1599.99 164.654C1599.47 164.792 1598.93 164.96 1598.4 165.036C1598.35 165.036 1598.32 165.036 1598.28 165.036L1598.37 165.067Z" fill="#FBDDEA"/>
<path d="M1333.37 140.067C1332.5 140.143 1332.48 139.761 1332.24 139.089C1332.09 138.647 1331.96 138.188 1332.01 137.715C1332.01 137.593 1332.07 137.532 1332.15 137.425C1332.27 137.242 1332.39 137.074 1332.54 136.921C1332.8 136.661 1333 136.341 1333.23 136.05C1333.31 135.959 1333.37 135.852 1333.45 135.775C1333.52 135.699 1333.57 135.562 1333.61 135.439C1333.67 135.302 1333.67 135.073 1333.63 134.92C1333.6 134.813 1333.58 134.722 1333.57 134.615C1333.55 134.493 1333.52 134.37 1333.48 134.264C1333.38 134.034 1333.28 133.821 1333.22 133.592C1333.16 133.332 1333.08 133.042 1333.08 132.767C1333.08 132.645 1333.08 132.507 1333.08 132.385C1333.08 132.324 1333.08 132.248 1333.08 132.187C1333.08 132.095 1333.12 132.034 1333.12 131.942C1333.14 131.484 1333.55 131.072 1334.01 131.041C1334.27 131.026 1334.5 130.934 1334.74 131.087C1334.87 131.163 1334.96 131.27 1335.06 131.347C1335.13 131.377 1335.19 131.392 1335.25 131.438C1335.31 131.499 1335.35 131.545 1335.42 131.576C1335.52 131.637 1335.63 131.713 1335.74 131.789C1335.86 131.881 1336 131.927 1336.12 131.973C1336.33 132.064 1336.56 132.141 1336.77 132.187C1336.97 132.232 1337.23 132.187 1337.45 132.187C1337.74 132.187 1337.95 132.08 1338.23 132.003C1338.45 131.942 1338.65 131.82 1338.87 131.713C1339.03 131.622 1339.23 131.576 1339.42 131.53C1339.62 131.484 1339.81 131.408 1340.01 131.423C1340.13 131.423 1340.18 131.484 1340.27 131.56C1340.38 131.637 1340.49 131.698 1340.58 131.774C1340.75 131.942 1340.82 132.125 1340.9 132.355C1340.96 132.538 1340.93 132.736 1340.93 132.935C1340.93 133.118 1340.81 133.347 1340.7 133.5C1340.59 133.653 1340.47 133.805 1340.36 133.958C1340.32 134.019 1340.27 134.08 1340.23 134.141C1340.15 134.218 1340.12 134.279 1340.06 134.37C1340.03 134.416 1340.01 134.477 1339.98 134.523C1339.97 134.569 1339.92 134.615 1339.91 134.661C1339.86 134.752 1339.83 134.844 1339.8 134.92C1339.77 134.997 1339.72 135.088 1339.72 135.18C1339.72 135.287 1339.72 135.394 1339.72 135.485C1339.72 135.699 1339.66 135.852 1339.72 136.066C1339.75 136.157 1339.72 136.264 1339.72 136.356C1339.75 136.508 1339.81 136.661 1339.87 136.799C1339.97 137.028 1340.09 137.196 1340.23 137.394C1340.32 137.516 1340.38 137.639 1340.47 137.746C1340.56 137.852 1340.65 137.975 1340.71 138.097C1340.85 138.356 1341.05 138.631 1341.11 138.921C1341.11 138.983 1341.16 139.044 1341.17 139.089C1341.17 139.135 1341.17 139.196 1341.17 139.242C1341.17 139.303 1341.22 139.364 1341.22 139.441C1341.22 139.517 1341.2 139.548 1341.19 139.609C1341.16 139.716 1341.14 139.822 1341.1 139.929C1341.05 140.036 1341 140.143 1340.91 140.22C1340.82 140.311 1340.7 140.326 1340.58 140.372C1340.12 140.54 1339.68 140.739 1339.19 140.556C1338.99 140.479 1338.82 140.357 1338.62 140.281C1338.44 140.204 1338.29 140.128 1338.12 140.036C1338.01 139.975 1337.86 139.914 1337.74 139.884C1337.6 139.853 1337.49 139.807 1337.37 139.731C1337.16 139.593 1336.94 139.502 1336.7 139.41C1336.1 139.196 1335.55 139.517 1334.99 139.654C1334.47 139.792 1333.93 139.96 1333.4 140.036C1333.35 140.036 1333.32 140.036 1333.28 140.036L1333.37 140.067Z" fill="#FBDDEA"/>
<path d="M436.769 316.555C436.158 317.609 435.394 318.418 434.066 318.51C433.088 318.571 432.34 318.205 432.233 317.258C432.126 316.372 432.172 315.44 432.309 314.57C432.493 313.486 433.546 313.027 434.554 313.47C435.455 313.867 436.127 314.555 436.769 315.288V316.555Z" fill="#FFFCDF"/>
<path d="M328.685 224.482C327.616 224.36 326.517 224.238 325.432 224.116C324.593 223.23 323.554 222.604 323.218 221.336C322.943 220.282 322.867 219.275 323.356 218.282C323.447 218.099 323.63 217.915 323.646 217.732C323.753 216.159 324.745 215.594 326.15 215.426C326.425 215.395 326.685 215.258 326.96 215.182C328.777 214.647 330.304 215.304 331.144 216.999C331.419 217.564 331.648 218.16 331.877 218.74C332.137 219.412 332.167 220.099 331.877 220.802C331.724 221.183 331.557 221.581 331.465 221.993C331.343 222.588 331.007 223.001 330.518 223.322C329.922 223.703 329.342 224.085 328.701 224.497L328.685 224.482Z" fill="#FFFCDF"/>
<path d="M557.708 147.689C557.738 149.247 556.333 150.652 554.776 150.606C554.012 150.59 553.203 149.964 553.065 149.002C552.928 148.116 553.035 147.185 553.141 146.284C553.203 145.78 553.63 145.444 554.119 145.276C554.256 145.23 554.394 145.215 554.531 145.169C556.608 144.543 557.387 145.719 557.723 147.674L557.708 147.689Z" fill="#FBDDEA"/>
<path d="M493.449 219.323C492.823 219.323 492.212 219.323 491.601 219.323C490.944 219.323 490.501 219.094 490.272 218.529C489.845 217.505 489.845 216.467 490.318 215.474C490.853 214.329 492.563 213.993 493.556 214.787C494.167 215.276 494.747 215.795 494.793 216.65C494.854 217.78 494.426 218.697 493.464 219.323H493.449Z" fill="#FFFCDF"/>
<path d="M406.775 298C407.477 298.29 408.042 298.519 408.546 298.733C409.02 299.726 409.386 300.611 408.928 301.635C408.332 302.994 406.897 303.315 405.874 302.276C405.629 302.032 405.4 301.757 405.202 301.467C404.606 300.55 404.682 299.787 405.477 299.023C405.828 298.687 406.24 298.412 406.759 298H406.775Z" fill="#FFFCDF"/>
<path d="M193.369 596.067C192.498 596.143 192.483 595.761 192.239 595.089C192.086 594.647 191.964 594.188 192.01 593.715C192.01 593.593 192.071 593.532 192.147 593.425C192.269 593.242 192.392 593.074 192.544 592.921C192.804 592.661 193.002 592.341 193.231 592.05C193.308 591.959 193.369 591.852 193.445 591.775C193.522 591.699 193.567 591.562 193.613 591.439C193.674 591.302 193.674 591.073 193.629 590.92C193.598 590.813 193.583 590.722 193.567 590.615C193.552 590.493 193.522 590.37 193.476 590.264C193.384 590.034 193.277 589.821 193.216 589.592C193.155 589.332 193.079 589.042 193.079 588.767C193.079 588.645 193.079 588.507 193.079 588.385C193.079 588.324 193.079 588.248 193.079 588.187C193.079 588.095 193.125 588.034 193.125 587.942C193.14 587.484 193.552 587.072 194.01 587.041C194.27 587.026 194.499 586.934 194.743 587.087C194.866 587.163 194.957 587.27 195.064 587.347C195.125 587.377 195.186 587.392 195.247 587.438C195.308 587.499 195.354 587.545 195.415 587.576C195.522 587.637 195.629 587.713 195.736 587.789C195.858 587.881 195.996 587.927 196.118 587.973C196.332 588.064 196.561 588.141 196.775 588.187C196.973 588.232 197.233 588.187 197.447 588.187C197.737 588.187 197.95 588.08 198.225 588.003C198.454 587.942 198.653 587.82 198.867 587.713C199.035 587.622 199.233 587.576 199.417 587.53C199.615 587.484 199.814 587.408 200.012 587.423C200.134 587.423 200.18 587.484 200.272 587.56C200.379 587.637 200.486 587.698 200.577 587.774C200.745 587.942 200.822 588.125 200.898 588.355C200.959 588.538 200.929 588.736 200.929 588.935C200.929 589.118 200.806 589.347 200.699 589.5C200.593 589.653 200.47 589.805 200.363 589.958C200.318 590.019 200.272 590.08 200.226 590.141C200.15 590.218 200.119 590.279 200.058 590.37C200.027 590.416 200.012 590.477 199.982 590.523C199.966 590.569 199.921 590.615 199.905 590.661C199.859 590.752 199.829 590.844 199.798 590.92C199.768 590.997 199.722 591.088 199.722 591.18C199.722 591.287 199.722 591.394 199.722 591.485C199.722 591.699 199.661 591.852 199.722 592.066C199.753 592.157 199.722 592.264 199.722 592.356C199.753 592.508 199.814 592.661 199.875 592.799C199.966 593.028 200.089 593.196 200.226 593.394C200.318 593.516 200.379 593.639 200.47 593.746C200.562 593.852 200.654 593.975 200.715 594.097C200.852 594.356 201.051 594.631 201.112 594.921C201.112 594.983 201.158 595.044 201.173 595.089C201.173 595.135 201.173 595.196 201.173 595.242C201.173 595.303 201.219 595.364 201.219 595.441C201.219 595.517 201.203 595.548 201.188 595.609C201.158 595.716 201.142 595.822 201.096 595.929C201.051 596.036 201.005 596.143 200.913 596.22C200.822 596.311 200.699 596.326 200.577 596.372C200.119 596.54 199.676 596.739 199.188 596.556C198.989 596.479 198.821 596.357 198.622 596.281C198.439 596.204 198.286 596.128 198.118 596.036C198.012 595.975 197.859 595.914 197.737 595.884C197.599 595.853 197.492 595.807 197.37 595.731C197.156 595.593 196.943 595.502 196.698 595.41C196.103 595.196 195.553 595.517 194.988 595.654C194.469 595.792 193.934 595.96 193.399 596.036C193.354 596.036 193.323 596.036 193.277 596.036L193.369 596.067Z" fill="#FFFCDF"/>
<path d="M159.428 318.125C158.664 318.98 159.245 319.667 159.199 320.37C159.168 320.828 159.214 321.286 159.428 321.698C160.161 323.149 160.222 324.63 160.085 326.112C159.932 327.792 159.947 329.502 157 330.8C154.48 330.373 154.159 328.265 152.998 326.83C152.128 325.745 151.807 324.462 151.532 323.18C151.288 322.065 150.631 321.286 149.791 320.675C149.074 320.156 148.142 320.156 147.302 320.186C145.5 320.232 143.698 320.492 141.896 320.538C140.613 320.568 139.33 320.415 138.001 320.339L137.039 319.423C137.055 318.766 136.795 318.033 137.436 317.453C137.604 317.3 137.91 317.132 137.925 316.949C138.017 315.941 138.857 315.544 139.468 314.979C140.094 314.398 140.949 314.108 141.483 313.39C141.606 313.222 141.911 313.207 142.125 313.085C142.782 312.688 143.377 312.214 144.064 311.909C144.721 311.619 145.408 311.405 145.973 310.932C146.08 310.84 146.248 310.809 146.34 310.718C146.951 310.137 147.424 309.481 147.195 308.564C147.149 308.381 147.18 308.167 147.088 307.999C146.462 306.869 146.615 305.663 146.829 304.502C147.012 303.433 147.363 302.364 148.447 301.768C148.86 301.539 149.257 301.249 149.654 300.99C150.005 300.76 150.341 300.745 150.723 300.944C151.318 301.234 151.929 301.494 152.265 302.135C152.357 302.303 152.449 302.501 152.586 302.593C153.304 303.097 153.563 303.861 153.793 304.655C153.915 305.067 154.113 305.449 154.312 305.938C154.709 305.739 155.091 305.632 155.35 305.403C156.297 304.563 157.183 303.647 158.114 302.776C159.489 301.906 160.787 300.898 162.238 300.15C162.94 299.783 163.414 300.15 163.902 300.608C164.025 302.242 163.399 303.738 163.047 305.266C162.681 306.075 162.329 306.9 161.688 307.587C161.23 308.06 160.924 308.671 160.589 309.252C160.421 309.557 160.604 309.939 160.924 310.092C161.092 310.168 161.276 310.229 161.459 310.29C163.169 310.886 164.895 311.466 166.606 312.062C166.926 312.169 167.201 312.382 167.522 312.459C168.179 312.627 168.454 313.1 168.576 313.696C168.835 315.009 168.499 316.353 167.079 317.101C166.178 317.575 165.292 317.895 164.208 317.712C163.429 317.575 162.604 317.651 161.795 317.834C161.016 318.018 160.191 318.033 159.413 318.109L159.428 318.125Z" fill="#FFF9AE"/>
<path d="M699.428 1084.12C698.664 1084.98 699.245 1085.67 699.199 1086.37C699.168 1086.83 699.214 1087.29 699.428 1087.7C700.161 1089.15 700.222 1090.63 700.085 1092.11C699.932 1093.79 699.947 1095.5 697 1096.8C694.48 1096.37 694.159 1094.27 692.998 1092.83C692.128 1091.75 691.807 1090.46 691.532 1089.18C691.288 1088.06 690.631 1087.29 689.791 1086.67C689.074 1086.16 688.142 1086.16 687.302 1086.19C685.5 1086.23 683.698 1086.49 681.896 1086.54C680.613 1086.57 679.33 1086.42 678.001 1086.34L677.039 1085.42C677.055 1084.77 676.795 1084.03 677.436 1083.45C677.604 1083.3 677.91 1083.13 677.925 1082.95C678.017 1081.94 678.857 1081.54 679.468 1080.98C680.094 1080.4 680.949 1080.11 681.483 1079.39C681.606 1079.22 681.911 1079.21 682.125 1079.08C682.782 1078.69 683.377 1078.21 684.064 1077.91C684.721 1077.62 685.408 1077.4 685.973 1076.93C686.08 1076.84 686.248 1076.81 686.34 1076.72C686.951 1076.14 687.424 1075.48 687.195 1074.56C687.149 1074.38 687.18 1074.17 687.088 1074C686.462 1072.87 686.615 1071.66 686.829 1070.5C687.012 1069.43 687.363 1068.36 688.447 1067.77C688.86 1067.54 689.257 1067.25 689.654 1066.99C690.005 1066.76 690.341 1066.75 690.723 1066.94C691.318 1067.23 691.929 1067.49 692.265 1068.13C692.357 1068.3 692.449 1068.5 692.586 1068.59C693.304 1069.1 693.563 1069.86 693.793 1070.65C693.915 1071.07 694.113 1071.45 694.312 1071.94C694.709 1071.74 695.091 1071.63 695.35 1071.4C696.297 1070.56 697.183 1069.65 698.114 1068.78C699.489 1067.91 700.787 1066.9 702.238 1066.15C702.94 1065.78 703.414 1066.15 703.902 1066.61C704.025 1068.24 703.399 1069.74 703.047 1071.27C702.681 1072.08 702.329 1072.9 701.688 1073.59C701.23 1074.06 700.924 1074.67 700.589 1075.25C700.421 1075.56 700.604 1075.94 700.924 1076.09C701.092 1076.17 701.276 1076.23 701.459 1076.29C703.169 1076.89 704.895 1077.47 706.606 1078.06C706.926 1078.17 707.201 1078.38 707.522 1078.46C708.179 1078.63 708.454 1079.1 708.576 1079.7C708.835 1081.01 708.499 1082.35 707.079 1083.1C706.178 1083.57 705.292 1083.9 704.208 1083.71C703.429 1083.57 702.604 1083.65 701.795 1083.83C701.016 1084.02 700.191 1084.03 699.413 1084.11L699.428 1084.12Z" fill="#FFF9AE"/>
<path d="M43.4278 613.125C42.6642 613.98 43.2446 614.667 43.1988 615.37C43.1682 615.828 43.214 616.286 43.4278 616.698C44.1609 618.149 44.222 619.63 44.0845 621.112C43.9318 622.792 43.9471 624.502 40.9996 625.8C38.4798 625.373 38.1591 623.265 36.9984 621.83C36.1279 620.745 35.8072 619.462 35.5323 618.18C35.288 617.065 34.6313 616.286 33.7913 615.675C33.0735 615.156 32.142 615.156 31.302 615.186C29.4999 615.232 27.6979 615.492 25.8958 615.538C24.6129 615.568 23.3301 615.415 22.0015 615.339L21.0393 614.423C21.0546 613.766 20.795 613.033 21.4364 612.453C21.6044 612.3 21.9098 612.132 21.9251 611.949C22.0167 610.941 22.8567 610.544 23.4675 609.979C24.0937 609.398 24.9489 609.108 25.4834 608.39C25.6056 608.222 25.911 608.207 26.1249 608.085C26.7815 607.688 27.3771 607.214 28.0644 606.909C28.7211 606.619 29.4083 606.405 29.9734 605.932C30.0803 605.84 30.2482 605.809 30.3399 605.718C30.9507 605.137 31.4242 604.481 31.1951 603.564C31.1493 603.381 31.1798 603.167 31.0882 602.999C30.4621 601.869 30.6148 600.663 30.8286 599.502C31.0118 598.433 31.3631 597.364 32.4474 596.768C32.8597 596.539 33.2568 596.249 33.6539 595.99C34.0051 595.76 34.3411 595.745 34.7229 595.944C35.3185 596.234 35.9294 596.494 36.2654 597.135C36.357 597.303 36.4486 597.501 36.5861 597.593C37.3038 598.097 37.5635 598.861 37.7925 599.655C37.9147 600.067 38.1132 600.449 38.3118 600.938C38.7088 600.739 39.0906 600.632 39.3503 600.403C40.2971 599.563 41.1829 598.647 42.1145 597.776C43.4889 596.906 44.787 595.898 46.2379 595.15C46.9404 594.783 47.4138 595.15 47.9025 595.608C48.0247 597.242 47.3985 598.738 47.0473 600.266C46.6807 601.075 46.3295 601.9 45.6881 602.587C45.2299 603.06 44.9245 603.671 44.5885 604.252C44.4205 604.557 44.6038 604.939 44.9245 605.092C45.0925 605.168 45.2757 605.229 45.459 605.29C47.1694 605.886 48.8952 606.466 50.6056 607.062C50.9263 607.169 51.2012 607.382 51.5219 607.459C52.1786 607.627 52.4535 608.1 52.5757 608.696C52.8353 610.009 52.4993 611.353 51.079 612.101C50.178 612.575 49.2922 612.895 48.2079 612.712C47.4291 612.575 46.6044 612.651 45.795 612.834C45.0161 613.018 44.1914 613.033 43.4126 613.109L43.4278 613.125Z" fill="#FFF9AE"/>
<path d="M1695.43 514.125C1694.66 514.98 1695.24 515.667 1695.2 516.37C1695.17 516.828 1695.21 517.286 1695.43 517.698C1696.16 519.149 1696.22 520.63 1696.08 522.112C1695.93 523.792 1695.95 525.502 1693 526.8C1690.48 526.373 1690.16 524.265 1689 522.83C1688.13 521.745 1687.81 520.462 1687.53 519.18C1687.29 518.065 1686.63 517.286 1685.79 516.675C1685.07 516.156 1684.14 516.156 1683.3 516.186C1681.5 516.232 1679.7 516.492 1677.9 516.538C1676.61 516.568 1675.33 516.415 1674 516.339L1673.04 515.423C1673.05 514.766 1672.79 514.033 1673.44 513.453C1673.6 513.3 1673.91 513.132 1673.93 512.949C1674.02 511.941 1674.86 511.544 1675.47 510.979C1676.09 510.398 1676.95 510.108 1677.48 509.39C1677.61 509.222 1677.91 509.207 1678.12 509.085C1678.78 508.688 1679.38 508.214 1680.06 507.909C1680.72 507.619 1681.41 507.405 1681.97 506.932C1682.08 506.84 1682.25 506.809 1682.34 506.718C1682.95 506.137 1683.42 505.481 1683.2 504.564C1683.15 504.381 1683.18 504.167 1683.09 503.999C1682.46 502.869 1682.61 501.663 1682.83 500.502C1683.01 499.433 1683.36 498.364 1684.45 497.768C1684.86 497.539 1685.26 497.249 1685.65 496.99C1686.01 496.76 1686.34 496.745 1686.72 496.944C1687.32 497.234 1687.93 497.494 1688.27 498.135C1688.36 498.303 1688.45 498.501 1688.59 498.593C1689.3 499.097 1689.56 499.861 1689.79 500.655C1689.91 501.067 1690.11 501.449 1690.31 501.938C1690.71 501.739 1691.09 501.632 1691.35 501.403C1692.3 500.563 1693.18 499.647 1694.11 498.776C1695.49 497.906 1696.79 496.898 1698.24 496.15C1698.94 495.783 1699.41 496.15 1699.9 496.608C1700.02 498.242 1699.4 499.738 1699.05 501.266C1698.68 502.075 1698.33 502.9 1697.69 503.587C1697.23 504.06 1696.92 504.671 1696.59 505.252C1696.42 505.557 1696.6 505.939 1696.92 506.092C1697.09 506.168 1697.28 506.229 1697.46 506.29C1699.17 506.886 1700.9 507.466 1702.61 508.062C1702.93 508.169 1703.2 508.382 1703.52 508.459C1704.18 508.627 1704.45 509.1 1704.58 509.696C1704.84 511.009 1704.5 512.353 1703.08 513.101C1702.18 513.575 1701.29 513.895 1700.21 513.712C1699.43 513.575 1698.6 513.651 1697.79 513.834C1697.02 514.018 1696.19 514.033 1695.41 514.109L1695.43 514.125Z" fill="#FFF9AE"/>
<path d="M1490.75 58.8024C1490.52 58.7718 1490.23 58.7565 1489.97 58.6955C1488.56 58.3289 1488.24 57.7639 1488.04 56.3283C1487.84 54.9233 1488.36 53.8543 1489.16 52.8311C1489.36 52.5715 1489.68 52.3576 1490 52.2202C1491.17 51.7162 1493.05 52.1133 1493.92 53.0449C1494.15 53.2892 1494.41 53.6099 1494.46 53.9306C1494.58 54.908 1494.67 55.8854 1494.66 56.8628C1494.66 57.2294 1494.4 57.7944 1494.11 57.9319C1493.07 58.4206 1492.15 59.4438 1490.76 58.8024H1490.75Z" fill="#FFFCDF"/>
<path d="M1400.63 4.50427C1400.68 4.12247 1400.74 3.71013 1400.8 3.28252C1401.04 1.61789 1401.79 0.823756 1403.44 0.487775C1404.17 0.335057 1405.55 0.94593 1406.01 1.61789C1407.01 3.11453 1406.85 4.94715 1405.58 6.22999C1404.43 7.37537 1402.74 7.3601 1401.7 6.13836C1401.3 5.66493 1401.01 5.0846 1400.63 4.50427Z" fill="#FFFCDF"/>
</svg>
