<svg width="1724" height="1246" viewBox="0 0 1724 1246" fill="none" xmlns="http://www.w3.org/2000/svg">
<path d="M575.244 256.006C574.908 255.991 574.542 256.006 574.175 256.037C573.503 256.098 572.663 256.082 572.037 256.373C570.403 257.136 570.494 259.809 571.258 261.107C572.419 263.062 574.374 263.825 576.542 263.26C578.558 262.741 578.741 259.778 578.207 258.144C577.718 256.617 576.588 256.082 575.229 256.006H575.244Z" fill="#FFF9AE"/>
<path d="M8.53399 317.647C8.38127 318.563 8.42709 319.434 8.07584 320.06C7.67877 320.763 7.02208 321.526 6.3043 321.77C5.02147 322.198 3.58591 322.519 2.24199 321.832C1.93656 321.679 1.63112 321.434 1.46313 321.144C0.959157 320.228 0.455187 319.281 0.0733907 318.304C-0.0640559 317.968 -0.00296854 317.387 0.210837 317.113C0.867526 316.303 1.57003 315.463 2.42525 314.868C3.14303 314.364 4.01353 314.241 5.02147 314.577C6.44175 315.036 7.60241 315.662 8.30491 317.006C8.42709 317.25 8.48817 317.525 8.53399 317.647Z" fill="#FFFCDF"/>
<path d="M179.722 130.818C179.584 131.933 179.218 133.323 177.629 133.567C177.492 133.583 177.355 133.613 177.217 133.644C175.415 134.01 174.606 133.583 173.934 131.933C173.903 131.872 173.873 131.811 173.857 131.735C173.414 130.345 174.682 128.039 176.102 127.734C178.454 127.214 179.447 128.329 179.722 130.803V130.818Z" fill="#FFFCDF"/>
<path d="M281.496 320C281.725 320.275 281.955 320.641 282.275 320.901C283.711 322.108 283.314 323.619 282.55 325.131C281.985 326.246 280.061 326.704 279.022 326.032C278.793 325.88 278.564 325.635 278.503 325.391C278.289 324.597 277.923 323.849 278.014 322.947C278.274 320.611 278.931 320 281.512 320H281.496Z" fill="#FFFCDF"/>
<path d="M510.129 115.671C510.053 114.908 510.007 114.282 509.931 113.655C509.701 111.93 510.755 110.616 512.481 110.571C512.97 110.571 513.458 110.662 513.886 110.693C515.154 111.502 514.94 112.693 514.726 113.793C514.466 115.106 514.115 116.465 512.298 116.878C511.717 116.557 511 116.145 510.144 115.671H510.129Z" fill="#FFFCDF"/>
<path d="M1684.41 31.1682C1685.4 31.5195 1686.33 31.8096 1687.23 32.2067C1687.58 32.3594 1687.89 32.7412 1688.09 33.0925C1688.68 34.192 1688.71 35.3832 1688.45 36.5592C1688.29 37.2922 1687.95 38.01 1687.61 38.6972C1687.48 39.0027 1687.19 39.247 1686.93 39.4608C1686.45 39.8732 1685.93 40.2397 1685.45 40.6368C1684.93 41.0644 1684.35 41.2018 1683.67 41.0338C1682.24 40.6673 1681.11 39.9342 1680.48 38.5445C1680.39 38.346 1680.34 38.1474 1680.24 37.9642C1678.31 34.696 1680.89 32.2983 1683.43 31.2598C1683.73 31.1377 1684.12 31.1988 1684.41 31.1682Z" fill="#FBDDEA"/>
<path d="M1722.36 413.184C1724.04 414.62 1724.24 416.086 1723.75 417.812C1723.32 419.324 1721.83 420.408 1720.28 420.087C1719.61 419.95 1718.95 419.675 1718.31 419.369C1718.02 419.232 1717.73 418.927 1717.6 418.636C1717.12 417.598 1717.03 416.483 1717 415.353C1717 415.231 1717.05 415.048 1717.14 414.971C1717.81 414.36 1718.45 413.688 1719.2 413.23C1719.63 412.971 1720.27 413.001 1720.82 413.001C1721.37 413.001 1721.92 413.139 1722.36 413.2V413.184Z" fill="#FBDDEA"/>
<path d="M1250.66 114.7C1250.66 114.7 1250.66 114.669 1250.66 114.654C1250.58 113.875 1250.21 113.539 1249.69 112.974C1249.18 112.409 1248.89 112.241 1248.18 112.119C1247.68 112.043 1247.05 111.92 1246.52 112.073C1246.03 112.226 1245.69 112.974 1245.48 113.417C1245.27 113.86 1245.13 114.379 1245.07 114.898C1245.02 115.295 1245.16 115.998 1245.39 116.334C1245.59 116.609 1246.12 116.823 1246.49 116.945C1247.82 117.357 1249.01 116.792 1250.03 116.044C1250.5 115.693 1250.69 115.295 1250.64 114.715L1250.66 114.7Z" fill="#FFFCDF"/>
<path d="M422.598 1242.7C422.598 1242.7 422.598 1242.67 422.598 1242.65C422.522 1241.88 422.155 1241.54 421.636 1240.97C421.117 1240.41 420.827 1240.24 420.124 1240.12C419.62 1240.04 418.994 1239.92 418.46 1240.07C417.971 1240.23 417.635 1240.97 417.421 1241.42C417.207 1241.86 417.07 1242.38 417.009 1242.9C416.963 1243.3 417.1 1244 417.33 1244.33C417.528 1244.61 418.063 1244.82 418.429 1244.94C419.758 1245.36 420.949 1244.79 421.972 1244.04C422.446 1243.69 422.629 1243.3 422.583 1242.72L422.598 1242.7Z" fill="#FFFCDF"/>
<path d="M1106.65 133.145C1106.89 133.97 1106.53 134.672 1105.88 135.314C1105.29 135.909 1104.75 136.566 1104.19 137.192C1102.91 138.597 1101.35 138.215 1100.08 137.864C1100.02 137.849 1099.93 137.818 1099.9 137.757C1099.17 136.535 1097.88 135.558 1098.02 133.909C1098.05 133.557 1098.19 133.176 1098.1 132.87C1097.73 131.74 1098.49 130.992 1098.98 130.167C1099.17 129.846 1099.61 129.526 1099.99 129.464C1101.06 129.281 1102.13 128.563 1103.23 129.388C1103.37 129.495 1103.64 129.434 1103.85 129.464C1105.92 129.755 1106.65 130.564 1106.65 132.61C1106.65 132.748 1106.65 132.885 1106.65 133.13V133.145Z" fill="#FBDDEA"/>
<path d="M70.369 1004.07C69.4985 1004.14 69.4832 1003.76 69.2389 1003.09C69.0861 1002.65 68.9639 1002.19 69.0098 1001.71C69.0098 1001.59 69.0709 1001.53 69.1472 1001.42C69.2694 1001.24 69.3916 1001.07 69.5443 1000.92C69.8039 1000.66 70.0025 1000.34 70.2316 1000.05C70.3079 999.959 70.3689 999.852 70.4453 999.775C70.5217 999.699 70.5676 999.562 70.6134 999.439C70.6745 999.302 70.6744 999.073 70.6286 998.92C70.598 998.813 70.5828 998.722 70.5675 998.615C70.5522 998.493 70.5217 998.37 70.4759 998.264C70.3842 998.034 70.2774 997.821 70.2163 997.592C70.1552 997.332 70.0788 997.042 70.0788 996.767C70.0788 996.645 70.0788 996.507 70.0788 996.385C70.0788 996.324 70.0788 996.248 70.0788 996.187C70.0788 996.095 70.1247 996.034 70.1247 995.942C70.1399 995.484 70.5522 995.072 71.0104 995.041C71.27 995.026 71.4991 994.934 71.7435 995.087C71.8656 995.163 71.9572 995.27 72.0641 995.347C72.1252 995.377 72.1863 995.392 72.2474 995.438C72.3085 995.499 72.3543 995.545 72.4154 995.576C72.5223 995.637 72.6292 995.713 72.7361 995.789C72.8583 995.881 72.9957 995.927 73.1179 995.973C73.3317 996.064 73.5608 996.141 73.7746 996.187C73.9731 996.232 74.2327 996.187 74.4465 996.187C74.7367 996.187 74.9505 996.08 75.2254 996.003C75.4545 995.942 75.653 995.82 75.8668 995.713C76.0348 995.622 76.2334 995.576 76.4166 995.53C76.6152 995.484 76.8136 995.408 77.0122 995.423C77.1344 995.423 77.1802 995.484 77.2719 995.56C77.3788 995.637 77.4857 995.698 77.5773 995.774C77.7453 995.942 77.8216 996.125 77.898 996.355C77.9591 996.538 77.9285 996.736 77.9285 996.935C77.9285 997.118 77.8063 997.347 77.6994 997.5C77.5925 997.653 77.4704 997.805 77.3635 997.958C77.3177 998.019 77.2718 998.08 77.226 998.141C77.1496 998.218 77.1191 998.279 77.058 998.37C77.0275 998.416 77.0122 998.477 76.9817 998.523C76.9664 998.569 76.9206 998.615 76.9054 998.661C76.8595 998.752 76.829 998.844 76.7984 998.92C76.7679 998.997 76.7221 999.088 76.7221 999.18C76.7221 999.287 76.7221 999.394 76.7221 999.485C76.7221 999.699 76.661 999.852 76.7221 1000.07C76.7526 1000.16 76.7221 1000.26 76.7221 1000.36C76.7526 1000.51 76.8137 1000.66 76.8748 1000.8C76.9664 1001.03 77.0886 1001.2 77.226 1001.39C77.3176 1001.52 77.3788 1001.64 77.4704 1001.75C77.562 1001.85 77.6536 1001.97 77.7147 1002.1C77.8522 1002.36 78.0507 1002.63 78.1118 1002.92C78.1118 1002.98 78.1576 1003.04 78.1729 1003.09C78.1729 1003.14 78.1729 1003.2 78.1729 1003.24C78.1729 1003.3 78.2187 1003.36 78.2187 1003.44C78.2187 1003.52 78.2034 1003.55 78.1881 1003.61C78.1576 1003.72 78.1423 1003.82 78.0965 1003.93C78.0507 1004.04 78.0049 1004.14 77.9133 1004.22C77.8216 1004.31 77.6995 1004.33 77.5773 1004.37C77.1192 1004.54 76.6762 1004.74 76.1875 1004.56C75.989 1004.48 75.821 1004.36 75.6225 1004.28C75.4392 1004.2 75.2865 1004.13 75.1185 1004.04C75.0116 1003.98 74.8589 1003.91 74.7367 1003.88C74.5992 1003.85 74.4924 1003.81 74.3702 1003.73C74.1564 1003.59 73.9426 1003.5 73.6982 1003.41C73.1026 1003.2 72.5528 1003.52 71.9878 1003.65C71.4685 1003.79 70.9341 1003.96 70.3995 1004.04C70.3537 1004.04 70.3232 1004.04 70.2773 1004.04L70.369 1004.07Z" fill="#FBDDEA"/>
<path d="M416.182 87.8257C415.952 87.8257 415.662 87.8563 415.387 87.8257C413.952 87.6578 413.555 87.1385 413.158 85.7488C412.776 84.3896 413.127 83.2442 413.784 82.1294C413.952 81.8392 414.242 81.5796 414.532 81.4116C415.632 80.7549 417.556 80.9076 418.533 81.7017C418.793 81.9155 419.098 82.2057 419.19 82.5111C419.45 83.458 419.664 84.4201 419.786 85.3975C419.831 85.7641 419.664 86.3597 419.389 86.5276C418.426 87.1385 417.648 88.2839 416.182 87.841V87.8257Z" fill="#FFFCDF"/>
<path d="M284.015 4.42394C284.015 4.04215 284.015 3.61454 284.015 3.2022C284.031 1.5223 284.672 0.621259 286.245 0.0714725C286.963 -0.172877 288.398 0.23946 288.933 0.850334C290.139 2.19426 290.216 4.02688 289.131 5.4777C288.154 6.77581 286.474 6.97434 285.283 5.90531C284.825 5.49297 284.458 4.95846 284 4.42394H284.015Z" fill="#FFFCDF"/>
<path d="M1177.61 279.028C1177.89 278.158 1178.21 277.287 1178.54 276.417C1179.05 275.119 1179.81 273.653 1181.14 273.149C1182.41 272.675 1183.66 273.393 1184.16 274.447C1184.67 275.485 1185.17 277.303 1185.31 278.494C1185.52 280.235 1185.97 281.899 1186.61 283.457C1186.94 284.251 1187.36 285.045 1188.12 285.443C1188.75 285.763 1189.54 285.778 1190.3 285.748C1192.23 285.672 1194.2 285.412 1196.08 285.565C1197.95 285.717 1199.79 286.374 1200.76 287.825C1201.05 288.253 1201.25 288.772 1201.12 289.337C1201.02 289.703 1200.76 290.055 1200.49 290.36C1199.28 291.673 1197.57 292.315 1195.94 292.895C1192.03 294.27 1187.94 294.987 1187.22 299.706C1186.53 304.166 1187.46 308.503 1186.45 312.962C1186.24 313.94 1185.9 314.948 1185.22 315.772C1184.53 316.597 1183.43 317.223 1182.48 317.07C1181.51 316.918 1180.96 316.047 1180.54 315.223C1179.25 312.626 1178.36 309.786 1177.95 306.808C1177.55 303.921 1176.85 300.271 1175.18 297.996C1173.34 295.476 1169.55 295.278 1166.23 294.804C1164.94 294.621 1163.52 294.254 1163.1 293.063C1162.57 291.505 1164.19 289.566 1165.9 288.695C1168.51 287.382 1172.8 287.138 1175.06 285.381C1176.16 284.526 1176.51 283.106 1176.82 281.838C1177.05 280.891 1177.32 279.945 1177.63 279.013L1177.61 279.028Z" fill="#FFFCDF"/>
<path d="M1540.76 261.349C1540 262.204 1540.58 262.892 1540.53 263.594C1540.5 264.052 1540.55 264.51 1540.76 264.923C1541.49 266.374 1541.55 267.855 1541.42 269.336C1541.26 271.016 1541.28 272.727 1538.33 274.025C1535.81 273.597 1535.49 271.49 1534.33 270.054C1533.46 268.97 1533.14 267.687 1532.86 266.404C1532.62 265.289 1531.96 264.51 1531.12 263.9C1530.41 263.38 1529.47 263.38 1528.63 263.411C1526.83 263.457 1525.03 263.716 1523.23 263.762C1521.94 263.793 1520.66 263.64 1519.33 263.564L1518.37 262.647C1518.39 261.991 1518.13 261.258 1518.77 260.677C1518.94 260.524 1519.24 260.356 1519.26 260.173C1519.35 259.165 1520.19 258.768 1520.8 258.203C1521.43 257.623 1522.28 257.333 1522.82 256.615C1522.94 256.447 1523.24 256.432 1523.46 256.309C1524.11 255.912 1524.71 255.439 1525.4 255.134C1526.05 254.843 1526.74 254.63 1527.31 254.156C1527.41 254.064 1527.58 254.034 1527.67 253.942C1528.28 253.362 1528.76 252.705 1528.53 251.789C1528.48 251.606 1528.51 251.392 1528.42 251.224C1527.79 250.094 1527.95 248.887 1528.16 247.727C1528.34 246.658 1528.7 245.589 1529.78 244.993C1530.19 244.764 1530.59 244.474 1530.99 244.214C1531.34 243.985 1531.67 243.97 1532.05 244.168C1532.65 244.459 1533.26 244.718 1533.6 245.36C1533.69 245.528 1533.78 245.726 1533.92 245.818C1534.64 246.322 1534.9 247.085 1535.12 247.879C1535.25 248.292 1535.45 248.674 1535.64 249.162C1536.04 248.964 1536.42 248.857 1536.68 248.628C1537.63 247.788 1538.51 246.871 1539.45 246.001C1540.82 245.13 1542.12 244.123 1543.57 243.374C1544.27 243.008 1544.75 243.374 1545.23 243.832C1545.36 245.466 1544.73 246.963 1544.38 248.49C1544.01 249.3 1543.66 250.124 1543.02 250.812C1542.56 251.285 1542.26 251.896 1541.92 252.476C1541.75 252.782 1541.94 253.163 1542.26 253.316C1542.42 253.393 1542.61 253.454 1542.79 253.515C1544.5 254.11 1546.23 254.691 1547.94 255.286C1548.26 255.393 1548.53 255.607 1548.85 255.683C1549.51 255.851 1549.79 256.325 1549.91 256.92C1550.17 258.234 1549.83 259.578 1548.41 260.326C1547.51 260.799 1546.62 261.12 1545.54 260.937C1544.76 260.799 1543.94 260.876 1543.13 261.059C1542.35 261.242 1541.52 261.258 1540.74 261.334L1540.76 261.349Z" fill="#FFF9AE"/>
<path d="M841.854 44.178C841.381 44.6972 841.732 45.1248 841.717 45.5677C841.717 45.8426 841.717 46.1328 841.854 46.3924C842.297 47.2934 842.343 48.2097 842.266 49.126C842.175 50.1645 842.175 51.2183 840.357 52.0277C838.8 51.7681 838.601 50.4547 837.883 49.5689C837.349 48.897 837.15 48.1028 836.982 47.324C836.83 46.6367 836.433 46.1633 835.898 45.7815C835.455 45.4608 834.875 45.4608 834.356 45.4761C833.241 45.5066 832.126 45.6593 831.011 45.6899C830.217 45.7052 829.423 45.6135 828.598 45.5677L828.002 45.0027C828.002 44.6056 827.85 44.1474 828.247 43.7809C828.354 43.6893 828.537 43.5824 828.552 43.4755C828.598 42.8493 829.117 42.605 829.514 42.2537C829.911 41.9025 830.431 41.7192 830.767 41.2611C830.843 41.1541 831.042 41.1541 831.164 41.0778C831.561 40.8334 831.943 40.5433 832.37 40.3447C832.783 40.1615 833.195 40.0393 833.546 39.7491C833.607 39.6881 833.714 39.6728 833.775 39.6117C834.157 39.2452 834.447 38.8481 834.31 38.283C834.279 38.1609 834.31 38.0387 834.249 37.9318C833.867 37.2293 833.959 36.481 834.081 35.7785C834.188 35.1218 834.417 34.4651 835.073 34.0986C835.333 33.9611 835.562 33.7779 835.822 33.6251C836.035 33.4877 836.249 33.4724 836.494 33.5946C836.86 33.7779 837.242 33.9458 837.44 34.3276C837.502 34.4345 837.547 34.5567 837.639 34.6178C838.082 34.9385 838.235 35.4119 838.387 35.8854C838.464 36.1297 838.586 36.3741 838.708 36.6795C838.952 36.5573 839.181 36.4962 839.349 36.3435C839.93 35.8243 840.48 35.2592 841.06 34.7094C841.915 34.1749 842.709 33.5488 843.61 33.0753C844.038 32.8463 844.343 33.0753 844.634 33.3655C844.71 34.3735 844.328 35.2898 844.099 36.2519C843.87 36.7559 843.656 37.2598 843.259 37.6874C842.984 37.9776 842.786 38.3594 842.587 38.7107C842.48 38.8939 842.587 39.1383 842.801 39.2299C842.908 39.2757 843.015 39.3063 843.137 39.3521C844.191 39.7186 845.26 40.0698 846.313 40.4516C846.512 40.5127 846.68 40.6502 846.879 40.696C847.276 40.8029 847.459 41.0931 847.535 41.4596C847.688 42.269 847.489 43.0937 846.604 43.5671C846.039 43.8573 845.504 44.0558 844.832 43.9489C844.343 43.8725 843.839 43.9184 843.335 44.0253C842.847 44.1322 842.343 44.1474 841.854 44.1932V44.178Z" fill="#FFFCDF"/>
<path d="M1326.84 1135C1327.83 1135.35 1328.76 1135.64 1329.66 1136.04C1330.02 1136.19 1330.32 1136.57 1330.52 1136.92C1331.12 1138.02 1331.15 1139.22 1330.89 1140.39C1330.72 1141.12 1330.38 1141.84 1330.05 1142.53C1329.91 1142.83 1329.62 1143.08 1329.36 1143.29C1328.89 1143.7 1328.37 1144.07 1327.88 1144.47C1327.36 1144.9 1326.78 1145.03 1326.11 1144.87C1324.67 1144.5 1323.54 1143.77 1322.91 1142.38C1322.82 1142.18 1322.78 1141.98 1322.67 1141.8C1320.75 1138.53 1323.33 1136.13 1325.86 1135.09C1326.17 1134.97 1326.55 1135.03 1326.84 1135Z" fill="#FBDDEA"/>
</svg>
