<svg width="1705" height="1259" viewBox="0 0 1705 1259" fill="none" xmlns="http://www.w3.org/2000/svg">
<path d="M102.307 329.025C101.207 329.025 100.016 328.933 98.8553 329.101C97.3892 329.3 96.7478 330.247 97.0991 331.759C97.4045 333.118 98.5346 333.209 99.5578 333.194C101.513 333.194 103.055 330.934 102.307 329.025Z" fill="#FFFCDF"/>
<path d="M1700.2 190.77C1702.4 190.831 1704.39 192.526 1704.81 194.71C1704.86 194.985 1704.85 195.275 1704.8 195.55C1704.75 195.825 1704.54 196.069 1704.52 196.344C1704.36 198.498 1702.75 199.49 1701.15 200.361C1700.16 200.895 1698.94 200.636 1697.91 200.132C1696.86 199.597 1696.06 198.742 1696.02 197.52C1695.97 196.329 1696.02 195.107 1696.23 193.931C1696.55 192.129 1698.45 190.724 1700.22 190.77H1700.2Z" fill="#FFFCDF"/>
<path d="M189.925 574.726C189.665 574.146 189.405 573.642 189.207 573.138C188.596 571.596 189.39 569.671 190.902 569.076C191.101 568.999 191.36 568.984 191.589 569.015C191.91 569.061 192.215 569.229 192.536 569.244C193.315 569.29 193.697 569.809 193.911 570.435C194.155 571.183 194.231 571.977 194.124 572.772C194.094 573.031 193.956 573.306 193.819 573.535C193.62 573.841 193.376 574.131 193.116 574.406C192.261 575.337 191.757 575.444 190.536 574.956C190.368 574.894 190.184 574.833 189.94 574.742L189.925 574.726Z" fill="#FFFCDF"/>
<path d="M407.543 237.765C406.794 237.612 406.107 237.505 405.435 237.337C402.808 236.681 402.121 234.252 403.465 232.527C404.015 231.824 404.656 231.167 405.313 230.541C405.542 230.327 405.939 230.236 406.26 230.19C406.749 230.129 407.237 230.129 407.726 230.144C409.391 230.205 410.536 231.32 410.429 232.954C410.368 233.977 410.032 235.001 409.742 235.993C409.65 236.299 409.33 236.558 409.055 236.757C408.551 237.123 408.016 237.444 407.528 237.765H407.543Z" fill="#FFFCDF"/>
<path d="M106.818 224.726C108.315 223.428 109.643 221.992 111.904 222.74C113.675 223.809 113.018 225.489 112.866 227.032C112.85 227.23 112.744 227.429 112.667 227.627C112.194 228.956 110.789 229.811 109.369 229.643C108.025 229.475 106.971 228.421 106.818 226.986C106.742 226.222 106.818 225.459 106.818 224.71V224.726Z" fill="#FBDDEA"/>
<path d="M0.946428 82.0296C0.976971 81.602 1.02279 81.1591 1.05333 80.7162C1.08387 80.0748 1.43512 79.7082 2.01545 79.4944C2.27507 79.4028 2.5347 79.2959 2.79432 79.2043C3.69536 78.8988 4.30623 79.0821 4.82548 79.861C5.26836 80.5177 5.42107 81.2965 5.43634 82.0754C5.43634 82.3655 5.23781 82.7321 5.00873 82.9306C4.64221 83.2666 4.18405 83.4804 3.77172 83.7553C2.93176 84.3051 2.1529 83.9385 1.41985 83.5415C0.854793 83.236 0.854797 82.6404 0.946428 82.0448V82.0296Z" fill="#FFFCDF"/>
<path d="M167.548 418.151C168.8 419.312 168.815 420.702 168.266 422.213C168.052 422.809 167.655 423.206 167.044 423.206C166.418 423.206 165.746 423.191 165.196 422.947C163.791 422.336 163.486 421.083 164.402 419.862C165.166 418.838 165.99 417.83 167.548 418.166V418.151Z" fill="#FFFCDF"/>
<path d="M1557.65 320.208C1557.68 319.444 1557.72 318.818 1557.72 318.192C1557.72 316.451 1558.94 315.29 1560.66 315.489C1561.15 315.55 1561.62 315.703 1562.04 315.794C1563.18 316.772 1562.8 317.932 1562.45 318.971C1562.02 320.238 1561.49 321.537 1559.62 321.704C1559.11 321.307 1558.43 320.803 1557.65 320.208Z" fill="#FFFCDF"/>
<path d="M1418.3 104.025C1417.2 104.025 1416.01 103.933 1414.85 104.101C1413.38 104.3 1412.74 105.247 1413.09 106.759C1413.4 108.118 1414.53 108.209 1415.55 108.194C1417.51 108.194 1419.05 105.934 1418.3 104.025Z" fill="#FFFCDF"/>
<path d="M708.534 157.258C708.381 158.175 708.427 159.045 708.076 159.671C707.679 160.374 707.022 161.137 706.304 161.382C705.021 161.809 703.586 162.13 702.242 161.443C701.937 161.29 701.631 161.046 701.463 160.756C700.959 159.839 700.455 158.892 700.073 157.915C699.936 157.579 699.997 156.999 700.211 156.724C700.868 155.914 701.57 155.075 702.425 154.479C703.143 153.975 704.014 153.853 705.021 154.189C706.442 154.647 707.602 155.273 708.305 156.617C708.427 156.861 708.488 157.136 708.534 157.258Z" fill="#FFFCDF"/>
<path d="M1419.51 276.454C1418.6 276.347 1417.84 276.225 1417.17 275.767C1416.05 275.003 1415.69 273.751 1416.28 272.514C1416.48 272.102 1416.54 271.628 1416.97 271.323C1418.18 270.437 1419.69 270.773 1420.57 272.147C1420.68 272.315 1420.73 272.545 1420.85 272.697C1421.22 273.11 1421.45 273.552 1421.29 274.118C1421.09 274.866 1420.94 275.66 1420.24 276.149C1419.99 276.317 1419.69 276.378 1419.51 276.454Z" fill="#FFFCDF"/>
<path d="M1404.61 858.028C1404.89 857.158 1405.21 856.287 1405.54 855.417C1406.05 854.119 1406.81 852.653 1408.14 852.149C1409.41 851.675 1410.66 852.393 1411.16 853.447C1411.67 854.485 1412.17 856.303 1412.31 857.494C1412.52 859.235 1412.97 860.899 1413.61 862.457C1413.94 863.251 1414.36 864.045 1415.12 864.443C1415.75 864.763 1416.54 864.778 1417.3 864.748C1419.23 864.672 1421.2 864.412 1423.08 864.565C1424.95 864.717 1426.79 865.374 1427.76 866.825C1428.05 867.253 1428.25 867.772 1428.12 868.337C1428.02 868.703 1427.76 869.055 1427.49 869.36C1426.28 870.673 1424.57 871.315 1422.94 871.895C1419.03 873.27 1414.94 873.987 1414.22 878.706C1413.53 883.166 1414.46 887.503 1413.45 891.962C1413.24 892.94 1412.9 893.948 1412.22 894.772C1411.53 895.597 1410.43 896.223 1409.48 896.07C1408.51 895.918 1407.96 895.047 1407.54 894.223C1406.25 891.626 1405.36 888.786 1404.95 885.808C1404.55 882.921 1403.85 879.271 1402.18 876.996C1400.34 874.476 1396.55 874.278 1393.23 873.804C1391.94 873.621 1390.52 873.254 1390.1 872.063C1389.57 870.505 1391.19 868.566 1392.9 867.695C1395.51 866.382 1399.8 866.138 1402.06 864.381C1403.16 863.526 1403.51 862.106 1403.82 860.838C1404.05 859.891 1404.32 858.945 1404.63 858.013L1404.61 858.028Z" fill="#FFFCDF"/>
<path d="M566.428 18.1246C565.664 18.9798 566.245 19.667 566.199 20.3695C566.168 20.8277 566.214 21.2858 566.428 21.6982C567.161 23.149 567.222 24.6304 567.085 26.1117C566.932 27.7916 566.947 29.5021 564 30.8002C561.48 30.3726 561.159 28.2651 559.998 26.8295C559.128 25.7452 558.807 24.4624 558.532 23.1795C558.288 22.0647 557.631 21.2858 556.791 20.675C556.074 20.1557 555.142 20.1557 554.302 20.1863C552.5 20.2321 550.698 20.4917 548.896 20.5375C547.613 20.568 546.33 20.4153 545.001 20.339L544.039 19.4227C544.055 18.766 543.795 18.0329 544.436 17.4526C544.604 17.2999 544.91 17.1319 544.925 16.9486C545.017 15.9407 545.857 15.5436 546.468 14.9786C547.094 14.3982 547.949 14.1081 548.483 13.3903C548.606 13.2223 548.911 13.207 549.125 13.0848C549.782 12.6878 550.377 12.2144 551.064 11.9089C551.721 11.6188 552.408 11.4049 552.973 10.9315C553.08 10.8399 553.248 10.8093 553.34 10.7177C553.951 10.1374 554.424 9.48069 554.195 8.56438C554.149 8.38112 554.18 8.16732 554.088 7.99933C553.462 6.86921 553.615 5.66274 553.829 4.50208C554.012 3.43305 554.363 2.36402 555.447 1.76842C555.86 1.53934 556.257 1.24917 556.654 0.989553C557.005 0.760475 557.341 0.745203 557.723 0.943736C558.318 1.2339 558.929 1.49352 559.265 2.13494C559.357 2.30293 559.449 2.50147 559.586 2.5931C560.304 3.09707 560.563 3.86066 560.793 4.65479C560.915 5.06713 561.113 5.44893 561.312 5.93763C561.709 5.73909 562.091 5.63219 562.35 5.40311C563.297 4.56316 564.183 3.64685 565.114 2.77636C566.489 1.90586 567.787 0.897922 569.238 0.149602C569.94 -0.216922 570.414 0.149602 570.902 0.607757C571.025 2.24184 570.399 3.73848 570.047 5.26567C569.681 6.07508 569.329 6.89975 568.688 7.58699C568.23 8.06041 567.924 8.67129 567.588 9.25162C567.42 9.55705 567.604 9.93885 567.924 10.0916C568.092 10.1679 568.276 10.229 568.459 10.2901C570.169 10.8857 571.895 11.466 573.606 12.0616C573.926 12.1685 574.201 12.3823 574.522 12.4587C575.179 12.6267 575.453 13.1001 575.576 13.6957C575.835 15.0091 575.499 16.353 574.079 17.1013C573.178 17.5748 572.292 17.8955 571.208 17.7122C570.429 17.5748 569.604 17.6511 568.795 17.8344C568.016 18.0177 567.191 18.0329 566.413 18.1093L566.428 18.1246Z" fill="#FFF9AE"/>
<path opacity="0.9" d="M217.428 1246.12C216.664 1246.98 217.245 1247.67 217.199 1248.37C217.168 1248.83 217.214 1249.29 217.428 1249.7C218.161 1251.15 218.222 1252.63 218.085 1254.11C217.932 1255.79 217.947 1257.5 215 1258.8C212.48 1258.37 212.159 1256.27 210.998 1254.83C210.128 1253.75 209.807 1252.46 209.532 1251.18C209.288 1250.06 208.631 1249.29 207.791 1248.67C207.074 1248.16 206.142 1248.16 205.302 1248.19C203.5 1248.23 201.698 1248.49 199.896 1248.54C198.613 1248.57 197.33 1248.42 196.001 1248.34L195.039 1247.42C195.055 1246.77 194.795 1246.03 195.436 1245.45C195.604 1245.3 195.91 1245.13 195.925 1244.95C196.017 1243.94 196.857 1243.54 197.468 1242.98C198.094 1242.4 198.949 1242.11 199.483 1241.39C199.606 1241.22 199.911 1241.21 200.125 1241.08C200.782 1240.69 201.377 1240.21 202.064 1239.91C202.721 1239.62 203.408 1239.4 203.973 1238.93C204.08 1238.84 204.248 1238.81 204.34 1238.72C204.951 1238.14 205.424 1237.48 205.195 1236.56C205.149 1236.38 205.18 1236.17 205.088 1236C204.462 1234.87 204.615 1233.66 204.829 1232.5C205.012 1231.43 205.363 1230.36 206.447 1229.77C206.86 1229.54 207.257 1229.25 207.654 1228.99C208.005 1228.76 208.341 1228.75 208.723 1228.94C209.318 1229.23 209.929 1229.49 210.265 1230.13C210.357 1230.3 210.449 1230.5 210.586 1230.59C211.304 1231.1 211.563 1231.86 211.793 1232.65C211.915 1233.07 212.113 1233.45 212.312 1233.94C212.709 1233.74 213.091 1233.63 213.35 1233.4C214.297 1232.56 215.183 1231.65 216.114 1230.78C217.489 1229.91 218.787 1228.9 220.238 1228.15C220.94 1227.78 221.414 1228.15 221.902 1228.61C222.025 1230.24 221.399 1231.74 221.047 1233.27C220.681 1234.08 220.329 1234.9 219.688 1235.59C219.23 1236.06 218.924 1236.67 218.588 1237.25C218.42 1237.56 218.604 1237.94 218.924 1238.09C219.092 1238.17 219.276 1238.23 219.459 1238.29C221.169 1238.89 222.895 1239.47 224.606 1240.06C224.926 1240.17 225.201 1240.38 225.522 1240.46C226.179 1240.63 226.453 1241.1 226.576 1241.7C226.835 1243.01 226.499 1244.35 225.079 1245.1C224.178 1245.57 223.292 1245.9 222.208 1245.71C221.429 1245.57 220.604 1245.65 219.795 1245.83C219.016 1246.02 218.191 1246.03 217.413 1246.11L217.428 1246.12Z" fill="#FFF9AE"/>
<path d="M1587 434.921C1587.29 432.615 1589.87 431.317 1591.67 432.371C1592.82 433.043 1593.28 434.616 1592.74 435.853C1592.1 437.288 1590.97 437.96 1589.46 438.098C1588.53 438.189 1587.31 437.304 1587.09 436.403C1587.05 436.204 1587 435.99 1587 435.777C1587 435.425 1587 435.074 1587 434.921Z" fill="#FFFCDF"/>
<path d="M1381.05 274.447C1380.78 274.538 1380.64 274.6 1380.52 274.63C1377.74 275.165 1377.49 274.233 1377.04 271.973C1376.68 270.232 1379.05 268.445 1380.69 269.163C1381.1 269.346 1381.51 269.758 1381.68 270.171C1382.09 271.163 1382.2 272.217 1381.68 273.24C1381.48 273.607 1381.3 273.989 1381.07 274.447H1381.05Z" fill="#FFFCDF"/>
</svg>
