<svg width="125" height="76" viewBox="0 0 125 76" fill="none" xmlns="http://www.w3.org/2000/svg">
<path d="M62.7919 1L62.7919 0H62.7919V1ZM86.5077 9.62598L85.865 10.3921L86.1965 10.6702L86.6261 10.6189L86.5077 9.62598ZM123.631 18.1953L124.582 17.8856L124.582 17.8856L123.631 18.1953ZM98.579 47.04L98.0906 46.1674L97.7156 46.3774L97.6098 46.7939L98.579 47.04ZM62.7919 74.8467L62.7919 75.8467L62.7919 75.8467L62.7919 74.8467ZM39.3798 66.4746L40.0143 65.7017L39.6818 65.4287L39.2548 65.4824L39.3798 66.4746ZM1.40422 58.0107L0.453392 58.3205L0.453393 58.3205L1.40422 58.0107ZM26.9882 28.8682L27.4725 29.7431L27.8519 29.5331L27.9579 29.1126L26.9882 28.8682ZM62.7919 1V0C62.4101 0 62.0296 0.00564579 61.6504 0.0168603L61.68 1.01642L61.7096 2.01599C62.069 2.00535 62.4298 2 62.7919 2V1ZM59.4645 1.1479L59.3756 0.151868C58.6138 0.219911 57.8584 0.310489 57.1102 0.422939L57.2588 1.41183L57.4074 2.40073C58.1161 2.29422 58.8317 2.20841 59.5535 2.14394L59.4645 1.1479ZM55.0748 1.80773L54.8668 0.829597C54.1197 0.98847 53.3807 1.16935 52.6505 1.37151L52.9174 2.33526L53.1842 3.299C53.8756 3.10757 54.5753 2.9363 55.2828 2.78586L55.0748 1.80773ZM50.7966 2.99228L50.4719 2.04647C49.7505 2.29416 49.0389 2.56299 48.3379 2.85222L48.7193 3.77662L49.1007 4.70103C49.7645 4.42715 50.4383 4.17261 51.1213 3.93808L50.7966 2.99228ZM46.6932 4.68525L46.2566 3.78559C45.5712 4.11819 44.8974 4.47082 44.2359 4.84271L44.7259 5.71441L45.2159 6.58612C45.8425 6.23388 46.4807 5.8999 47.1298 5.58491L46.6932 4.68525ZM42.8238 6.86033L42.2822 6.01967C41.6424 6.43185 41.0158 6.86274 40.4032 7.31156L40.9942 8.11823L41.5852 8.9249C42.1656 8.49967 42.7592 8.09146 43.3654 7.70099L42.8238 6.86033ZM39.243 9.48365L38.6048 8.7138C38.0193 9.19917 37.4487 9.7018 36.8937 10.2209L37.5768 10.9512L38.2599 11.6816C38.7858 11.1897 39.3265 10.7134 39.8813 10.2535L39.243 9.48365ZM36.0012 12.5158L35.2757 11.8276C34.7526 12.379 34.2459 12.9461 33.7564 13.5282L34.5218 14.1718L35.2871 14.8154C35.7509 14.2639 36.231 13.7265 36.7267 13.204L36.0012 12.5158ZM33.1442 15.9131L32.3417 15.3164C31.8885 15.926 31.4531 16.5496 31.0363 17.1866L31.8732 17.7341L32.71 18.2816C33.1048 17.6781 33.5172 17.0873 33.9467 16.5098L33.1442 15.9131ZM30.714 19.6276L29.8458 19.1314C29.4691 19.7904 29.1116 20.4619 28.7741 21.145L29.6706 21.588L30.5671 22.031C30.8868 21.384 31.2254 20.7481 31.5822 20.1238L30.714 19.6276ZM28.7477 23.6071L27.8261 23.2191C27.5318 23.9181 27.2578 24.6278 27.0049 25.3475L27.9484 25.679L28.8918 26.0105C29.1313 25.3291 29.3907 24.6571 29.6694 23.9951L28.7477 23.6071ZM27.2762 27.7949L26.3144 27.5212C26.2104 27.8865 26.1118 28.254 26.0185 28.6237L26.9882 28.8682L27.9579 29.1126C28.0461 28.7626 28.1395 28.4146 28.238 28.0687L27.2762 27.7949ZM26.9882 28.8682L26.5039 27.9933C26.1653 28.1807 25.8293 28.3686 25.496 28.5571L25.9881 29.4276L26.4802 30.2981C26.8084 30.1127 27.1391 29.9276 27.4725 29.7431L26.9882 28.8682ZM24.0118 30.569L23.5035 29.7078C22.8346 30.1026 22.1772 30.4993 21.5318 30.8976L22.057 31.7486L22.5822 32.5996C23.2161 32.2083 23.8622 31.8184 24.52 31.4303L24.0118 30.569ZM20.1238 32.97L19.5806 32.1304C18.9261 32.5539 18.2852 32.9789 17.6585 33.4052L18.2209 34.2321L18.7833 35.0589C19.397 34.6415 20.025 34.225 20.667 33.8096L20.1238 32.97ZM16.3504 35.5384L15.7674 34.7259C15.1299 35.1833 14.5089 35.6418 13.905 36.1011L14.5103 36.8971L15.1155 37.6931C15.7043 37.2454 16.3104 36.7979 16.9334 36.3509L16.3504 35.5384ZM12.7168 38.3042L12.0872 37.5272C11.4733 38.0247 10.8798 38.5227 10.3074 39.0207L10.9638 39.7751L11.6201 40.5295C12.1741 40.0475 12.7497 39.5646 13.3463 39.0811L12.7168 38.3042ZM9.27303 41.3052L8.58692 40.5777C8.00704 41.1246 7.45334 41.6712 6.92684 42.2168L7.64643 42.9112L8.36602 43.6056C8.8695 43.0838 9.40078 42.5593 9.95914 42.0327L9.27303 41.3052ZM6.10497 44.5983L5.34742 43.9455C4.8196 44.5581 4.32721 45.1692 3.87193 45.7779L4.67275 46.3768L5.47357 46.9757C5.89922 46.4066 6.36247 45.8314 6.86252 45.2511L6.10497 44.5983ZM3.38303 48.2609L2.53302 47.7342C2.09677 48.4381 1.71253 49.1392 1.38372 49.836L2.28808 50.2628L3.19244 50.6896C3.48577 50.068 3.83282 49.4335 4.23305 48.7877L3.38303 48.2609ZM1.46681 52.3894L0.50816 52.1048C0.264535 52.9255 0.10496 53.7401 0.0372624 54.545L1.03374 54.6288L2.03023 54.7126C2.08536 54.0571 2.21672 53.3771 2.42546 52.674L1.46681 52.3894ZM1.1281 56.9037L0.143254 57.0771C0.217355 57.4979 0.320526 57.9126 0.453392 58.3205L1.40422 58.0107L2.35504 57.701C2.25148 57.3831 2.17093 57.0595 2.11294 56.7302L1.1281 56.9037ZM1.40422 58.0107L0.453393 58.3205C0.586703 58.7297 0.748217 59.1269 0.936953 59.5117L1.8348 59.0714L2.73264 58.6311C2.58494 58.3299 2.45895 58.02 2.35504 57.701L1.40422 58.0107ZM3.10422 60.9705L2.34907 61.6261C2.88017 62.2379 3.49171 62.8032 4.17504 63.3237L4.78094 62.5281L5.38684 61.7326C4.80114 61.2865 4.29204 60.8134 3.85937 60.315L3.10422 60.9705ZM6.70533 63.764L6.22722 64.6423C6.906 65.0118 7.6323 65.352 8.40245 65.6638L8.77771 64.7369L9.15296 63.81C8.44614 63.5238 7.78921 63.2155 7.18344 62.8857L6.70533 63.764ZM10.938 65.4992L10.6449 66.4553C11.374 66.6787 12.1346 66.8821 12.9247 67.0657L13.1511 66.0917L13.3774 65.1177C12.6287 64.9437 11.9128 64.752 11.231 64.5431L10.938 65.4992ZM15.3985 66.5457L15.2272 67.5309C15.9767 67.6612 16.7488 67.7761 17.5422 67.8758L17.6669 66.8837L17.7917 65.8915C17.0275 65.7954 16.2865 65.685 15.5697 65.5604L15.3985 66.5457ZM19.9423 67.1223L19.8574 68.1187C20.6158 68.1833 21.3913 68.2354 22.183 68.275L22.233 67.2763L22.2829 66.2775C21.5135 66.239 20.7613 66.1885 20.0271 66.1259L19.9423 67.1223ZM24.5188 67.3546L24.4996 68.3545C25.2607 68.369 26.0352 68.373 26.8224 68.3662L26.8138 67.3663L26.8052 66.3663C26.0359 66.3729 25.2799 66.369 24.538 66.3548L24.5188 67.3546ZM29.1023 67.3175L29.1359 68.317C29.8959 68.2914 30.6666 68.2565 31.4475 68.2122L31.3909 67.2138L31.3343 66.2154C30.5683 66.2588 29.8129 66.293 29.0687 66.3181L29.1023 67.3175ZM33.68 67.0593L33.7578 68.0562C34.5165 67.997 35.2838 67.9293 36.0593 67.8533L35.9617 66.8581L35.8642 65.8628C35.1015 65.9376 34.3473 66.0041 33.6021 66.0623L33.68 67.0593ZM38.2385 66.6132L38.3545 67.6064C38.7361 67.5618 39.1196 67.5153 39.5048 67.4668L39.3798 66.4746L39.2548 65.4824C38.8755 65.5302 38.498 65.5761 38.1224 65.62L38.2385 66.6132ZM39.3798 66.4746L38.7453 67.2475C39.0248 67.477 39.3076 67.7025 39.5937 67.9241L40.206 67.1334L40.8183 66.3428C40.5472 66.1329 40.2792 65.9191 40.0143 65.7017L39.3798 66.4746ZM41.9131 68.3792L41.3469 69.2035C41.9426 69.6127 42.5506 70.0053 43.1703 70.3808L43.6885 69.5255L44.2067 68.6703C43.6197 68.3146 43.0437 67.9426 42.4793 67.5549L41.9131 68.3792ZM45.5265 70.5684L45.0581 71.4519C45.6963 71.7902 46.3453 72.1108 47.0045 72.4131L47.4213 71.5041L47.8382 70.5951C47.2139 70.3089 46.5993 70.0052 45.9948 69.6848L45.5265 70.5684ZM49.3669 72.3294L49.0031 73.2609C49.6753 73.5234 50.3568 73.7674 51.0471 73.992L51.3566 73.0411L51.6661 72.0902C51.0126 71.8775 50.3672 71.6465 49.7307 71.3979L49.3669 72.3294ZM53.3841 73.637L53.13 74.6042C53.8273 74.7874 54.5324 74.9513 55.2448 75.0952L55.4428 74.115L55.6408 73.1348C54.9663 72.9985 54.2986 72.8434 53.6383 72.6698L53.3841 73.637ZM57.5252 74.4738L57.3837 75.4637C58.0965 75.5655 58.8156 75.6475 59.5404 75.7091L59.6251 74.7127L59.7097 73.7163C59.0229 73.658 58.3417 73.5803 57.6666 73.4838L57.5252 74.4738ZM61.7349 74.8318L61.7067 75.8314C62.0673 75.8416 62.429 75.8467 62.7919 75.8467V74.8467V73.8467C62.4477 73.8467 62.1047 73.8418 61.763 73.8322L61.7349 74.8318ZM62.7919 74.8467L62.7919 75.8467C63.1732 75.8467 63.5532 75.841 63.9319 75.8299L63.9024 74.8303L63.8728 73.8307C63.5139 73.8413 63.1535 73.8467 62.7919 73.8467L62.7919 74.8467ZM66.1149 74.6992L66.2038 75.6952C66.9646 75.6273 67.7189 75.537 68.4662 75.4248L68.3178 74.4359L68.1694 73.447C67.4616 73.5532 66.7469 73.6388 66.0261 73.7031L66.1149 74.6992ZM70.499 74.0411L70.7067 75.0192C71.4529 74.8608 72.191 74.6804 72.9203 74.4787L72.6538 73.5149L72.3873 72.5511C71.6968 72.742 70.9979 72.9128 70.2913 73.0629L70.499 74.0411ZM74.772 72.8596L75.0964 73.8055C75.8169 73.5585 76.5277 73.2903 77.2279 73.0018L76.8469 72.0772L76.466 71.1526C75.803 71.4258 75.13 71.6797 74.4477 71.9136L74.772 72.8596ZM78.8709 71.1709L79.3069 72.0708C79.9916 71.739 80.6648 71.3873 81.3257 71.0163L80.8363 70.1443L80.3468 69.2723C79.7208 69.6236 79.0832 69.9568 78.4348 70.271L78.8709 71.1709ZM82.7366 69.0012L83.2776 69.8422C83.9169 69.4311 84.543 69.0012 85.1551 68.5535L84.5648 67.7463L83.9744 66.9392C83.3944 67.3634 82.8013 67.7706 82.1957 68.1601L82.7366 69.0012ZM86.3148 66.3842L86.9523 67.1546C87.5375 66.6704 88.1078 66.1689 88.6626 65.651L87.9802 64.92L87.2978 64.189C86.7721 64.6798 86.2317 65.155 85.6772 65.6138L86.3148 66.3842ZM89.5553 63.3591L90.2801 64.048C90.803 63.4979 91.3096 62.932 91.7991 62.3513L91.0345 61.7068L90.2699 61.0624C89.806 61.6126 89.326 62.1488 88.8305 62.6701L89.5553 63.3591ZM92.4122 59.9694L93.214 60.567C93.6674 59.9588 94.1029 59.3365 94.5199 58.7009L93.6838 58.1524L92.8477 57.6038C92.4527 58.2059 92.04 58.7955 91.6105 59.3718L92.4122 59.9694ZM94.8439 56.2628L95.7114 56.7602C96.0885 56.1025 96.4465 55.4324 96.7845 54.7507L95.8886 54.3064L94.9928 53.8622C94.6726 54.5078 94.3336 55.1425 93.9764 55.7655L94.8439 56.2628ZM96.8133 52.2913L97.7344 52.6808C98.0293 51.9831 98.304 51.2747 98.5577 50.5565L97.6148 50.2234L96.6719 49.8904C96.4317 50.5705 96.1716 51.2413 95.8922 51.9019L96.8133 52.2913ZM98.2896 48.1114L99.2509 48.3868C99.3554 48.0221 99.4545 47.6552 99.5483 47.2862L98.579 47.04L97.6098 46.7939C97.521 47.1433 97.4272 47.4907 97.3283 47.836L98.2896 48.1114ZM98.579 47.04L99.0675 47.9126C99.4002 47.7264 99.7303 47.5396 100.058 47.3524L99.5617 46.4842L99.0654 45.616C98.7431 45.8003 98.4181 45.9841 98.0906 46.1674L98.579 47.04ZM101.503 45.3506L102.016 46.2094C102.673 45.8173 103.319 45.4234 103.953 45.0279L103.424 44.1794L102.894 43.3309C102.272 43.7193 101.637 44.1063 100.991 44.4918L101.503 45.3506ZM105.322 42.9671L105.87 43.804C106.512 43.3837 107.142 42.9619 107.757 42.5389L107.191 41.7148L106.624 40.8907C106.022 41.3047 105.405 41.7179 104.775 42.1301L105.322 42.9671ZM109.027 40.4188L109.614 41.2285C110.24 40.7747 110.85 40.3199 111.443 39.8644L110.834 39.0714L110.224 38.2785C109.647 38.7222 109.052 39.1659 108.441 39.6092L109.027 40.4188ZM112.593 37.6765L113.227 38.4502C113.829 37.9568 114.412 37.463 114.973 36.9693L114.313 36.2183L113.652 35.4674C113.109 35.945 112.545 36.4236 111.96 36.9027L112.593 37.6765ZM115.971 34.7018L116.661 35.4255C117.229 34.8836 117.772 34.342 118.287 33.8014L117.564 33.1111L116.84 32.4208C116.347 32.9373 115.827 33.4566 115.28 33.9781L115.971 34.7018ZM119.073 31.4401L119.834 32.0884C120.351 31.4816 120.832 30.8762 121.278 30.2732L120.473 29.6793L119.668 29.0854C119.253 29.6485 118.8 30.2176 118.311 30.7919L119.073 31.4401ZM121.731 27.8151L122.585 28.3362C123.01 27.6397 123.384 26.946 123.704 26.2565L122.797 25.8359L121.89 25.4153C121.605 26.0292 121.268 26.6559 120.878 27.294L121.731 27.8151ZM123.592 23.735L124.552 24.0133C124.787 23.2035 124.94 22.3996 125.002 21.6053L124.005 21.5267L123.008 21.448C122.957 22.0941 122.832 22.7641 122.631 23.4567L123.592 23.735ZM123.904 19.2857L124.888 19.1102C124.815 18.6959 124.713 18.2874 124.582 17.8856L123.631 18.1953L122.68 18.505C122.782 18.8182 122.862 19.137 122.919 19.4612L123.904 19.2857ZM123.631 18.1953L124.582 17.8856C124.451 17.4849 124.293 17.0957 124.11 16.7183L123.211 17.1561L122.312 17.5938C122.455 17.889 122.578 18.1927 122.68 18.505L123.631 18.1953ZM121.977 15.2896L122.737 14.6396C122.221 14.0357 121.626 13.4766 120.962 12.961L120.349 13.7508L119.736 14.5407C120.303 14.9816 120.797 15.4484 121.217 15.9396L121.977 15.2896ZM118.476 12.5223L118.962 11.6487C118.3 11.2799 117.591 10.9396 116.84 10.6271L116.456 11.5504L116.072 12.4738C116.76 12.7599 117.4 13.0676 117.989 13.396L118.476 12.5223ZM114.348 10.7846L114.649 9.83121C113.937 9.60575 113.193 9.39989 112.42 9.21338L112.186 10.1855L111.951 11.1575C112.682 11.334 113.381 11.5276 114.046 11.7381L114.348 10.7846ZM109.989 9.72259L110.168 8.73879C109.435 8.60524 108.68 8.48664 107.903 8.3829L107.771 9.37409L107.638 10.3653C108.385 10.4651 109.109 10.5788 109.809 10.7064L109.989 9.72259ZM105.544 9.12329L105.637 8.12756C104.894 8.05869 104.135 8.00205 103.359 7.9576L103.302 8.95596L103.245 9.95432C103.998 9.99748 104.734 10.0524 105.452 10.119L105.544 9.12329ZM101.065 8.86314L101.091 7.86349C100.346 7.84391 99.5873 7.83474 98.8163 7.83598L98.8179 8.83598L98.8195 9.83597C99.5726 9.83477 100.312 9.84372 101.039 9.8628L101.065 8.86314ZM96.5765 8.86823L96.5498 7.86859C95.8053 7.88854 95.0503 7.9176 94.2852 7.95578L94.3351 8.95454L94.3849 9.9533C95.135 9.91586 95.8747 9.8874 96.6033 9.86787L96.5765 8.86823ZM92.0927 9.09077L92.0215 8.0933C91.2782 8.14633 90.5262 8.20755 89.7661 8.27697L89.857 9.27282L89.948 10.2687C90.6952 10.2004 91.434 10.1403 92.1638 10.0882L92.0927 9.09077ZM87.6262 9.49771L87.5168 8.50372C87.1428 8.54491 86.767 8.588 86.3894 8.633L86.5077 9.62598L86.6261 10.6189C86.9978 10.5746 87.3677 10.5322 87.7357 10.4917L87.6262 9.49771ZM86.5077 9.62598L87.1505 8.85989C86.8691 8.62383 86.5843 8.39177 86.296 8.16381L85.6757 8.94815L85.0554 9.73249C85.3285 9.9485 85.5984 10.1684 85.865 10.3921L86.5077 9.62598ZM83.9545 7.666L84.5284 6.84709C83.9273 6.42582 83.3134 6.02153 82.6874 5.6349L82.162 6.48571L81.6365 7.33651C82.2295 7.70277 82.8111 8.08579 83.3806 8.48491L83.9545 7.666ZM80.304 5.41149L80.7791 4.53157C80.1336 4.18304 79.4769 3.85266 78.8095 3.54111L78.3865 4.44724L77.9635 5.35336C78.5955 5.64839 79.2175 5.96129 79.8288 6.29141L80.304 5.41149ZM76.416 3.59653L76.7853 2.66723C76.1042 2.39654 75.4135 2.14501 74.7136 1.91331L74.3993 2.86264L74.085 3.81196C74.7476 4.03134 75.4017 4.26951 76.0467 4.52582L76.416 3.59653ZM72.343 2.24807L72.6011 1.28197C71.8937 1.09294 71.1782 0.923865 70.4551 0.775378L70.254 1.75493L70.0528 2.73449C70.7375 2.8751 71.415 3.0352 72.0848 3.21418L72.343 2.24807ZM68.1402 1.3848L68.2839 0.395174C67.5603 0.290112 66.8301 0.205501 66.094 0.14194L66.008 1.13823L65.922 2.13453C66.6195 2.19475 67.3112 2.27491 67.9965 2.37442L68.1402 1.3848ZM63.8654 1.01532L63.894 0.0157291C63.5279 0.00526743 63.1605 1.19245e-06 62.7919 0L62.7919 1L62.7919 2C63.1415 2 63.4898 2.005 63.8369 2.01491L63.8654 1.01532Z" fill="#FFE7F0"/>
<path d="M47.8994 38.9746C47.8994 42.2012 45.8896 44.0605 43.2783 44.0605C40.6396 44.0605 38.6436 42.1875 38.6436 38.9746C38.6436 35.748 40.6396 33.8887 43.2783 33.8887C45.8896 33.8887 47.8994 35.748 47.8994 38.9746ZM45.8076 38.9746C45.8076 36.8555 44.8096 35.707 43.2783 35.707C41.7471 35.707 40.7354 36.8555 40.7354 38.9746C40.7354 41.0938 41.7471 42.2422 43.2783 42.2422C44.8096 42.2422 45.8076 41.0938 45.8076 38.9746ZM57.6338 34.0254V43.9238H55.8564L51.5088 37.6348H51.4268V43.9238H49.376V34.0254H51.1807L55.501 40.3145H55.5967V34.0254H57.6338ZM59.3018 43.9238V34.0254H61.3525V42.2285H65.6182V43.9238H59.3018ZM68.9951 34.0254V43.9238H66.9443V34.0254H68.9951ZM78.9209 34.0254V43.9238H77.1436L72.7959 37.6348H72.7139V43.9238H70.6631V34.0254H72.4678L76.7881 40.3145H76.8838V34.0254H78.9209ZM80.5889 43.9238V34.0254H87.2334V35.7207H82.6396V38.127H86.8916V39.8223H82.6396V42.2285H87.2471V43.9238H80.5889Z" fill="#F0679C"/>
</svg>
