<svg width="125" height="76" viewBox="0 0 125 76" fill="none" xmlns="http://www.w3.org/2000/svg">
<path d="M62.7914 1L62.7914 0L62.7914 0L62.7914 1ZM86.5082 9.62598L85.8654 10.3921L86.1969 10.6702L86.6265 10.6189L86.5082 9.62598ZM123.63 18.1953L124.581 17.8856L124.581 17.8856L123.63 18.1953ZM98.5785 47.04L98.09 46.1674L97.715 46.3774L97.6093 46.7939L98.5785 47.04ZM62.7914 74.8467L62.7914 75.8467H62.7914V74.8467ZM39.3793 66.4746L40.0138 65.7017L39.6812 65.4287L39.2543 65.4824L39.3793 66.4746ZM1.40369 58.0107L0.452857 58.3205L0.452863 58.3205L1.40369 58.0107ZM26.9877 28.8682L27.472 29.7431L27.8513 29.5331L27.9573 29.1126L26.9877 28.8682ZM62.7914 1L62.7914 0C62.4096 2.47058e-06 62.029 0.00565068 61.6499 0.0168675L61.6795 1.01643L61.709 2.01599C62.0685 2.00536 62.4293 2 62.7914 2L62.7914 1ZM59.464 1.14792L59.375 0.151889C58.6133 0.219936 57.8579 0.310518 57.1096 0.422972L57.2583 1.41187L57.4069 2.40076C58.1156 2.29425 58.8312 2.20843 59.553 2.14396L59.464 1.14792ZM55.0743 1.80777L54.8663 0.829639C54.1192 0.988515 53.3802 1.16939 52.65 1.37156L52.9169 2.3353L53.1837 3.29904C53.8751 3.10762 54.5748 2.93634 55.2823 2.7859L55.0743 1.80777ZM50.7961 2.99233L50.4714 2.04653C49.75 2.29422 49.0384 2.56305 48.3374 2.85227L48.7188 3.77668L49.1002 4.70108C49.764 4.42721 50.4378 4.17266 51.1208 3.93813L50.7961 2.99233ZM46.6927 4.68531L46.2561 3.78564C45.5707 4.11825 44.8969 4.47088 44.2354 4.84276L44.7254 5.71447L45.2154 6.58617C45.842 6.23393 46.4802 5.89996 47.1293 5.58497L46.6927 4.68531ZM42.8233 6.86038L42.2817 6.01972C41.6419 6.4319 41.0153 6.86278 40.4027 7.3116L40.9937 8.11828L41.5847 8.92495C42.1651 8.49972 42.7587 8.09151 43.3649 7.70105L42.8233 6.86038ZM39.2425 9.48369L38.6043 8.71384C38.0188 9.1992 37.4482 9.70183 36.8932 10.2209L37.5763 10.9513L38.2594 11.6816C38.7853 11.1897 39.326 10.7134 39.8808 10.2535L39.2425 9.48369ZM36.0007 12.5158L35.2752 11.8276C34.7521 12.379 34.2454 12.9461 33.7559 13.5282L34.5213 14.1718L35.2866 14.8154C35.7504 14.2639 36.2305 13.7266 36.7262 13.2041L36.0007 12.5158ZM33.1437 15.9131L32.3412 15.3164C31.888 15.926 31.4526 16.5496 31.0358 17.1866L31.8726 17.7341L32.7094 18.2816C33.1042 17.6782 33.5167 17.0873 33.9461 16.5098L33.1437 15.9131ZM30.7135 19.6276L29.8453 19.1314C29.4686 19.7904 29.1111 20.4619 28.7736 21.145L29.6701 21.588L30.5666 22.031C30.8863 21.384 31.2249 20.7481 31.5817 20.1238L30.7135 19.6276ZM28.7472 23.6071L27.8256 23.2191C27.5313 23.9181 27.2573 24.6278 27.0044 25.3475L27.9479 25.679L28.8913 26.0105C29.1308 25.3291 29.3902 24.6571 29.6688 23.9951L28.7472 23.6071ZM27.2756 27.7949L26.3138 27.5212C26.2099 27.8864 26.1112 28.254 26.018 28.6237L26.9877 28.8682L27.9573 29.1126C28.0456 28.7626 28.139 28.4146 28.2374 28.0687L27.2756 27.7949ZM26.9877 28.8682L26.5033 27.9933C26.1648 28.1807 25.8288 28.3686 25.4955 28.5571L25.9876 29.4276L26.4797 30.2981C26.8078 30.1126 27.1386 29.9276 27.472 29.7431L26.9877 28.8682ZM24.0112 30.569L23.503 29.7078C22.8341 30.1026 22.1767 30.4993 21.5313 30.8976L22.0565 31.7486L22.5817 32.5996C23.2156 32.2083 23.8617 31.8185 24.5195 31.4303L24.0112 30.569ZM20.1233 32.97L19.5801 32.1305C18.9256 32.5539 18.2847 32.979 17.658 33.4052L18.2204 34.2321L18.7828 35.059C19.3965 34.6415 20.0246 34.225 20.6665 33.8096L20.1233 32.97ZM16.3499 35.5384L15.767 34.7259C15.1294 35.1833 14.5084 35.6419 13.9045 36.1011L14.5098 36.8971L15.1151 37.6931C15.7038 37.2455 16.3099 36.7979 16.9329 36.3509L16.3499 35.5384ZM12.7163 38.3042L12.0868 37.5273C11.4728 38.0247 10.8793 38.5227 10.3069 39.0207L10.9633 39.7751L11.6197 40.5296C12.1737 40.0476 12.7493 39.5646 13.3459 39.0812L12.7163 38.3042ZM9.27258 41.3053L8.58647 40.5778C8.0066 41.1247 7.4529 41.6712 6.9264 42.2168L7.64599 42.9112L8.36558 43.6056C8.86906 43.0839 9.40034 42.5594 9.9587 42.0327L9.27258 41.3053ZM6.10454 44.5983L5.34699 43.9456C4.81917 44.5581 4.32679 45.1692 3.87151 45.778L4.67233 46.3769L5.47314 46.9758C5.89879 46.4066 6.36204 45.8314 6.86209 45.2511L6.10454 44.5983ZM3.38261 48.2609L2.53259 47.7342C2.09635 48.4381 1.71211 49.1393 1.38329 49.8361L2.28764 50.2628L3.192 50.6896C3.48534 50.068 3.83239 49.4335 4.23262 48.7877L3.38261 48.2609ZM1.46636 52.3894L0.507715 52.1048C0.264082 52.9255 0.104498 53.7401 0.0367876 54.545L1.03327 54.6288L2.02975 54.7126C2.0849 54.0571 2.21626 53.3771 2.42501 52.674L1.46636 52.3894ZM1.12758 56.9037L0.142739 57.0771C0.216833 57.4979 0.319997 57.9126 0.452857 58.3205L1.40369 58.0107L2.35452 57.701C2.25096 57.3831 2.17041 57.0595 2.11243 56.7303L1.12758 56.9037ZM1.40369 58.0107L0.452863 58.3205C0.586172 58.7297 0.747687 59.1269 0.936425 59.5117L1.83427 59.0714L2.73211 58.6311C2.5844 58.3299 2.45841 58.02 2.35451 57.701L1.40369 58.0107ZM3.1037 60.9705L2.34855 61.6261C2.87966 62.2379 3.4912 62.8032 4.17453 63.3237L4.78043 62.5281L5.38632 61.7326C4.80062 61.2865 4.29152 60.8134 3.85884 60.315L3.1037 60.9705ZM6.70482 63.764L6.22672 64.6423C6.9055 65.0118 7.6318 65.352 8.40195 65.6638L8.7772 64.7369L9.15245 63.8099C8.44564 63.5238 7.7887 63.2154 7.18293 62.8857L6.70482 63.764ZM10.9375 65.4991L10.6444 66.4552C11.3735 66.6787 12.1341 66.8821 12.9242 67.0657L13.1506 66.0916L13.3769 65.1176C12.6282 64.9436 11.9123 64.752 11.2305 64.543L10.9375 65.4991ZM15.398 66.5456L15.2267 67.5308C15.9762 67.6611 16.7483 67.776 17.5417 67.8758L17.6664 66.8836L17.7912 65.8914C17.027 65.7953 16.286 65.685 15.5692 65.5604L15.398 66.5456ZM19.9417 67.1223L19.8569 68.1187C20.6153 68.1833 21.3908 68.2354 22.1825 68.275L22.2325 67.2762L22.2824 66.2775C21.5129 66.239 20.7607 66.1884 20.0266 66.1259L19.9417 67.1223ZM24.5183 67.3546L24.4991 68.3544C25.2602 68.369 26.0347 68.3729 26.8218 68.3662L26.8133 67.3662L26.8047 66.3663C26.0354 66.3728 25.2794 66.369 24.5375 66.3548L24.5183 67.3546ZM29.1018 67.3175L29.1354 68.3169C29.8954 68.2914 30.6661 68.2564 31.447 68.2122L31.3904 67.2138L31.3338 66.2154C30.5678 66.2588 29.8124 66.293 29.0681 66.3181L29.1018 67.3175ZM33.6795 67.0592L33.7573 68.0562C34.5159 67.997 35.2833 67.9293 36.0588 67.8533L35.9612 66.8581L35.8636 65.8628C35.1009 65.9376 34.3468 66.0041 33.6016 66.0623L33.6795 67.0592ZM38.2379 66.6132L38.354 67.6064C38.7356 67.5618 39.119 67.5153 39.5042 67.4668L39.3793 66.4746L39.2543 65.4824C38.875 65.5302 38.4975 65.5761 38.1218 65.62L38.2379 66.6132ZM39.3793 66.4746L38.7447 67.2475C39.0242 67.477 39.3071 67.7025 39.5932 67.9241L40.2055 67.1334L40.8177 66.3428C40.5467 66.1329 40.2786 65.9191 40.0138 65.7017L39.3793 66.4746ZM41.9126 68.3792L41.3464 69.2035C41.9421 69.6127 42.5501 70.0054 43.1697 70.3808L43.6879 69.5255L44.2061 68.6703C43.6192 68.3146 43.0432 67.9427 42.4788 67.555L41.9126 68.3792ZM45.5259 70.5684L45.0576 71.4519C45.6958 71.7902 46.3448 72.1108 47.0039 72.4131L47.4208 71.5041L47.8376 70.5952C47.2134 70.3089 46.5987 70.0052 45.9943 69.6848L45.5259 70.5684ZM49.3664 72.3294L49.0026 73.2609C49.6748 73.5234 50.3563 73.7674 51.0465 73.992L51.356 73.0411L51.6656 72.0902C51.012 71.8775 50.3667 71.6465 49.7302 71.3979L49.3664 72.3294ZM53.3836 73.637L53.1294 74.6041C53.8267 74.7874 54.5319 74.9513 55.2443 75.0952L55.4423 74.115L55.6403 73.1348C54.9657 72.9985 54.298 72.8433 53.6377 72.6698L53.3836 73.637ZM57.5246 74.4738L57.3832 75.4637C58.0959 75.5655 58.815 75.6475 59.5398 75.7091L59.6245 74.7127L59.7092 73.7163C59.0224 73.6579 58.3412 73.5803 57.6661 73.4838L57.5246 74.4738ZM61.7343 74.8318L61.7062 75.8314C62.0667 75.8416 62.4285 75.8467 62.7914 75.8467L62.7914 74.8467L62.7914 73.8467C62.4472 73.8467 62.1042 73.8418 61.7624 73.8322L61.7343 74.8318ZM62.7914 74.8467V75.8467C63.1727 75.8467 63.5527 75.841 63.9314 75.8299L63.9018 74.8303L63.8723 73.8307C63.5133 73.8413 63.153 73.8467 62.7914 73.8467V74.8467ZM66.1144 74.6992L66.2033 75.6952C66.964 75.6273 67.7184 75.537 68.4657 75.4249L68.3173 74.4359L68.1689 73.447C67.4611 73.5532 66.7464 73.6388 66.0256 73.7031L66.1144 74.6992ZM70.4985 74.0411L70.7062 75.0193C71.4524 74.8608 72.1905 74.6804 72.9198 74.4787L72.6533 73.5149L72.3867 72.5511C71.6962 72.742 70.9973 72.9128 70.2908 73.0629L70.4985 74.0411ZM74.7715 72.8596L75.0958 73.8055C75.8164 73.5585 76.5271 73.2903 77.2274 73.0018L76.8464 72.0772L76.4655 71.1526C75.8024 71.4258 75.1294 71.6797 74.4472 71.9136L74.7715 72.8596ZM78.8703 71.1709L79.3064 72.0708C79.9911 71.739 80.6643 71.3873 81.3252 71.0163L80.8357 70.1443L80.3463 69.2723C79.7203 69.6236 79.0827 69.9568 78.4343 70.271L78.8703 71.1709ZM82.7361 69.0012L83.2771 69.8423C83.9163 69.4311 84.5425 69.0012 85.1546 68.5535L84.5643 67.7463L83.9739 66.9392C83.3939 67.3634 82.8008 67.7706 82.1952 68.1601L82.7361 69.0012ZM86.3143 66.3842L86.9518 67.1546C87.5369 66.6704 88.1073 66.1689 88.662 65.651L87.9796 64.92L87.2972 64.1891C86.7716 64.6798 86.2311 65.155 85.6767 65.6138L86.3143 66.3842ZM89.5547 63.3591L90.2795 64.048C90.8025 63.4979 91.3091 62.9321 91.7986 62.3513L91.0339 61.7068L90.2693 61.0624C89.8055 61.6126 89.3255 62.1488 88.8299 62.6701L89.5547 63.3591ZM92.4117 59.9694L93.2135 60.567C93.6668 59.9588 94.1024 59.3365 94.5194 58.7009L93.6833 58.1524L92.8472 57.6038C92.4521 58.2059 92.0395 58.7955 91.6099 59.3718L92.4117 59.9694ZM94.8434 56.2628L95.7109 56.7602C96.088 56.1025 96.4459 55.4325 96.784 54.7507L95.8881 54.3065L94.9922 53.8622C94.672 54.5078 94.333 55.1425 93.9758 55.7655L94.8434 56.2628ZM96.8127 52.2913L97.7338 52.6808C98.0288 51.9831 98.3035 51.2747 98.5572 50.5565L97.6143 50.2234L96.6713 49.8904C96.4311 50.5705 96.171 51.2413 95.8917 51.9019L96.8127 52.2913ZM98.2891 48.1114L99.2504 48.3868C99.3549 48.0221 99.454 47.6552 99.5477 47.2862L98.5785 47.04L97.6093 46.7939C97.5205 47.1433 97.4266 47.4907 97.3277 47.836L98.2891 48.1114ZM98.5785 47.04L99.0669 47.9126C99.3996 47.7264 99.7298 47.5396 100.057 47.3524L99.5611 46.4842L99.0649 45.616C98.7426 45.8003 98.4176 45.9841 98.09 46.1674L98.5785 47.04ZM101.503 45.3506L102.015 46.2094C102.672 45.8173 103.318 45.4234 103.952 45.0279L103.423 44.1794L102.894 43.3309C102.271 43.7193 101.637 44.1063 100.99 44.4918L101.503 45.3506ZM105.322 42.9671L105.869 43.8041C106.512 43.3837 107.141 42.9619 107.757 42.539L107.19 41.7148L106.624 40.8907C106.022 41.3047 105.405 41.7179 104.775 42.1301L105.322 42.9671ZM109.027 40.4189L109.614 41.2285C110.24 40.7747 110.85 40.3199 111.442 39.8644L110.833 39.0715L110.224 38.2785C109.646 38.7222 109.051 39.166 108.44 39.6092L109.027 40.4189ZM112.593 37.6765L113.226 38.4502C113.829 37.9569 114.411 37.4631 114.973 36.9693L114.312 36.2184L113.652 35.4674C113.109 35.945 112.544 36.4236 111.959 36.9028L112.593 37.6765ZM115.97 34.7018L116.66 35.4256C117.229 34.8836 117.771 34.342 118.287 33.8015L117.563 33.1112L116.84 32.4209C116.347 32.9374 115.827 33.4567 115.28 33.9781L115.97 34.7018ZM119.072 31.4402L119.834 32.0884C120.35 31.4816 120.832 30.8762 121.277 30.2732L120.472 29.6793L119.668 29.0855C119.252 29.6485 118.8 30.2177 118.311 30.7919L119.072 31.4402ZM121.731 27.8151L122.585 28.3362C123.01 27.6397 123.384 26.946 123.704 26.2565L122.796 25.8359L121.889 25.4153C121.604 26.0293 121.267 26.656 120.878 27.294L121.731 27.8151ZM123.591 23.735L124.552 24.0133C124.787 23.2035 124.939 22.3996 125.002 21.6053L124.005 21.5267L123.008 21.448C122.957 22.0942 122.832 22.7641 122.631 23.4568L123.591 23.735ZM123.903 19.2857L124.888 19.1102C124.814 18.6959 124.712 18.2874 124.581 17.8856L123.63 18.1953L122.679 18.505C122.781 18.8183 122.861 19.137 122.919 19.4612L123.903 19.2857ZM123.63 18.1953L124.581 17.8856C124.451 17.4849 124.293 17.0957 124.109 16.7184L123.21 17.1561L122.311 17.5938C122.455 17.889 122.578 18.1927 122.679 18.505L123.63 18.1953ZM121.977 15.2896L122.737 14.6397C122.22 14.0357 121.626 13.4767 120.962 12.9611L120.349 13.7509L119.735 14.5408C120.303 14.9816 120.797 15.4485 121.217 15.9396L121.977 15.2896ZM118.475 12.5224L118.962 11.6488C118.3 11.2799 117.591 10.9397 116.84 10.6272L116.456 11.5505L116.072 12.4739C116.76 12.76 117.399 13.0677 117.989 13.396L118.475 12.5224ZM114.347 10.7847L114.649 9.8313C113.936 9.60584 113.193 9.39998 112.42 9.21347L112.185 10.1855L111.951 11.1576C112.682 11.3341 113.381 11.5277 114.046 11.7382L114.347 10.7847ZM109.988 9.72268L110.168 8.73887C109.435 8.60533 108.679 8.48673 107.903 8.38299L107.771 9.37418L107.638 10.3654C108.385 10.4652 109.109 10.5789 109.809 10.7065L109.988 9.72268ZM105.544 9.12337L105.637 8.12764C104.894 8.05877 104.135 8.00212 103.359 7.95767L103.302 8.95603L103.245 9.9544C103.998 9.99756 104.734 10.0525 105.452 10.1191L105.544 9.12337ZM101.065 8.86321L101.091 7.86356C100.346 7.84398 99.5875 7.83481 98.8165 7.83604L98.8181 8.83604L98.8197 9.83604C99.5727 9.83484 100.313 9.84379 101.039 9.86287L101.065 8.86321ZM96.5767 8.86829L96.55 7.86865C95.8055 7.88859 95.0505 7.91765 94.2855 7.95583L94.3353 8.95459L94.3852 9.95335C95.1353 9.91591 95.8749 9.88745 96.6035 9.86793L96.5767 8.86829ZM92.093 9.0908L92.0218 8.09334C91.2785 8.14636 90.5266 8.20758 89.7665 8.27699L89.8574 9.27285L89.9484 10.2687C90.6956 10.2005 91.4343 10.1403 92.1641 10.0883L92.093 9.0908ZM87.6266 9.49772L87.5172 8.50373C87.1432 8.54492 86.7674 8.58801 86.3898 8.633L86.5082 9.62598L86.6265 10.6189C86.9982 10.5747 87.3681 10.5322 87.7361 10.4917L87.6266 9.49772ZM86.5082 9.62598L87.1509 8.85989C86.8695 8.62382 86.5847 8.39175 86.2964 8.16378L85.6761 8.94812L85.0558 9.73245C85.3289 9.94847 85.5988 10.1684 85.8654 10.3921L86.5082 9.62598ZM83.9548 7.66592L84.5288 6.84701C83.9276 6.42573 83.3137 6.02142 82.6877 5.63479L82.1622 6.4856L81.6368 7.33641C82.2298 7.70267 82.8114 8.0857 83.3809 8.48483L83.9548 7.66592ZM80.3042 5.41137L80.7793 4.53145C80.1338 4.18291 79.477 3.85253 78.8096 3.54099L78.3866 4.44712L77.9636 5.35325C78.5956 5.64828 79.2177 5.96118 79.8291 6.2913L80.3042 5.41137ZM76.416 3.59642L76.7853 2.66712C76.1042 2.39644 75.4134 2.14491 74.7135 1.91322L74.3992 2.86255L74.085 3.81188C74.7476 4.03126 75.4017 4.26942 76.0467 4.52573L76.416 3.59642ZM72.3428 2.24801L72.6009 1.2819C71.8935 1.09288 71.1779 0.923809 70.4549 0.775329L70.2537 1.75489L70.0526 2.73445C70.7373 2.87505 71.4148 3.03514 72.0847 3.21411L72.3428 2.24801ZM68.1399 1.38477L68.2835 0.395145C67.5599 0.290088 66.8298 0.205482 66.0936 0.141925L66.0076 1.13822L65.9216 2.13451C66.6191 2.19473 67.3108 2.27489 67.9962 2.37439L68.1399 1.38477ZM63.865 1.01532L63.8935 0.0157251C63.5274 0.00526491 63.16 0 62.7914 0V1V2C63.1409 2 63.4893 2.00499 63.8364 2.01491L63.865 1.01532Z" fill="#FFE7F0"/>
<path d="M38.0361 43.9238V34.0254H41.9189C44.1748 34.0254 45.46 35.4062 45.46 37.3613C45.46 39.3438 44.1475 40.6973 41.8643 40.6973H40.0869V43.9238H38.0361ZM40.0869 39.043H41.5361C42.7529 39.043 43.3408 38.3594 43.3408 37.3613C43.3408 36.377 42.7529 35.707 41.5361 35.707H40.0869V39.043ZM55.8232 38.9746C55.8232 42.2012 53.8135 44.0605 51.2021 44.0605C48.5635 44.0605 46.5674 42.1875 46.5674 38.9746C46.5674 35.748 48.5635 33.8887 51.2021 33.8887C53.8135 33.8887 55.8232 35.748 55.8232 38.9746ZM53.7314 38.9746C53.7314 36.8555 52.7334 35.707 51.2021 35.707C49.6709 35.707 48.6592 36.8555 48.6592 38.9746C48.6592 41.0938 49.6709 42.2422 51.2021 42.2422C52.7334 42.2422 53.7314 41.0938 53.7314 38.9746ZM57.2998 43.9238V34.0254H61.1826C63.4385 34.0254 64.7236 35.4062 64.7236 37.3613C64.7236 39.3438 63.4111 40.6973 61.1279 40.6973H59.3506V43.9238H57.2998ZM59.3506 39.043H60.7998C62.0166 39.043 62.6045 38.3594 62.6045 37.3613C62.6045 36.377 62.0166 35.707 60.7998 35.707H59.3506V39.043ZM70.3291 38.168V39.7812H65.8174V38.168H70.3291ZM78.1768 34.0254H80.2412V40.4512C80.2412 42.625 78.6006 44.0605 76.1396 44.0605C73.6787 44.0605 72.0518 42.625 72.0518 40.4512V34.0254H74.1025V40.2871C74.1025 41.4219 74.9092 42.2559 76.1396 42.2559C77.3838 42.2559 78.1768 41.4219 78.1768 40.2871V34.0254ZM81.9092 43.9238V34.0254H85.792C88.0479 34.0254 89.333 35.4062 89.333 37.3613C89.333 39.3438 88.0205 40.6973 85.7373 40.6973H83.96V43.9238H81.9092ZM83.96 39.043H85.4092C86.626 39.043 87.2139 38.3594 87.2139 37.3613C87.2139 36.377 86.626 35.707 85.4092 35.707H83.96V39.043Z" fill="#F0679C"/>
</svg>
